<svg width="120" height="120" viewBox="0 0 120 120" fill="none" xmlns="http://www.w3.org/2000/svg">
<rect width="120" height="120" rx="60" fill="white"/>
<path d="M60 23C40.6713 23 25 38.6713 25 58C25 64.566 26.8443 70.6877 29.9902 75.9386L25.3133 93L42.7393 88.4256C47.8356 91.3231 53.7189 93 60 93C79.3288 93 95 77.3288 95 58C95 38.6713 79.3288 23 60 23ZM48.02 41.6735C48.5888 41.6735 49.1732 41.67 49.6777 41.6963C50.3019 41.7109 50.9813 41.7566 51.6317 43.1945C52.4046 44.9037 54.0876 49.1914 54.3034 49.626C54.5192 50.0606 54.6722 50.5725 54.3717 51.1413C54.0859 51.7246 53.9373 52.0777 53.5173 52.5939C53.0827 53.0956 52.6065 53.7187 52.2127 54.0978C51.7781 54.5324 51.3294 55.0089 51.8311 55.8752C52.3327 56.7414 54.075 59.5812 56.6504 61.8737C59.9608 64.8312 62.7539 65.7401 63.623 66.1746C64.4922 66.6092 64.9956 66.5415 65.4972 65.9582C66.0135 65.3894 67.6654 63.4379 68.2487 62.5687C68.8174 61.6995 69.398 61.8499 70.1855 62.1357C70.9847 62.4216 75.2466 64.521 76.1157 64.9556C76.9849 65.3902 77.5547 65.6053 77.7734 65.9582C77.998 66.3228 77.9983 68.0584 77.2778 70.0825C76.5574 72.1038 73.0198 74.0584 71.4331 74.1955C69.8319 74.3442 68.3375 74.9152 61.0254 72.0365C52.2054 68.5627 46.6431 59.529 46.2085 58.9456C45.7739 58.3769 42.6766 54.2489 42.6766 49.9906C42.6766 45.7176 44.9169 43.625 45.7015 42.7559C46.5007 41.8867 47.4367 41.6735 48.02 41.6735Z" fill="#FFD700"/>
</svg>
