<svg width="120" height="120" viewBox="0 0 120 120" fill="none" xmlns="http://www.w3.org/2000/svg">
<rect width="120" height="120" rx="60" fill="white"/>
<path d="M60 30C47.12 30 30.4026 32.9079 30.4026 32.9079L30.3606 32.9512C24.4943 33.7965 20 38.3386 20 43.8624V60.4973V60.5027V77.1322V77.1376C20.0057 79.7757 21.055 82.3256 22.9594 84.3294C24.8638 86.3331 27.4986 87.6596 30.3906 88.0705L30.4026 88.0867C30.4026 88.0867 47.12 91 60 91C72.88 91 89.5974 88.0867 89.5974 88.0867L89.6034 88.0813C92.4986 87.6713 95.1364 86.3438 97.0422 84.3376C98.9481 82.3315 99.9969 79.7784 100 77.1376V77.1322V60.5027V60.4973V43.8624C99.9957 41.2234 98.9471 38.6722 97.0426 36.6673C95.1381 34.6624 92.5025 33.3352 89.6094 32.9241L89.5974 32.9079C89.5974 32.9079 72.88 30 60 30ZM50.7692 47.7396L75.3846 60.4973L50.7692 73.255V47.7396Z" fill="#FFD700"/>
</svg>
