<svg width="512" height="512" viewBox="0 0 512 512" fill="none" xmlns="http://www.w3.org/2000/svg">
<g clip-path="url(#clip0_2055_7)">
<path d="M276.707 4.32813C278.132 4.79092 279.558 5.25208 280.984 5.71175C284.02 6.69402 287.053 7.68693 290.083 8.68875C294.864 10.2697 299.653 11.8272 304.444 13.3806C309.382 14.9829 314.319 16.5867 319.253 18.199C330.196 21.7736 341.154 25.2968 352.129 28.7695C352.846 28.9964 353.563 29.2232 354.301 29.4569C358.489 30.7819 362.677 32.105 366.865 33.4276C375.906 36.2831 384.945 39.1457 393.976 42.0345C395.932 42.6591 397.89 43.2809 399.849 43.8991C402.363 44.6934 404.874 45.4991 407.383 46.3086C408.084 46.5271 408.785 46.7456 409.507 46.9707C414.76 48.6881 419.302 50.8925 422.813 55.25C425.051 60.433 425.646 64.8543 423.875 70.1875C421.963 74.6124 419.31 77.8638 414.916 80.0249C410.912 81.3639 406.877 82.0323 402.719 82.7266C401.828 82.8791 400.937 83.0316 400.019 83.1888C398.14 83.5091 396.26 83.8266 394.381 84.1416C391.509 84.6235 388.639 85.1158 385.77 85.6094C383.94 85.9199 382.111 86.2298 380.281 86.5391C379.426 86.6859 378.571 86.8327 377.689 86.984C373.751 87.6386 370.01 88.1907 366 88C366.021 89.0591 366.042 90.1183 366.064 91.2095C366.136 95.1566 366.182 99.1037 366.22 103.051C366.24 104.756 366.267 106.462 366.302 108.167C366.351 110.624 366.373 113.081 366.391 115.539C366.411 116.296 366.432 117.052 366.453 117.831C366.456 123.014 365.346 125.841 362 130C361.67 130.33 361.34 130.66 361 131C360.897 133.013 360.864 135.03 360.858 137.045C360.851 138.341 360.844 139.636 360.837 140.971C360.835 141.668 360.833 142.366 360.832 143.084C360.824 145.267 360.809 147.449 360.79 149.631C360.738 155.839 360.69 162.046 360.674 168.253C360.664 172.048 360.635 175.842 360.593 179.636C360.581 181.078 360.575 182.52 360.578 183.962C360.588 193.128 360.32 199.802 354.289 207.059C350.597 210.118 347.972 211.757 343 212C342.974 212.643 342.949 213.286 342.922 213.949C341.46 237.25 328.908 256.629 312 272C311.34 272.33 310.68 272.66 310 273C309.473 276.464 309.301 279.552 310 283C312.397 285.785 315.343 287.292 318.563 289C320.331 290.023 322.098 291.048 323.863 292.074C325.181 292.817 325.181 292.817 326.526 293.576C329.876 295.504 333.062 297.63 336.25 299.812C342.773 304.206 349.35 308.516 355.938 312.812C356.909 313.447 357.881 314.082 358.882 314.736C360.747 315.951 362.616 317.16 364.49 318.361C365.981 319.335 367.455 320.335 368.889 321.391C374.984 325.719 382.108 327.272 389.222 329.193C414.076 335.953 435.465 345.323 449.25 368.625C455.87 380.327 459.121 393.267 459.193 406.661C459.201 407.51 459.209 408.36 459.218 409.235C459.243 412.035 459.259 414.834 459.274 417.633C459.279 418.594 459.284 419.556 459.29 420.546C459.316 425.637 459.336 430.728 459.35 435.818C459.364 440.012 459.391 444.206 459.432 448.399C459.482 453.483 459.506 458.567 459.513 463.651C459.52 465.578 459.535 467.505 459.559 469.432C459.712 482.357 459.348 493.414 450.188 503.5C444.029 509.111 437.404 512.12 429.065 512.134C427.818 512.139 426.57 512.143 425.285 512.148C423.893 512.148 422.501 512.147 421.109 512.147C419.636 512.15 418.163 512.154 416.69 512.158C412.633 512.168 408.575 512.172 404.518 512.175C400.145 512.179 395.773 512.188 391.4 512.197C380.836 512.217 370.271 512.227 359.706 512.236C354.733 512.24 349.759 512.245 344.785 512.251C328.253 512.268 311.72 512.282 295.188 512.289C290.897 512.291 286.605 512.293 282.314 512.295C281.248 512.296 280.181 512.296 279.082 512.297C261.803 512.305 244.525 512.33 227.246 512.363C209.51 512.396 191.774 512.414 174.039 512.417C164.079 512.419 154.12 512.428 144.16 512.453C135.678 512.475 127.196 512.483 118.714 512.474C114.387 512.469 110.06 512.471 105.733 512.49C101.769 512.508 97.8053 512.507 93.8412 512.491C92.4097 512.489 90.9783 512.493 89.5469 512.505C78.1126 512.594 70.2458 510.793 61.7892 502.926C53.8923 494.425 52.6211 485.707 52.5627 474.438C52.5298 473.314 52.4969 472.191 52.4631 471.033C52.4096 462.852 52.4096 462.852 55.2697 458.727C58.014 456.991 58.9909 456.391 62.1252 456.938C62.7877 457.029 63.4503 457.121 64.133 457.215C66.7043 458.296 67.5338 459.644 69.0002 462C69.3849 464.378 69.3849 464.378 69.4064 466.992C69.4283 467.945 69.4502 468.897 69.4728 469.879C69.4818 470.868 69.4909 471.856 69.5002 472.875C69.5368 483.525 69.5368 483.525 75.2502 492.25C80.733 495.739 86.5347 496.307 92.9025 496.414C93.9864 496.443 93.9864 496.443 95.0921 496.473C97.3738 496.532 99.6556 496.579 101.938 496.625C103.496 496.663 105.054 496.702 106.611 496.742C110.408 496.838 114.204 496.922 118 497C117.979 495.93 117.958 494.861 117.937 493.759C117.864 489.786 117.818 485.813 117.78 481.839C117.76 480.12 117.733 478.401 117.698 476.683C117.65 474.21 117.627 471.739 117.61 469.266C117.589 468.499 117.568 467.732 117.547 466.942C117.545 463.363 117.692 461.402 119.9 458.519C122.159 456.885 123.243 456.432 126 456.438C126.66 456.416 127.32 456.394 128 456.371C130 457 130 457 134 462C134 473.55 134 485.1 134 497C214.52 497 295.04 497 378 497C378 485.45 378 473.9 378 462C382 457 382 457 384 456.371C384.99 456.404 384.99 456.404 386 456.438C386.66 456.436 387.32 456.435 388 456.434C391.005 457.285 392.099 458.517 394 461C394.349 463.89 394.468 466.386 394.391 469.266C394.385 470.059 394.379 470.852 394.374 471.67C394.351 474.197 394.301 476.723 394.25 479.25C394.23 480.966 394.212 482.682 394.195 484.398C394.151 488.6 394.082 492.8 394 497C398.536 496.931 403.07 496.842 407.605 496.738C409.144 496.705 410.683 496.676 412.222 496.654C425.751 496.993 425.751 496.993 437.601 491.585C441.935 486.674 442.152 482.383 442.161 476.139C442.166 475.338 442.171 474.538 442.176 473.713C442.191 471.06 442.198 468.407 442.203 465.754C442.209 463.904 442.215 462.053 442.221 460.203C442.231 456.317 442.237 452.431 442.24 448.544C442.246 443.592 442.27 438.639 442.298 433.687C442.317 429.86 442.322 426.032 442.324 422.205C442.327 420.381 442.335 418.557 442.348 416.734C442.437 403.522 441.518 391.76 435.313 379.812C434.964 379.133 434.615 378.454 434.256 377.754C424.314 359.075 405.486 351.1 386.063 345.125C377.053 342.17 377.053 342.17 367.848 342.816C364.881 344.539 362.419 346.337 359.824 348.554C356.216 351.415 352.115 353.533 348.125 355.812C346.222 356.935 344.321 358.062 342.422 359.191C338.42 361.565 334.417 363.937 330.412 366.306C317.159 374.147 303.928 382.017 290.783 390.038C274.512 399.962 274.512 399.962 266.563 404.5C265.948 404.856 265.334 405.212 264.701 405.579C261.452 407.403 258.722 408.693 255 409C251.909 407.843 251.909 407.843 248.504 406.055C247.892 405.735 247.28 405.415 246.649 405.086C240.253 401.7 234.085 397.94 227.938 394.125C225.484 392.616 223.028 391.112 220.57 389.609C219.947 389.228 219.323 388.846 218.681 388.452C211.944 384.337 205.133 380.351 198.313 376.375C190.184 371.631 182.065 366.875 173.995 362.03C171.896 360.773 169.791 359.526 167.679 358.29C163.01 355.536 158.568 352.756 154.324 349.375C146.974 343.623 146.974 343.623 138.013 342.151C130.348 343.483 123.216 346.165 116 349C114.626 349.479 113.249 349.951 111.867 350.41C96.2196 355.867 84.472 365.039 76.5588 379.664C70.322 392.584 69.548 405.116 69.6398 419.183C69.6484 421.361 69.6267 423.537 69.6017 425.715C69.6051 426.995 69.6085 428.275 69.612 429.594C68.8426 433.877 67.3791 435.343 64.0002 438C61.0002 438.625 61.0002 438.625 58.0002 438C54.5579 435.313 53.1511 433.839 52.3691 429.489C52.3429 428.144 52.3453 426.798 52.3713 425.453C52.3676 424.359 52.3676 424.359 52.3639 423.243C52.3649 421.696 52.3783 420.149 52.4032 418.603C52.437 416.298 52.424 413.997 52.4045 411.691C52.4158 398.33 54.224 384.537 60.6877 372.625C61.0294 371.972 61.3712 371.319 61.7233 370.646C73.0303 349.807 91.5005 338.391 113.497 331.708C116.066 330.981 118.645 330.355 121.242 329.742C137.856 325.61 150.495 317.175 164.328 307.535C169.685 303.815 175.156 300.271 180.626 296.721C184.217 294.387 187.796 292.036 191.374 289.681C193.046 288.61 194.743 287.575 196.466 286.588C200.588 284.36 200.588 284.36 203.063 280.57C202.938 275.486 202.938 275.486 200.504 271.148C199.151 270 197.762 268.893 196.348 267.82C181.334 256.179 171.985 236.506 169 218C168.875 214.438 168.875 214.438 169 212C168.134 211.917 167.268 211.835 166.375 211.75C161.627 210.695 158.528 209.136 155.639 205.098C151.715 198.07 151.313 191.831 151.409 183.873C151.434 181.715 151.429 179.559 151.417 177.401C151.396 172.83 151.416 168.259 151.438 163.688C151.459 158.368 151.463 153.049 151.437 147.729C151.434 145.61 151.455 143.492 151.478 141.373C151.472 139.44 151.472 139.44 151.467 137.468C151.473 136.336 151.479 135.205 151.486 134.04C150.894 130.337 149.5 128.731 147 126C145.414 122.827 145.879 119.412 145.903 115.93C145.904 115.133 145.905 114.337 145.907 113.517C145.912 110.97 145.925 108.422 145.938 105.875C145.943 104.15 145.947 102.424 145.951 100.699C145.962 96.4661 145.98 92.2331 146 88C145.019 87.9265 145.019 87.9265 144.018 87.8516C136.911 87.269 129.955 86.2536 122.938 85C121.392 84.7332 121.392 84.7332 119.815 84.4609C112.265 83.1325 112.265 83.1325 110 82C110 93.55 110 105.1 110 117C112.64 117.66 115.28 118.32 118 119C120.059 120.656 120.059 120.656 121.438 122.5C121.911 123.108 122.384 123.717 122.871 124.344C124.922 127.352 125.12 129.218 125.136 132.828C125.398 150.298 127.874 166.861 131.125 184C131.851 187.858 132.572 191.717 133.276 195.579C133.709 197.952 134.154 200.323 134.614 202.691C136.056 210.565 136.988 218.024 133.313 225.375C130.262 228.838 127.453 231.594 122.735 232.375C120.015 232.528 117.322 232.554 114.598 232.531C113.602 232.535 112.606 232.539 111.58 232.543C109.479 232.546 107.379 232.538 105.279 232.521C102.076 232.5 98.8763 232.521 95.674 232.547C93.6278 232.544 91.5815 232.539 89.5353 232.531C88.5841 232.539 87.6328 232.547 86.6528 232.556C80.5755 232.471 76.9739 231.551 72.0002 228C67.9476 223.414 67.0895 218.974 67.0002 213C67.4458 208.662 68.2417 204.411 69.0549 200.129C69.5095 197.588 69.9639 195.047 70.4181 192.506C71.1362 188.561 71.865 184.617 72.5973 180.675C75.34 165.808 77.6297 151.375 77.5543 136.217C77.5968 128.502 78.8117 125.188 84.3127 119.688C87.0002 118 87.0002 118 94.0002 117C94.0002 103.8 94.0002 90.6 94.0002 77C93.0102 76.67 92.0202 76.34 91.0002 76C87.6025 71.8183 86.8598 67.2641 87.0002 62C87.8202 57.8413 89.1959 54.8773 92.0627 51.75C99.3993 47.3792 107.8 44.9995 115.914 42.4805C116.97 42.1489 118.026 41.8173 119.114 41.4757C121.411 40.7549 123.708 40.0358 126.006 39.3182C131.651 37.5546 137.294 35.7804 142.936 34.0058C144.281 33.5828 145.626 33.1599 146.971 32.7371C167.201 26.3789 187.392 19.9026 207.588 13.4391C210.582 12.4811 213.576 11.5235 216.569 10.5658C219.242 9.7105 221.915 8.85418 224.587 7.99735C226.461 7.39896 228.337 6.80753 230.213 6.21616C232.853 5.36851 235.47 4.49577 238.087 3.58487C252.358 -1.2997 262.436 -0.453269 276.707 4.32813ZM242.168 19.3047C241.089 19.6553 240.009 20.0059 238.897 20.3672C236.554 21.129 234.213 21.8948 231.872 22.664C226.209 24.5253 220.538 26.3629 214.868 28.203C212.891 28.845 210.914 29.488 208.937 30.1313C196.25 34.2581 183.532 38.2889 170.806 42.2974C167.209 43.4309 163.612 44.5665 160.015 45.7026C149.577 48.9973 139.134 52.2755 128.676 55.5039C126.211 56.2675 123.746 57.0316 121.282 57.7957C119.066 58.4796 116.848 59.155 114.63 59.8298C113.336 60.2299 112.043 60.6304 110.75 61.0313C109.652 61.3671 108.554 61.7029 107.422 62.0488C104.847 62.7484 104.847 62.7484 104 65C110.186 66.1543 116.376 67.2917 122.567 68.418C124.668 68.8022 126.769 69.1901 128.869 69.582C131.906 70.1481 134.945 70.7002 137.985 71.25C138.907 71.425 139.829 71.6 140.78 71.7803C153.037 73.9616 164.677 72.7441 176.907 71.148C179.551 70.8038 182.197 70.4705 184.843 70.1399C192.36 69.1993 199.875 68.2429 207.387 67.2725C233.147 63.9532 258.031 61.204 283.953 64.5991C286.124 64.883 288.297 65.144 290.471 65.4023C302.944 66.9381 302.944 66.9381 309 69C310.509 72.0187 310.175 74.673 310 78C308 81 308 81 304.834 81.7361C300.93 82.0049 297.526 81.7591 293.653 81.2227C292.226 81.0369 290.8 80.8513 289.373 80.666C287.182 80.3702 284.991 80.07 282.802 79.7639C256.607 76.1474 231.591 79.2595 205.536 82.5773C201.697 83.0628 197.857 83.5347 194.017 84.0064C189.431 84.5703 184.847 85.1424 180.262 85.7148C178.954 85.8769 178.954 85.8769 177.62 86.0423C175.176 86.3465 172.734 86.6565 170.292 86.9685C169.563 87.0584 168.835 87.1483 168.084 87.241C164.753 87.4314 164.753 87.4314 162 89C162 98.57 162 108.14 162 118C224.04 118 286.08 118 350 118C350 108.43 350 98.86 350 89C347.59 86.59 341.691 87.1355 338.418 86.793C334.644 85.9173 333.297 85.0683 331 82C330.405 78.4275 330.453 76.7716 332.563 73.7969C335.902 71.3349 338.579 71.7786 342.5 72.25C345.335 72.529 348.161 72.7886 351 73C351.789 73.0625 352.577 73.125 353.39 73.1895C364.488 73.6329 375.397 71.0254 386.25 69C388.363 68.6136 390.477 68.2282 392.59 67.8438C397.729 66.9069 402.865 65.9582 408 65C407.169 62.79 407.169 62.79 404.818 62.1036C403.847 61.7983 402.876 61.493 401.875 61.1785C400.209 60.6486 400.209 60.6486 398.51 60.108C397.281 59.7256 396.052 59.3432 394.785 58.9492C393.487 58.5392 392.188 58.1285 390.89 57.7171C388.089 56.8311 385.287 55.9498 382.483 55.0723C378.041 53.6817 373.602 52.2812 369.163 50.8789C364.532 49.4166 359.902 47.9552 355.27 46.4974C344.336 43.0562 333.41 39.5932 322.488 36.1133C321.369 35.7567 321.369 35.7567 320.227 35.3929C316.541 34.2183 312.854 33.0434 309.168 31.8683C304.956 30.5257 300.744 29.1838 296.532 27.8425C295.867 27.6309 295.203 27.4194 294.518 27.2014C290.154 25.8118 285.788 24.4268 281.421 23.043C277.543 21.8132 273.671 20.5697 269.806 19.3008C269.061 19.0593 268.317 18.8178 267.549 18.569C265.71 17.9717 263.873 17.3662 262.036 16.7598C254.728 14.9308 249.113 16.9973 242.168 19.3047ZM94.0002 133C94.0002 137.29 94.0002 141.58 94.0002 146C98.9502 146 103.9 146 109 146C109 141.71 109 137.42 109 133C104.05 133 99.1002 133 94.0002 133ZM168 134C168 141.92 168 149.84 168 158C176.291 158.117 176.291 158.117 183 155C185.851 151.249 185.221 146.729 185.125 142.25C185.084 139.527 185.043 136.805 185 134C179.39 134 173.78 134 168 134ZM201 134C200.67 140.27 200.34 146.54 200 153C195.798 165.606 195.798 165.606 188.688 169.75C182.054 172.923 175.244 172.894 168 173C167.913 176.437 167.86 179.874 167.813 183.312C167.788 184.289 167.762 185.265 167.736 186.271C167.727 187.209 167.717 188.147 167.707 189.113C167.691 189.977 167.676 190.841 167.66 191.732C168.073 194.482 168.823 195.328 171 197C172.985 197.579 174.922 197.873 176.965 198.18C180.143 199.461 181.204 201.087 183 204C183.916 207.146 184.422 210.33 184.938 213.562C186.382 221.561 188.253 228.725 192 236C192.441 236.856 192.882 237.712 193.336 238.594C202.813 255.558 218.239 266.637 236.215 273.168C255.229 278.38 274.597 274.995 291.774 265.922C296.599 263.048 300.834 259.754 305 256C305.951 255.17 305.951 255.17 306.922 254.324C319.324 242.828 325.611 226.014 327.938 209.625C328.686 205.032 329.208 202.015 333 199C335.303 198.072 337.58 197.325 339.977 196.676C342.196 196.102 342.196 196.102 344 194C344.278 191.77 344.278 191.77 344.195 189.211C344.189 188.27 344.183 187.329 344.176 186.359C344.159 185.375 344.142 184.39 344.125 183.375C344.116 182.382 344.107 181.39 344.098 180.367C344.074 177.911 344.041 175.456 344 173C343.033 172.986 342.067 172.972 341.07 172.957C332.125 172.629 324.061 172.037 317.352 165.359C310.287 156.294 311.586 145.138 311 134C274.7 134 238.4 134 201 134ZM327 134C326.959 136.723 326.918 139.445 326.875 142.25C326.857 143.101 326.839 143.952 326.82 144.829C326.699 150.236 326.699 150.236 329 155C334.776 158.234 336.642 158 344 158C344 150.08 344 142.16 344 134C338.39 134 332.78 134 327 134ZM92.0002 162C90.8533 168.564 89.7143 175.129 88.5822 181.696C88.1963 183.928 87.8083 186.16 87.4181 188.391C86.8566 191.605 86.3027 194.82 85.7502 198.035C85.5752 199.027 85.4002 200.019 85.2199 201.041C84.3592 206.095 83.6938 210.871 84.0002 216C85.7003 217.7 87.8259 217.128 90.0935 217.139C91.1591 217.136 91.1591 217.136 92.2463 217.133C92.9726 217.134 93.6989 217.135 94.4472 217.136C95.9864 217.136 97.5256 217.135 99.0649 217.13C101.424 217.125 103.783 217.13 106.143 217.137C107.636 217.136 109.128 217.135 110.621 217.133C111.33 217.135 112.038 217.137 112.768 217.139C116.509 217.177 116.509 217.177 120 216C119.202 211.042 118.403 206.084 117.601 201.126C117.331 199.447 117.06 197.769 116.79 196.091C114.958 184.708 113.029 173.349 111 162C104.73 162 98.4602 162 92.0002 162ZM219 283C218.628 291.326 219.131 299.214 220.375 307.438C220.501 308.277 220.627 309.117 220.757 309.981C221.523 314.783 222.562 319.355 224 324C225.135 324.309 226.269 324.619 227.438 324.938C228.076 325.112 228.714 325.286 229.371 325.465C238.065 327.235 246.788 327.194 255.625 327.188C256.29 327.187 256.954 327.187 257.639 327.187C273.162 327.975 273.162 327.975 287.762 323.902C289.672 320.968 290.075 317.771 290.625 314.375C290.75 313.65 290.875 312.925 291.003 312.178C291.351 310.121 291.68 308.062 292 306C292.136 305.154 292.271 304.309 292.41 303.438C293.321 296.664 293.087 289.819 293 283C292.045 283.338 291.09 283.675 290.106 284.023C266.172 292.356 242.7 292.252 219 283ZM194.313 307.062C188.851 310.758 183.374 314.421 177.832 317.996C176.801 318.662 175.77 319.328 174.708 320.013C172.68 321.32 170.651 322.623 168.619 323.922C167.685 324.525 166.751 325.129 165.789 325.75C164.547 326.547 164.547 326.547 163.28 327.359C160.929 329.051 158.988 330.9 157 333C157.711 333.415 158.422 333.831 159.154 334.259C162.604 336.276 166.052 338.294 169.5 340.312C170.139 340.686 170.778 341.06 171.436 341.445C179.193 345.988 186.94 350.549 194.664 355.148C195.729 355.782 195.729 355.782 196.815 356.429C200.253 358.475 203.689 360.525 207.123 362.577C214.332 366.878 221.589 371.054 229 375C227.751 371.736 226.36 368.7 224.645 365.656C213.381 345.249 207.746 324.881 204 302C200.315 302 197.287 305.03 194.313 307.062ZM308 302C307.91 302.562 307.821 303.123 307.728 303.702C303.755 328.096 297.583 352.53 283 373C283.33 373.66 283.66 374.32 284 375C291.22 370.777 298.438 366.552 305.653 362.32C306.271 361.958 306.89 361.595 307.527 361.222C313.003 358.008 318.451 354.75 323.887 351.469C330.05 347.758 336.247 344.103 342.438 340.438C343.059 340.069 343.681 339.701 344.322 339.322C347.881 337.214 351.44 335.107 355 333C352.073 329.874 349.044 327.561 345.449 325.242C344.365 324.538 343.28 323.834 342.162 323.109C341.004 322.364 339.846 321.62 338.688 320.875C336.921 319.733 335.156 318.589 333.39 317.445C332.225 316.69 331.059 315.935 329.892 315.181C324.608 311.759 319.377 308.26 314.19 304.693C311.352 302.619 311.352 302.619 308 302ZM231 342C233.362 353.811 241.423 364.456 247.875 374.438C248.542 375.475 249.208 376.513 249.895 377.582C250.525 378.543 251.156 379.505 251.805 380.496C252.372 381.364 252.939 382.232 253.523 383.127C254.011 383.745 254.498 384.363 255 385C255.66 385 256.32 385 257 385C258.781 382.512 260.437 380.025 262.063 377.438C262.55 376.672 263.037 375.906 263.539 375.117C275.068 359.435 275.068 359.435 281 342C264.5 342 248 342 231 342Z" fill="#00646F"/>
</g>
<defs>
<clipPath id="clip0_2055_7">
<rect width="512" height="512" fill="white"/>
</clipPath>
</defs>
</svg>
