<svg width="512" height="512" viewBox="0 0 512 512" fill="none" xmlns="http://www.w3.org/2000/svg">
<path d="M193.18 211.168C200.404 218.439 203.274 227.545 203.375 237.625C203.325 248.904 200.268 261.732 192 270C193.058 270.287 193.058 270.287 194.136 270.579C197.384 271.463 200.63 272.357 203.875 273.25C204.984 273.55 206.092 273.851 207.235 274.16C231.696 280.923 231.696 280.923 238.258 292.152C241.176 299.533 241.131 307.08 241.063 314.875C241.058 315.85 241.054 316.824 241.049 317.828C241.037 320.219 241.021 322.609 241 325C241.58 324.859 242.159 324.717 242.756 324.571C252.126 322.37 260.744 322.152 270 325C269.977 324.415 269.954 323.83 269.93 323.227C269.8 317.047 270.153 310.958 270.75 304.813C270.843 303.691 270.843 303.691 270.937 302.547C271.666 295.67 273.936 289.824 278.875 284.875C289.172 276.859 306.886 271 320 271C319.541 270.334 319.082 269.667 318.61 268.981C310.545 256.867 306.469 245.009 308.625 230.313C310.876 220.189 315.436 212.943 324 207C333.73 201.33 345.72 200.882 356.539 203.277C364.441 205.598 371.46 209.732 375.735 216.914C381.765 228.717 383.06 240.98 379.438 253.875C377.234 260.184 373.866 265.581 370 271C371.14 271.12 372.279 271.24 373.453 271.363C387.218 273.098 402.568 277.575 413 287C414.547 289.367 414.547 289.367 415.75 291.875C416.361 293.109 416.361 293.109 416.985 294.367C419.452 300.765 419.296 307.603 419.563 314.375C419.606 315.397 419.649 316.42 419.694 317.473C419.799 319.982 419.901 322.491 420 325C421.026 324.677 422.052 324.353 423.11 324.02C433.127 321.173 444.24 322.572 453.473 327.254C461.518 332.183 466.362 338.892 469.305 347.82C471.888 359.635 470.481 372.178 464.434 382.734C463.017 384.878 461.533 386.939 460 389C459.67 389.66 459.34 390.32 459 391C459.634 391.156 460.268 391.311 460.921 391.472C496.96 400.39 496.96 400.39 503.563 410.359C508.527 419.667 508.18 428.764 508.238 439.113C508.243 439.79 508.247 440.466 508.251 441.162C508.272 444.74 508.286 448.318 508.295 451.895C508.306 455.564 508.341 459.231 508.38 462.899C508.407 465.745 508.415 468.591 508.419 471.436C508.426 473.438 508.452 475.44 508.479 477.441C508.456 486.977 507.22 494.696 500.688 501.938C494.376 508.158 487.337 508.441 478.959 508.404C477.324 508.414 477.324 508.414 475.655 508.425C472.063 508.443 468.471 508.439 464.879 508.434C462.375 508.438 459.87 508.444 457.366 508.45C452.122 508.459 446.877 508.456 441.633 508.446C435.586 508.435 429.539 508.449 423.492 508.476C417.656 508.5 411.82 508.503 405.983 508.496C403.509 508.496 401.034 508.502 398.559 508.515C395.096 508.53 391.634 508.519 388.17 508.502C387.153 508.511 386.137 508.521 385.089 508.531C377.908 508.457 372.56 507.001 367.012 502.324C356.784 489.682 358.814 473.709 358.815 458.266C358.813 455.205 358.794 452.145 358.776 449.084C358.68 416.251 358.68 416.251 366.617 407.145C377.406 396.647 393.927 394.454 408 391C407.34 389.68 406.68 388.36 406 387C404.897 387.162 403.794 387.325 402.657 387.492C397.595 388.121 392.584 388.14 387.488 388.13C385.955 388.132 385.955 388.132 384.391 388.135C381.031 388.139 377.672 388.136 374.313 388.133C371.967 388.134 369.621 388.135 367.275 388.136C362.366 388.137 357.457 388.135 352.548 388.13C346.267 388.125 339.986 388.128 333.705 388.134C328.863 388.138 324.021 388.137 319.179 388.134C316.863 388.133 314.548 388.134 312.232 388.136C308.992 388.139 305.752 388.135 302.512 388.13C301.087 388.133 301.087 388.133 299.634 388.136C294.331 388.119 289.248 387.772 284 387C283.34 388.32 282.68 389.64 282 391C282.599 391.156 283.197 391.311 283.813 391.472C318.093 400.442 318.093 400.442 325 409C336.233 428.411 331.587 459.24 330.688 480.938C330.665 481.657 330.643 482.376 330.62 483.117C330.26 489.897 328.282 496.532 323.62 501.628C316.73 507.464 309.405 508.737 300.651 508.663C299.563 508.673 298.475 508.684 297.355 508.694C293.788 508.721 290.223 508.712 286.656 508.699C284.161 508.705 281.666 508.713 279.171 508.721C273.286 508.734 267.402 508.721 261.517 508.699C256.839 508.685 252.162 508.698 247.484 508.727C241.008 508.767 234.532 508.778 228.056 508.764C225.597 508.763 223.138 508.77 220.679 508.787C217.235 508.807 213.793 508.789 210.35 508.761C209.345 508.774 208.34 508.788 207.304 508.802C199.889 508.681 194.9 506.469 189 502C186.746 499.586 186.746 499.586 185.438 497.375C184.983 496.64 184.528 495.906 184.059 495.149C175.288 477.348 178.56 435.173 183.125 416.438C186.028 408.271 191.551 403.874 199.136 400.216C204.082 398.117 209.197 396.718 214.375 395.313C216.488 394.729 218.6 394.142 220.711 393.551C221.632 393.3 222.553 393.049 223.502 392.79C225.826 392.055 227.86 391.158 230 390C228.68 388.68 227.36 387.36 226 386C225.222 386.325 224.444 386.65 223.643 386.985C218.922 388.3 214.592 388.272 209.715 388.243C208.694 388.245 207.672 388.247 206.619 388.249C203.248 388.252 199.878 388.242 196.508 388.231C194.159 388.229 191.81 388.229 189.462 388.229C184.541 388.228 179.62 388.219 174.699 388.206C168.402 388.189 162.105 388.185 155.808 388.186C150.958 388.186 146.107 388.18 141.257 388.173C138.936 388.17 136.615 388.168 134.293 388.167C131.043 388.165 127.794 388.156 124.544 388.145C123.591 388.146 122.638 388.146 121.656 388.147C116.347 388.121 111.254 387.772 106 387C105.34 388.32 104.68 389.64 104 391C104.725 391.181 105.45 391.361 106.196 391.547C109.551 392.392 112.901 393.259 116.25 394.125C117.39 394.409 118.529 394.692 119.703 394.984C130.998 397.936 142.509 401.664 149 412C155.013 423.959 153.158 439.47 153.131 452.472C153.125 455.493 153.13 458.514 153.137 461.535C153.152 493.23 153.152 493.23 145.289 501.883C140.749 505.987 136.387 508.242 130.163 508.268C129.217 508.276 128.271 508.285 127.296 508.293C126.27 508.292 125.244 508.292 124.186 508.291C122.551 508.301 122.551 508.301 120.883 508.311C117.28 508.33 113.677 508.334 110.074 508.336C107.567 508.342 105.06 508.349 102.553 508.356C97.2964 508.368 92.04 508.372 86.7836 508.371C80.722 508.37 74.6607 508.391 68.5992 508.422C62.7531 508.452 56.9072 508.459 51.0611 508.458C48.5808 508.46 46.1005 508.469 43.6203 508.484C40.1473 508.504 36.6751 508.498 33.2021 508.486C32.182 508.497 31.162 508.508 30.1111 508.52C22.3693 508.452 17.1803 506.674 11.2502 501.688C6.00254 495.42 3.88309 489.959 3.85489 481.814C3.84532 479.936 3.84532 479.936 3.83556 478.02C3.83403 476.655 3.83292 475.291 3.83219 473.926C3.82897 472.518 3.82561 471.111 3.8221 469.703C3.81612 466.752 3.81426 463.8 3.81485 460.849C3.81495 457.088 3.80133 453.327 3.78408 449.566C3.77289 446.656 3.77093 443.747 3.77146 440.838C3.77028 439.453 3.76592 438.067 3.75814 436.682C3.69951 425.166 3.9425 414.938 12.0002 406C22.6856 396.913 39.5697 393.705 53.0002 391C52.5413 390.357 52.0823 389.714 51.6095 389.051C43.456 377.043 40.5607 365.306 42.0002 351C44.0191 341.767 48.5319 334.265 56.1877 328.688C65.1442 323.2 76.618 320.989 86.9474 323.467C88.6404 323.948 90.3216 324.471 92.0002 325C91.9769 324.08 91.9537 323.159 91.9298 322.211C91.5424 295.033 91.5424 295.033 99.5353 286.328C107.035 279.427 116.124 276.861 125.75 274.25C126.873 273.934 127.996 273.618 129.152 273.293C137.461 271 137.461 271 142 271C141.541 270.334 141.082 269.667 140.61 268.981C132.721 257.132 127.959 244.556 130.496 230.192C132.938 220.247 137.475 212.852 146 207C161.176 199.151 179.72 200.406 193.18 211.168ZM151.125 222.375C145.98 228.731 144.463 233.815 145 242C146.71 250.737 150.392 258.8 157.813 264.063C162.19 266.456 166.116 267.044 171 266C178.637 262.956 183.586 256.608 186.875 249.25C188.965 242.943 189.224 235.288 186.75 229.063C183.107 222.687 179.763 219.344 172.563 217.313C164.54 216.334 157.473 217.131 151.125 222.375ZM328 223.438C323.46 229.323 322.533 235.85 323.352 243.121C325.036 251.088 328.318 258.715 335.188 263.5C339.806 265.963 343.83 266.513 349 266C355.655 263.827 359.897 258.615 363.332 252.711C366.684 245.438 367.524 237.327 365.305 229.57C362.987 224.408 359.462 220.322 354.047 218.254C344.929 215.731 334.952 216.457 328 223.438ZM147.313 284.188C145.97 284.51 144.626 284.832 143.283 285.154C124.521 288.861 124.521 288.861 109.188 299.188C106.089 306.527 106.729 315.643 106.625 323.5C106.588 324.576 106.55 325.653 106.512 326.762C106.44 333.34 107.268 337.558 110.816 343.119C115.975 351.313 114.176 362.933 113 372C114.98 372.33 116.96 372.66 119 373C119.02 371.738 119.04 370.476 119.06 369.176C119.136 364.506 119.225 359.836 119.318 355.166C119.356 353.142 119.391 351.119 119.422 349.095C119.468 346.191 119.526 343.287 119.586 340.383C119.598 339.475 119.609 338.566 119.621 337.63C119.641 336.79 119.661 335.949 119.681 335.083C119.695 334.341 119.708 333.599 119.722 332.835C120 331 120 331 122 329C127.684 328.459 127.684 328.459 130 329C132.7 331.473 133.221 333.607 133.433 337.126C133.474 338.797 133.499 340.469 133.512 342.141C133.529 342.923 133.545 343.705 133.562 344.511C133.62 347.424 133.652 350.337 133.688 353.25C133.791 359.768 133.894 366.285 134 373C155.78 373 177.56 373 200 373C200.25 359.642 200.25 359.642 200.478 346.284C200.513 344.61 200.549 342.936 200.586 341.262C200.597 340.392 200.609 339.522 200.621 338.626C200.641 337.794 200.661 336.962 200.681 336.104C200.695 335.383 200.708 334.661 200.722 333.917C201 332 201 332 203 329C208.549 328.384 208.549 328.384 211 329C213.699 331.476 214.221 333.606 214.433 337.126C214.474 338.797 214.499 340.469 214.512 342.141C214.53 343.023 214.548 343.905 214.566 344.814C214.62 347.626 214.654 350.438 214.688 353.25C214.721 355.159 214.755 357.068 214.791 358.977C214.876 363.651 214.943 368.325 215 373C216.65 372.67 218.3 372.34 220 372C220.933 369.201 221.081 367.795 220.957 364.938C220.676 355.616 220.502 347.491 225 339C225.33 338.67 225.66 338.34 226 338C226.126 335.645 226.189 333.321 226.203 330.965C226.209 330.253 226.215 329.541 226.221 328.807C226.23 327.293 226.237 325.779 226.24 324.265C226.25 321.971 226.281 319.678 226.313 317.385C226.545 306.788 226.545 306.788 223 297C218.63 293.154 213.683 291.686 208.188 290.125C207.333 289.877 206.477 289.628 205.596 289.373C198.392 287.32 191.144 285.434 183.875 283.625C182.845 283.362 181.816 283.099 180.755 282.829C168.742 279.93 159.249 281.264 147.313 284.188ZM324.097 284.571C321.641 285.184 319.181 285.774 316.719 286.361C299.843 289.769 299.843 289.769 287 300C283.414 310.758 282.649 328.54 286.082 339.434C287.359 342.021 287.359 342.021 288.809 344.16C291.075 347.659 291.122 351.116 291.098 355.203C291.095 356.183 291.091 357.163 291.088 358.172C291.08 359.188 291.071 360.204 291.063 361.25C291.058 362.281 291.054 363.313 291.049 364.375C291.037 366.917 291.021 369.458 291 372C292.98 372.33 294.96 372.66 297 373C297.015 371.774 297.029 370.548 297.044 369.284C297.102 364.738 297.18 360.193 297.263 355.648C297.296 353.68 297.324 351.712 297.347 349.744C297.38 346.916 297.432 344.089 297.488 341.262C297.495 340.38 297.501 339.499 297.508 338.591C297.528 337.77 297.547 336.95 297.568 336.104C297.579 335.383 297.59 334.661 297.601 333.917C298.115 331.448 299.034 330.537 301 329C303.262 328.707 303.262 328.707 305.688 328.813C306.9 328.853 306.9 328.853 308.137 328.895C308.752 328.929 309.367 328.964 310 329C310.772 331.76 311.142 334.263 311.205 337.126C311.226 337.938 311.246 338.749 311.267 339.586C311.283 340.429 311.3 341.272 311.317 342.141C311.335 342.923 311.354 343.705 311.373 344.511C311.441 347.424 311.501 350.337 311.563 353.25C311.707 359.768 311.851 366.285 312 373C333.78 373 355.56 373 378 373C378.21 359.642 378.21 359.642 378.388 346.284C378.42 344.61 378.454 342.936 378.488 341.262C378.498 339.957 378.498 339.957 378.507 338.626C378.527 337.794 378.547 336.962 378.568 336.104C378.579 335.383 378.59 334.661 378.601 333.917C379.115 331.448 380.034 330.537 382 329C384.262 328.707 384.262 328.707 386.688 328.813C387.9 328.853 387.9 328.853 389.137 328.895C389.752 328.929 390.367 328.964 391 329C391.772 331.76 392.142 334.263 392.205 337.126C392.235 338.327 392.235 338.327 392.266 339.552C392.283 340.406 392.299 341.261 392.317 342.141C392.337 343.023 392.358 343.905 392.38 344.814C392.445 347.626 392.504 350.438 392.563 353.25C392.606 355.159 392.649 357.068 392.694 358.977C392.8 363.651 392.902 368.326 393 373C394.98 372.67 396.96 372.34 399 372C398.835 370.866 398.67 369.731 398.5 368.563C397.343 358.844 397.283 347.946 403.188 339.625C406.152 334.907 405.364 329.451 405.099 324.083C404.992 321.834 404.929 319.586 404.867 317.336C404.81 315.745 404.75 314.154 404.688 312.563C404.665 311.818 404.643 311.073 404.621 310.306C404.372 305.328 403.514 301.412 401 297C396.563 293.2 391.703 291.692 386.188 290.125C385.333 289.877 384.477 289.628 383.596 289.373C376.392 287.32 369.144 285.434 361.875 283.625C360.845 283.362 359.816 283.099 358.755 282.829C346.239 279.808 336.384 281.494 324.097 284.571ZM61.6252 344.375C56.2848 350.909 56.2436 357.876 57.0002 366C58.8349 373.537 62.5786 379.703 68.8127 384.352C73.2965 387.009 77.3273 387.644 82.4728 386.867C88.4747 384.808 93.0875 379.841 96.4377 374.563C99.8666 366.745 100.901 359.422 99.0002 351C96.4991 344.794 93.007 341.73 87.0002 339C78.0296 336.278 68.0808 337.218 61.6252 344.375ZM238 346C233.983 352.829 234.056 359.267 235 367C237.852 375.889 242.505 381.674 250.375 386.438C255.741 387.587 260.406 386.828 265.25 384.313C272.043 378.601 276.499 372.274 277.352 363.297C277.527 355.162 277.076 349.779 271.813 343.313C266.232 338.724 260.622 337.462 253.457 337.715C246.838 338.483 242.259 340.768 238 346ZM416 345C412.132 351.494 411.021 357.921 412.461 365.391C414.093 371.65 416.673 376.216 421 381C421.453 381.518 421.905 382.037 422.371 382.57C425.975 386.144 429.595 386.95 434.477 387.192C440.248 386.754 444.337 384.004 448.25 379.875C454.529 371.778 456.267 363.107 455 353C453.296 347.044 450.053 343.436 445 340C435.372 335.405 423.503 337.497 416 345ZM56.2978 405.571C53.9419 406.187 51.5805 406.776 49.217 407.361C32.5616 410.829 32.5616 410.829 20.0002 421C19.0393 424.684 18.8592 428.183 18.8232 431.98C18.8103 433.162 18.7975 434.343 18.7843 435.561C18.7769 436.828 18.7695 438.096 18.7619 439.402C18.7538 440.713 18.7457 442.023 18.7374 443.374C18.7224 446.143 18.7126 448.913 18.705 451.682C18.6939 455.221 18.6595 458.759 18.6198 462.297C18.5873 465.686 18.5829 469.076 18.5744 472.465C18.5569 473.731 18.5394 474.996 18.5213 476.301C18.3838 483.261 18.3838 483.261 20.5893 489.721C23.5562 492.526 26.0296 493.237 30.0002 494C30.0252 492.804 30.0503 491.608 30.0761 490.376C30.1702 485.942 30.2704 481.509 30.3725 477.075C30.4158 475.156 30.4575 473.236 30.4975 471.316C30.5552 468.558 30.6189 465.801 30.6837 463.043C30.7005 462.184 30.7172 461.324 30.7344 460.439C30.7543 459.638 30.7743 458.837 30.7948 458.013C30.8104 457.309 30.8259 456.605 30.8419 455.879C31.0002 454 31.0002 454 32.0002 451C34.5901 449.082 35.875 448.99 39.1252 449.25C42.0002 450 42.0002 450 44.0002 452C44.2786 453.835 44.2786 453.835 44.319 456.083C44.3491 457.361 44.3491 457.361 44.3798 458.666C44.3968 460.011 44.3968 460.011 44.4142 461.383C44.4319 462.207 44.4495 463.03 44.4677 463.879C44.5308 466.961 44.577 470.043 44.6252 473.125C44.7489 480.014 44.8727 486.903 45.0002 494C66.7802 494 88.5602 494 111 494C111.289 480.971 111.289 480.971 111.568 467.942C111.606 466.309 111.645 464.676 111.684 463.043C111.7 462.195 111.717 461.346 111.734 460.472C111.754 459.661 111.774 458.849 111.795 458.013C111.81 457.309 111.826 456.605 111.842 455.879C112 454 112 454 113 451C115.59 449.082 116.875 448.99 120.125 449.25C123 450 123 450 125 452C125.279 453.835 125.279 453.835 125.319 456.083C125.339 456.923 125.359 457.764 125.379 458.63C125.391 459.539 125.402 460.447 125.414 461.383C125.434 462.312 125.453 463.242 125.473 464.199C125.533 467.174 125.579 470.15 125.625 473.125C125.663 475.139 125.702 477.154 125.742 479.168C125.838 484.112 125.922 489.056 126 494C131.061 492.759 131.061 492.759 135.375 490C139.023 483.265 138.159 474.371 138.168 466.856C138.171 465.924 138.175 464.992 138.178 464.032C138.183 462.075 138.186 460.118 138.185 458.161C138.188 455.206 138.206 452.25 138.225 449.295C139.242 432.403 139.242 432.403 133.813 417.32C125.778 410.694 113.015 408.718 102.986 406.205C100.931 405.686 98.883 405.143 96.8341 404.6C82.4077 400.876 70.5311 401.841 56.2978 405.571ZM234.263 405.626C231.876 406.25 229.484 406.851 227.09 407.449C211.826 410.796 211.826 410.796 199 419C190.899 435.611 193.882 468.126 197 486C198.662 489.521 199.934 491.47 203.625 492.813C206.561 494.055 206.561 494.055 208 494C208.03 492.161 208.03 492.161 208.06 490.284C208.136 485.738 208.225 481.193 208.318 476.648C208.356 474.68 208.391 472.712 208.422 470.744C208.468 467.916 208.526 465.089 208.586 462.262C208.598 461.38 208.609 460.499 208.621 459.591C208.641 458.77 208.661 457.95 208.681 457.104C208.695 456.383 208.708 455.661 208.722 454.917C209 453 209 453 211 450C214.169 449.104 216.177 448.711 219.313 449.813C221 451 221 451 222 453C222.158 456.06 222.259 459.102 222.317 462.164C222.335 462.968 222.354 463.772 222.373 464.6C222.441 467.609 222.502 470.617 222.563 473.625C222.707 480.349 222.851 487.073 223 494C244.78 494 266.56 494 289 494C289.25 480.642 289.25 480.642 289.478 467.284C289.513 465.61 289.549 463.936 289.586 462.262C289.597 461.392 289.609 460.522 289.621 459.626C289.641 458.794 289.661 457.962 289.681 457.104C289.695 456.383 289.708 455.661 289.722 454.917C290 453 290 453 292 450C295.169 449.104 297.177 448.711 300.313 449.813C302 451 302 451 303 453C303.158 456.061 303.259 459.102 303.317 462.164C303.337 463.071 303.358 463.979 303.38 464.913C303.445 467.817 303.504 470.721 303.563 473.625C303.606 475.591 303.649 477.557 303.694 479.524C303.801 484.349 303.902 489.175 304 494C309.749 492.718 309.749 492.718 314 489C319.633 472.1 320.252 437.472 313.77 420.844C310.06 414.882 305.237 413.053 298.813 411.125C298.001 410.877 297.19 410.628 296.353 410.373C289.148 408.23 281.871 406.379 274.563 404.625C273.498 404.362 272.434 404.099 271.337 403.829C258.073 400.763 247.215 402.234 234.263 405.626ZM413.655 405.198C411.506 405.748 409.354 406.278 407.199 406.805C389.368 410.053 389.368 410.053 375.688 420.125C373.86 427.768 373.85 435.684 373.867 443.504C373.866 444.467 373.865 445.431 373.864 446.423C373.864 448.444 373.866 450.465 373.87 452.486C373.875 455.558 373.87 458.63 373.863 461.701C373.864 463.677 373.865 465.653 373.867 467.629C373.865 468.536 373.863 469.442 373.861 470.376C373.637 480.512 373.637 480.512 376.625 489.938C379.571 492.496 382.263 493.029 386 494C386.006 492.115 386.006 492.115 386.013 490.192C386.034 485.535 386.089 480.878 386.153 476.221C386.176 474.204 386.19 472.187 386.196 470.171C386.205 467.273 386.246 464.378 386.293 461.481C386.289 460.577 386.285 459.674 386.281 458.744C386.336 456.39 386.429 454.284 387 452C389.376 449.892 389.376 449.892 392 449C394.724 449.253 396.565 449.782 399 451C399.886 453.657 400.145 455.282 400.205 458.013C400.226 458.824 400.246 459.636 400.267 460.472C400.283 461.321 400.3 462.169 400.317 463.043C400.335 463.826 400.354 464.61 400.373 465.417C400.441 468.34 400.502 471.264 400.563 474.188C400.707 480.726 400.851 487.264 401 494C422.78 494 444.56 494 467 494C467.131 480.313 467.131 480.313 467.208 466.626C467.234 464.911 467.263 463.196 467.293 461.481C467.289 460.589 467.285 459.698 467.281 458.779C467.336 456.412 467.426 454.297 468 452C470.376 449.892 470.376 449.892 473 449C475.724 449.253 477.565 449.782 480 451C480.886 453.657 481.145 455.282 481.205 458.013C481.235 459.213 481.235 459.213 481.266 460.439C481.283 461.298 481.299 462.158 481.317 463.043C481.337 463.927 481.358 464.81 481.38 465.721C481.445 468.543 481.504 471.365 481.563 474.188C481.606 476.101 481.649 478.014 481.694 479.928C481.801 484.619 481.902 489.309 482 494C485.973 493.236 488.444 492.528 491.409 489.717C494.31 484.581 493.526 478.235 493.461 472.535C493.46 471.229 493.459 469.922 493.458 468.576C493.455 465.816 493.439 463.057 493.412 460.297C493.378 456.776 493.37 453.255 493.372 449.733C493.371 446.355 493.353 442.976 493.336 439.598C493.334 438.34 493.332 437.083 493.329 435.787C493.591 425.391 493.591 425.391 488.736 416.718C479.709 411.051 468.853 408.67 458.579 406.205C456.432 405.686 454.292 405.144 452.151 404.6C438.443 401.203 427.26 401.713 413.655 405.198Z" fill="#00646F"/>
<path d="M284.859 8.80081C286.751 9.31177 288.644 9.82071 290.537 10.3278C295.575 11.6834 300.606 13.0662 305.635 14.4551C310.869 15.8959 316.11 17.3124 321.35 18.7312C328.778 20.7452 336.204 22.7678 343.628 24.8017C355.077 27.9384 366.537 31.0272 378.01 34.0756C382.893 35.374 387.775 36.6792 392.656 37.9845C396.435 38.9949 400.214 40.0025 403.996 41.0036C407.494 41.9303 410.989 42.8678 414.482 43.8139C416.335 44.313 418.192 44.801 420.048 45.2885C427.414 47.2974 433.799 49.145 438 56C439.568 60.7053 439.549 64.5265 437.812 69.1875C434.628 74.1283 431.443 75.8228 426 78C425.67 91.86 425.34 105.72 425 120C426.98 120.66 428.96 121.32 431 122C437.112 125.926 441.283 130.897 443 138C443.878 145.368 443.502 151.507 439.973 158.098C438.378 161.217 437.697 163.005 438.742 166.438C439.116 167.283 439.49 168.129 439.875 169C441.856 173.543 443.115 177.327 443.161 182.306C443.176 183.568 443.176 183.568 443.19 184.855C443.197 186.207 443.197 186.207 443.203 187.586C443.209 188.521 443.215 189.455 443.22 190.418C443.23 192.393 443.236 194.368 443.24 196.344C443.25 199.357 443.281 202.37 443.312 205.383C443.319 207.305 443.324 209.227 443.328 211.148C443.34 212.046 443.353 212.943 443.366 213.867C443.345 219.717 442.605 224.144 438.5 228.645C431.892 233.79 426.275 233.215 418.188 233.25C416.423 233.281 416.423 233.281 414.623 233.313C407.798 233.343 402.631 233.312 397.355 228.5C394.327 224.61 392.896 221.853 392.807 216.95C392.791 216.138 392.775 215.326 392.758 214.489C392.713 210.735 392.673 206.981 392.65 203.226C392.633 201.263 392.606 199.301 392.568 197.338C392.347 186.003 392.656 176.437 397.121 165.908C398.281 163.081 398.281 163.081 397.21 160.62C395.949 158.775 395.949 158.775 394.43 157.016C391.148 152.388 390.778 145.974 391.191 140.441C392.676 132.509 397.054 127.685 402.902 122.418C405 121 405 121 410 120C410 107.46 410 94.92 410 82C407.352 82.7219 404.705 83.4438 401.977 84.1875C399.418 84.8831 396.86 85.5778 394.302 86.2725C392.521 86.7566 390.74 87.2416 388.959 87.7276C386.403 88.4249 383.846 89.119 381.289 89.8125C380.49 90.0313 379.691 90.25 378.868 90.4754C373.228 92 373.228 92 371 92C371.02 93.4116 371.02 93.4116 371.04 94.8516C371.162 103.724 371.252 112.596 371.311 121.468C371.342 126.03 371.385 130.591 371.453 135.152C371.518 139.555 371.554 143.957 371.569 148.36C371.58 150.039 371.602 151.718 371.634 153.396C371.678 155.75 371.684 158.102 371.681 160.456C371.703 161.149 371.724 161.841 371.747 162.555C371.711 165.31 371.515 167.4 369.686 169.532C365.938 172.701 361.762 175.046 357.438 177.313C356.705 177.696 355.972 178.08 355.218 178.476C304.201 204.481 242.137 207.938 187.792 190.991C172.17 185.888 155.323 179.89 142 170C140.52 167.04 140.87 164.04 140.886 160.796C140.886 160.055 140.886 159.313 140.886 158.549C140.887 156.093 140.895 153.636 140.902 151.18C140.904 149.479 140.906 147.778 140.907 146.076C140.91 141.595 140.92 137.113 140.931 132.632C140.942 128.061 140.946 123.489 140.951 118.918C140.962 109.945 140.979 100.973 141 92C140.408 91.8893 139.817 91.7785 139.207 91.6644C132.651 90.3999 126.218 88.8285 119.77 87.1016C118.735 86.8254 117.7 86.5491 116.634 86.2645C114.463 85.6831 112.292 85.0998 110.122 84.5147C106.814 83.6254 103.502 82.7501 100.189 81.875C98.0701 81.3056 95.9509 80.7353 93.832 80.1641C92.3584 79.7779 92.3584 79.7779 90.8549 79.384C78.0886 75.8972 78.0886 75.8972 74.0625 70.3125C72.2907 64.7888 71.9293 59.549 74.4375 54.1875C80.3531 45.7455 94.6665 44.4877 104.07 42.0274C105.883 41.5471 107.695 41.0661 109.507 40.5844C114.369 39.2938 119.234 38.0123 124.1 36.7332C132.248 34.5901 140.392 32.4356 148.538 30.2827C150.606 29.7361 152.675 29.19 154.744 28.6442C168.056 25.1315 181.348 21.556 194.617 17.8826C199.464 16.5425 204.314 15.2137 209.164 13.8838C213.648 12.6528 218.125 11.4027 222.599 10.1383C225.373 9.35961 228.152 8.60026 230.933 7.84582C232.771 7.34103 234.603 6.81318 236.434 6.28398C253.413 1.73062 268.244 4.15371 284.859 8.80081ZM228.629 24.0899C226.644 24.6286 224.659 25.1657 222.673 25.7014C217.387 27.1319 212.107 28.5836 206.828 30.0395C201.368 31.541 195.904 33.0224 190.44 34.5054C181.717 36.8751 172.996 39.2551 164.278 41.6431C153.388 44.6253 142.49 47.5783 131.586 50.5117C130.828 50.7156 130.071 50.9195 129.29 51.1296C126.383 51.9118 123.476 52.6938 120.569 53.4754C113.501 55.3759 106.436 57.2849 99.3711 59.1953C98.301 59.4847 97.2309 59.774 96.1284 60.0721C93.7522 60.7146 91.3761 61.3573 89 62C92.3116 64.2078 94.9394 64.9217 98.7854 65.9292C99.478 66.1124 100.171 66.2955 100.884 66.4842C103.204 67.0962 105.526 67.7003 107.848 68.3047C109.503 68.7403 111.159 69.1765 112.814 69.6132C117.295 70.7943 121.779 71.9689 126.263 73.1421C134.766 75.368 143.266 77.6055 151.766 79.8438C153.209 80.2236 153.209 80.2236 154.682 80.611C167.774 84.0576 180.843 87.5782 193.89 91.1889C196.46 91.8995 199.03 92.6079 201.601 93.3155C203.271 93.7756 204.942 94.2357 206.613 94.6958C207.426 94.9196 208.238 95.1433 209.075 95.3738C213.845 96.689 218.611 98.0198 223.373 99.3616C226.339 100.193 229.309 101.01 232.279 101.823C233.635 102.197 234.99 102.578 236.342 102.966C251.789 107.39 264.379 106.2 279.562 101.926C281.169 101.488 282.776 101.052 284.383 100.617C288.699 99.4452 293.008 98.2522 297.317 97.0552C301.831 95.8055 306.351 94.5761 310.871 93.3452C317.453 91.5509 324.033 89.7506 330.612 87.9428C342.983 84.5436 355.367 81.1921 367.758 77.8633C368.668 77.6189 369.577 77.3744 370.515 77.1226C374.105 76.1581 377.695 75.194 381.285 74.2302C389.711 71.9684 398.136 69.6996 406.56 67.4294C408.774 66.8328 410.988 66.2363 413.202 65.6399C416.468 64.76 419.734 63.88 423 63C419.688 60.7923 417.061 60.0784 413.215 59.0708C412.522 58.8877 411.829 58.7046 411.116 58.5159C408.796 57.9038 406.474 57.2997 404.152 56.6953C402.497 56.2597 400.841 55.8236 399.186 55.3869C394.705 54.2058 390.221 53.0312 385.737 51.858C377.234 49.632 368.734 47.3946 360.234 45.1563C359.272 44.9031 358.31 44.6499 357.318 44.389C344.226 40.9425 331.157 37.4218 318.11 33.8112C315.54 33.1005 312.97 32.3922 310.399 31.6846C308.729 31.2245 307.058 30.7644 305.387 30.3042C304.574 30.0805 303.762 29.8567 302.925 29.6262C298.155 28.311 293.389 26.9802 288.627 25.6384C285.661 24.8069 282.691 23.9901 279.721 23.1771C278.365 22.8026 277.01 22.422 275.658 22.0342C258.582 17.1441 245.303 19.4463 228.629 24.0899ZM156 96C155.814 104.258 155.672 112.515 155.585 120.775C155.544 124.61 155.487 128.444 155.396 132.279C155.309 135.982 155.262 139.683 155.241 143.386C155.226 144.797 155.197 146.208 155.154 147.619C154.622 155.301 154.622 155.301 157.696 161.936C159.767 163.258 161.7 164.15 164 165C165.32 165.654 166.636 166.317 167.945 166.992C185.885 175.234 204.511 180.884 224 184C224.72 184.117 225.44 184.234 226.182 184.355C269.144 191.019 316.183 183.066 354.185 161.776C356.265 160.087 356.265 160.087 356.481 157.21C356.472 156.079 356.463 154.949 356.454 153.784C356.454 152.503 356.453 151.222 356.453 149.902C356.433 148.504 356.412 147.105 356.391 145.707C356.383 144.276 356.377 142.846 356.373 141.415C356.358 137.652 356.319 133.889 356.275 130.126C356.234 126.285 356.215 122.444 356.195 118.604C356.152 111.069 356.084 103.534 356 96C351.433 97.1545 346.867 98.3125 342.302 99.4754C340.598 99.9093 338.893 100.342 337.188 100.774C325.905 103.635 314.669 106.628 303.465 109.781C300.007 110.745 296.55 111.707 293.092 112.669C290.846 113.3 288.602 113.939 286.361 114.586C283.167 115.508 279.965 116.401 276.762 117.289C275.38 117.701 275.38 117.701 273.971 118.121C257.225 122.665 241.9 119.327 225.59 114.75C223.601 114.21 221.611 113.672 219.621 113.136C214.442 111.735 209.271 110.308 204.102 108.875C198.806 107.411 193.503 105.972 188.201 104.531C182.256 102.915 176.313 101.296 170.374 99.6592C169.479 99.4128 168.584 99.1664 167.662 98.9125C165.987 98.4505 164.311 97.9874 162.636 97.5231C159.364 96.4622 159.364 96.4622 156 96ZM408 139C405.94 142.948 405.812 144.382 407.125 148.688C409.415 152.734 411.028 154.254 415.312 155.875C419.217 156.057 421.611 154.883 425 153C427.465 150.137 427.956 148.306 428.5 144.563C427.836 139.833 426.343 138.343 423 135C416.775 131.887 411.903 133.719 408 139ZM412 170C407.408 178.83 407.475 186.796 407.643 196.508C407.688 199.088 407.705 201.667 407.717 204.248C407.73 205.885 407.745 207.523 407.762 209.16C407.769 209.933 407.776 210.706 407.784 211.502C407.528 215.047 407.528 215.047 409 218C410.33 218.098 411.666 218.131 413 218.133C413.804 218.134 414.609 218.135 415.438 218.137C416.706 218.131 416.706 218.131 418 218.125C418.846 218.129 419.691 218.133 420.562 218.137C421.367 218.135 422.171 218.134 423 218.133C424.114 218.131 424.114 218.131 425.25 218.129C427.028 218.189 427.028 218.189 428 217C428.138 214.378 428.213 211.784 428.238 209.16C428.246 208.364 428.254 207.568 428.263 206.748C428.277 205.054 428.287 203.36 428.295 201.666C428.312 199.104 428.356 196.544 428.4 193.982C428.483 185.074 428.207 178.09 424 170C420.04 170 416.08 170 412 170Z" fill="#00646F"/>
</svg>
