<svg width="512" height="512" viewBox="0 0 512 512" fill="none" xmlns="http://www.w3.org/2000/svg">
<g clip-path="url(#clip0_2055_12)">
<path d="M307.437 61.2499C309.826 62.279 312.215 63.3071 314.604 64.3342C319.583 66.4759 324.56 68.6238 329.536 70.7758C336.692 73.8708 343.858 76.9445 351.027 80.0117C352.17 80.5007 353.313 80.9898 354.491 81.4938C356.797 82.4806 359.103 83.4673 361.41 84.4541C367.235 86.9479 373.059 89.4467 378.883 91.9453C389.598 96.542 400.315 101.134 411.034 105.723C420.357 109.715 429.678 113.712 438.998 117.712C445.607 120.547 452.219 123.375 458.834 126.196C462.931 127.945 467.026 129.7 471.121 131.455C473.013 132.265 474.906 133.072 476.8 133.878C479.39 134.979 481.977 136.088 484.562 137.199C485.677 137.669 485.677 137.669 486.814 138.149C496.781 142.46 506.14 148.346 511 158.5C514.082 168.705 513.062 179.852 508.191 189.191C502.027 197.092 494.762 201.564 485.617 205.355C484.536 205.82 483.455 206.285 482.341 206.764C478.859 208.255 475.367 209.722 471.875 211.187C469.48 212.207 467.086 213.228 464.692 214.25C458.855 216.738 453.01 219.206 447.162 221.667C443.448 223.232 439.74 224.81 436.032 226.39C432.461 227.911 428.888 229.426 425.312 230.937C424.353 231.344 424.353 231.344 423.374 231.758C421.622 232.498 419.868 233.232 418.113 233.965C417.162 234.363 416.211 234.761 415.232 235.172C413 236 413 236 411 236C411.011 236.831 411.022 237.662 411.034 238.519C411.134 246.416 411.21 254.314 411.259 262.212C411.285 266.271 411.32 270.33 411.377 274.388C411.432 278.318 411.461 282.247 411.474 286.176C411.483 287.663 411.501 289.149 411.529 290.635C411.88 310.537 404.727 325.8 390.875 340.152C356.801 374.398 302.363 384.113 256 384.375C209.931 384.115 159.508 374.398 124 343C123.318 342.401 122.636 341.801 121.933 341.184C111.802 331.686 105.954 321.097 102 308C101.505 306.515 101.505 306.515 101 305C100.91 302.777 100.882 300.551 100.886 298.325C100.886 297.652 100.886 296.979 100.886 296.285C100.887 294.061 100.894 291.837 100.902 289.613C100.904 288.071 100.906 286.528 100.907 284.985C100.91 280.926 100.92 276.867 100.931 272.808C100.941 268.666 100.946 264.523 100.951 260.381C100.962 252.254 100.979 244.127 101 236C99.8462 235.643 98.6925 235.286 97.5038 234.918C90.1538 232.468 83.0652 229.335 75.9374 226.312C74.485 225.7 73.0326 225.087 71.58 224.475C68.0518 222.987 64.5253 221.494 60.9999 220C60.7894 233.977 60.6314 247.955 60.5336 261.933C60.4866 268.424 60.4229 274.914 60.3209 281.405C60.2231 287.668 60.1693 293.931 60.146 300.195C60.1293 302.585 60.0969 304.975 60.0483 307.364C59.983 310.712 59.974 314.056 59.9781 317.405C59.9296 318.887 59.9296 318.887 59.8801 320.4C59.918 323.206 60.044 325.358 60.9999 328C63.1281 329.99 65.1944 331.306 67.7741 332.651C72.2563 335.367 74.3892 340.168 75.9999 345C76.6685 352.3 76.086 357.593 72.7694 364.109C71.7577 366.091 71.7577 366.091 72.5624 368.687C73.0368 369.451 73.5111 370.214 73.9999 371C76.476 375.398 77.5132 378.999 78.0546 384.008C78.169 385.034 78.169 385.034 78.2857 386.081C78.5376 388.386 78.77 390.693 78.9999 393C79.0856 393.832 79.1714 394.664 79.2598 395.522C79.825 401.017 80.3534 406.516 80.8597 412.017C81.124 414.865 81.3997 417.712 81.6757 420.559C82.5063 429.363 83.1992 438.163 83.3671 447.008C83.3935 447.731 83.4199 448.454 83.4472 449.199C83.47 454.279 82.1878 457.097 78.9999 461C71.353 467.02 63.325 466.216 54.0179 466.24C51.7707 466.25 49.5243 466.281 47.2772 466.312C29.8937 466.443 29.8937 466.443 24.3973 461.583C18.7285 455.161 19.6344 448.07 19.9999 440C20.5136 432.023 21.2387 424.064 21.9713 416.104C22.3121 412.378 22.636 408.65 22.9589 404.922C23.1759 402.518 23.394 400.114 23.6132 397.711C23.707 396.614 23.8009 395.516 23.8976 394.386C24.8068 384.783 25.7829 374.718 31.9999 367C31.7227 366.469 31.4456 365.938 31.16 365.391C30.6167 364.331 30.6167 364.331 30.0624 363.25C29.5229 362.206 29.5229 362.206 28.9725 361.141C26.0663 354.744 26.2365 348.468 28.5624 341.937C30.7106 337.011 33.5599 333.089 37.9999 330C39.9799 329.34 41.9599 328.68 43.9999 328C43.6699 289.72 43.3399 251.44 42.9999 212C29.1399 206.06 29.1399 206.06 14.9999 200C0.47152 186.924 0.47152 186.924 -0.433718 175.836C-0.958573 164.306 1.28378 156.661 8.828 147.922C14.862 142.582 22.1361 139.424 29.4764 136.289C30.4937 135.848 31.511 135.408 32.5591 134.954C35.9116 133.505 39.2681 132.065 42.6249 130.625C45.0036 129.599 47.3821 128.573 49.7604 127.547C69.4507 119.057 89.1786 110.656 108.913 102.269C122.918 96.3175 136.909 90.3325 150.894 84.3323C154.409 82.8248 157.924 81.3189 161.44 79.8137C171.679 75.4296 181.916 71.0409 192.137 66.615C196.429 64.7577 200.726 62.9084 205.023 61.0606C207.013 60.2024 209.002 59.3405 210.989 58.4747C246.909 42.8269 271.949 45.8229 307.437 61.2499ZM212.385 75.8141C206.49 78.4231 200.582 81.0017 194.676 83.5859C193.445 84.1255 192.214 84.6651 190.983 85.2048C178.423 90.7077 165.809 96.0797 153.187 101.437C148.694 103.347 144.2 105.257 139.707 107.168C138.587 107.644 137.468 108.12 136.314 108.61C117.546 116.591 98.8024 124.633 80.0625 132.682C73.4132 135.537 66.7607 138.385 60.1054 141.227C55.9912 142.985 51.879 144.747 47.7673 146.511C45.8622 147.327 43.9563 148.141 42.0494 148.953C39.4445 150.062 36.843 151.178 34.2421 152.297C33.4886 152.615 32.7351 152.934 31.9587 153.263C25.7047 155.967 19.9223 158.651 16.6991 165.016C15.1092 169.528 15.2122 173.615 16.7069 178.141C20.1613 184.92 26.3121 187.116 32.9999 190C34.1459 190.574 35.2918 191.147 36.4725 191.738C37.6366 192.299 38.8006 192.86 39.9999 193.437C41.5777 194.209 41.5777 194.209 43.1874 194.996C53.1387 197.616 64.5518 194.197 74.5431 192.456C76.067 192.194 77.591 191.933 79.115 191.672C83.2165 190.968 87.3168 190.258 91.4168 189.545C93.981 189.1 96.5453 188.656 99.1098 188.213C108.062 186.665 117.013 185.112 125.964 183.554C134.302 182.102 142.642 180.663 150.984 179.23C158.159 177.997 165.333 176.755 172.506 175.505C176.784 174.76 181.063 174.019 185.344 173.287C189.361 172.6 193.375 171.901 197.388 171.194C198.861 170.936 200.336 170.682 201.811 170.433C203.821 170.093 205.828 169.736 207.835 169.379C208.96 169.184 210.085 168.989 211.244 168.788C215.389 167.603 216.517 165.805 218.687 162.187C224.876 153.657 233.749 150.513 243.808 148.414C258.892 146.457 275.671 147.05 288.266 156.496C292.445 160.12 294.849 163.558 296 169C296.097 175.008 295.078 179.412 291 184C279.672 193.576 265.371 195.658 251 195C241.24 194.177 230.56 192.358 223.252 185.374C220.765 183.285 220.196 183.01 216.774 182.836C215.597 183.055 214.42 183.274 213.208 183.499C212.542 183.614 211.877 183.729 211.191 183.847C208.948 184.241 206.716 184.675 204.48 185.109C202.856 185.402 201.232 185.692 199.607 185.979C196.022 186.616 192.441 187.268 188.861 187.931C182.698 189.064 176.524 190.122 170.346 191.17C160.153 192.901 149.965 194.656 139.78 196.429C132.7 197.662 125.618 198.887 118.536 200.106C113.931 200.9 109.327 201.701 104.724 202.505C102.535 202.885 100.345 203.263 98.1556 203.638C95.134 204.157 92.1143 204.685 89.0948 205.216C88.197 205.367 87.2992 205.519 86.3742 205.675C85.5583 205.821 84.7423 205.967 83.9017 206.116C83.192 206.24 82.4824 206.363 81.7512 206.489C79.7623 206.917 79.7623 206.917 77.9999 209C106.93 221.606 135.892 234.13 164.939 246.466C167.166 247.412 169.394 248.358 171.621 249.305C172.718 249.77 173.814 250.236 174.944 250.716C182.963 254.126 190.97 257.561 198.973 261.008C200.103 261.494 201.233 261.98 202.397 262.481C207.778 264.797 213.157 267.115 218.534 269.44C220.456 270.267 222.378 271.095 224.301 271.922C225.154 272.293 226.008 272.663 226.888 273.045C236.388 277.123 245.187 280.106 255.625 280.25C256.731 280.276 257.837 280.302 258.976 280.328C269.111 279.868 278.57 275.781 287.75 271.812C289.061 271.254 290.372 270.695 291.684 270.138C295.557 268.488 299.425 266.826 303.292 265.163C307.262 263.458 311.236 261.759 315.209 260.06C327.097 254.978 338.979 249.882 350.859 244.782C362.749 239.677 374.643 234.58 386.537 229.484C392.303 227.013 398.069 224.542 403.836 222.07C406.162 221.073 408.489 220.076 410.815 219.079C411.986 218.577 413.157 218.075 414.364 217.558C455.707 199.84 455.707 199.84 459.086 198.392C461.227 197.474 463.367 196.555 465.507 195.634C469.826 193.775 474.146 191.927 478.507 190.169C479.158 189.903 479.809 189.637 480.48 189.362C482.096 188.705 483.719 188.061 485.341 187.418C490.084 184.888 493.868 180.936 496 176C496.802 171.408 496.503 167.178 494.5 162.937C491.733 159.22 488.405 157.381 484.312 155.41C483.618 155.07 482.924 154.73 482.209 154.38C472.927 149.906 463.415 145.94 453.921 141.941C448.552 139.679 443.188 137.403 437.824 135.129C435.952 134.336 434.08 133.544 432.208 132.752C419.163 127.23 406.143 121.648 393.125 116.062C390.804 115.067 388.483 114.072 386.162 113.077C379.107 110.052 372.054 107.026 365 104C360.061 101.881 355.122 99.7628 350.183 97.6445C349.268 97.2516 349.268 97.2516 348.333 96.8508C338.335 92.5624 328.335 88.2793 318.333 83.9991C312.546 81.5216 306.762 79.0374 300.982 76.5423C297.908 75.2162 294.832 73.8955 291.755 72.5762C290.41 71.998 289.066 71.4174 287.723 70.8339C277.411 66.3533 267.558 62.4478 256.187 62.5624C255.496 62.5425 254.804 62.5225 254.092 62.5019C239.397 62.5151 225.51 70.0044 212.385 75.8141ZM232 170C232.093 171.931 232.093 171.931 233 174C243.36 180.526 255.148 180.847 266.863 178.812C271.63 177.578 275.777 175.498 280 173C279.878 171.085 279.878 171.085 279 169C266.75 159.904 243.661 160.025 232 170ZM117 244C116.911 247.604 116.859 251.208 116.812 254.812C116.787 255.817 116.762 256.822 116.736 257.857C116.587 273.325 122.127 284.475 132.598 295.625C157.587 320.33 196.06 330.542 230 334C230.964 334.111 231.928 334.222 232.922 334.336C247.864 335.799 263.321 335.624 278.266 334.23C290.765 333.177 290.765 333.177 295 336C296.333 341.511 296.333 341.511 296 344C293.698 347.062 292.308 347.927 288.539 348.817C287.162 348.976 285.783 349.112 284.402 349.23C283.655 349.305 282.908 349.38 282.138 349.457C273.623 350.241 265.108 350.352 256.562 350.312C255.328 350.31 255.328 350.31 254.068 350.307C209.149 350.141 157.89 340.77 124.058 308.883C121.943 306.852 121.943 306.852 119 305C120.606 317.851 131.097 327.891 140.683 335.559C167.313 355.576 201.237 364.321 234 367C234.817 367.068 235.633 367.137 236.475 367.207C282.451 370.781 337.571 363.883 374 333C374.748 332.408 375.495 331.817 376.266 331.207C383.543 325.204 390.184 317.154 393 308C392.67 307.01 392.34 306.02 392 305C391.585 305.461 391.17 305.923 390.742 306.398C381.987 315.666 367.93 327.702 355.062 329.937C352.374 329.992 350.545 329.709 348 329C347.138 325.592 346.646 322.513 347 319C349.106 316.143 351.922 314.689 355 313C371.466 303.831 387.916 291.776 393.664 272.934C395.246 266.843 395.344 261.071 395.187 254.812C395.167 253.241 395.167 253.241 395.146 251.639C395.111 249.092 395.062 246.546 395 244C391.448 244.609 388.375 245.557 385.069 246.983C384.105 247.397 383.14 247.81 382.147 248.236C381.103 248.689 380.06 249.142 378.984 249.609C377.88 250.084 376.776 250.559 375.639 251.048C372.632 252.342 369.628 253.64 366.624 254.94C363.485 256.296 360.345 257.647 357.204 258.997C347.05 263.365 336.902 267.747 326.754 272.129C321.14 274.553 315.523 276.973 309.906 279.39C306.816 280.722 303.728 282.059 300.64 283.397C285.858 289.778 272.752 295.16 256.437 295.25C255.524 295.271 254.611 295.291 253.67 295.312C236.885 295.406 222.782 288.38 207.687 281.812C205.327 280.796 202.967 279.78 200.606 278.765C195.641 276.63 190.68 274.488 185.721 272.341C174.671 267.557 163.613 262.793 152.55 258.039C149.442 256.703 146.334 255.365 143.23 254.021C139.768 252.523 136.304 251.031 132.84 249.539C131.812 249.092 130.784 248.645 129.725 248.185C128.303 247.574 128.303 247.574 126.851 246.952C126.03 246.597 125.209 246.242 124.364 245.877C121.923 244.971 119.562 244.441 117 244ZM44.9999 346C43.454 349.092 43.7063 351.594 43.9999 355C45.4165 357.583 45.4165 357.583 47.9999 359C51.9844 359.569 54.0548 359.671 57.3749 357.312C59.2191 354.688 59.9216 353.211 59.9999 350C58.3783 346.514 57.2353 345.157 53.9999 343C49.706 343 48.4112 343.603 44.9999 346ZM45.1874 377.937C40.2068 384.91 40.429 394.474 39.7108 402.769C39.6027 403.968 39.4945 405.167 39.3831 406.401C39.1569 408.92 38.9335 411.439 38.7128 413.958C38.3744 417.818 38.0277 421.678 37.6796 425.537C37.4603 427.989 37.2416 430.442 37.0233 432.894C36.9202 434.049 36.8171 435.203 36.7109 436.392C36.6173 437.464 36.5236 438.536 36.4271 439.64C36.3029 441.051 36.3029 441.051 36.1762 442.491C36.024 444.656 35.9999 446.83 35.9999 449C46.2299 449 56.4599 449 66.9999 449C66.3849 436.022 65.5326 423.094 64.3802 410.152C64.1215 407.212 63.8792 404.27 63.6366 401.328C63.4696 399.432 63.3017 397.536 63.1327 395.641C63.0638 394.774 62.9949 393.907 62.924 393.014C62.3667 387.057 61.3951 381.652 57.2499 377.062C52.7186 374.923 49.2966 375.107 45.1874 377.937Z" fill="#00646F"/>
<path d="M335.875 326.187C337.522 328.842 337.875 330.883 338 334C337.062 336.687 337.062 336.687 335 339C332.266 340.269 329.863 341.163 327 342C325.652 342.437 325.652 342.437 324.277 342.883C318.75 344.571 314.626 345.524 309 344C306 342 306 342 305.062 338.187C304.558 335.192 304.935 334.115 306.445 331.418C309.917 328.132 313.25 327.281 317.812 326.125C318.594 325.9 319.376 325.676 320.181 325.445C325.527 324.016 330.914 323.046 335.875 326.187Z" fill="#00646F"/>
</g>
<defs>
<clipPath id="clip0_2055_12">
<rect width="512" height="512" fill="white"/>
</clipPath>
</defs>
</svg>
