<svg width="512" height="512" viewBox="0 0 512 512" fill="none" xmlns="http://www.w3.org/2000/svg">
<g clip-path="url(#clip0_2055_20)">
<path d="M157.22 22.6057C158.668 22.6008 160.115 22.5946 161.563 22.5872C165.528 22.5709 169.492 22.5732 173.457 22.5786C177.738 22.5813 182.019 22.5668 186.299 22.5545C194.681 22.5335 203.063 22.5289 211.445 22.5307C218.258 22.532 225.072 22.5282 231.886 22.5208C233.849 22.5187 235.813 22.5166 237.777 22.5145C238.754 22.5135 239.732 22.5124 240.739 22.5113C259.218 22.4924 277.697 22.4935 296.177 22.5003C313.077 22.5059 329.976 22.4851 346.875 22.4519C364.235 22.4182 381.594 22.403 398.954 22.4077C408.697 22.4099 418.44 22.4047 428.184 22.3798C436.478 22.3587 444.772 22.3552 453.067 22.3741C457.297 22.3832 461.527 22.3844 465.757 22.3637C469.633 22.345 473.509 22.3495 477.386 22.3723C478.784 22.3764 480.182 22.3723 481.581 22.3587C490.037 22.282 496.995 22.9082 504 28.0001C508.531 32.8638 512.246 37.9397 512.257 44.7491C512.264 45.7066 512.27 46.6641 512.277 47.6506C512.274 48.6996 512.271 49.7486 512.268 50.8294C512.272 51.9461 512.277 53.0627 512.281 54.2132C512.294 57.9687 512.292 61.7241 512.291 65.4796C512.297 68.1667 512.303 70.8538 512.311 73.5409C512.328 80.0909 512.333 86.641 512.334 93.1911C512.335 98.5161 512.339 103.841 512.346 109.166C512.363 124.264 512.372 139.363 512.371 154.461C512.371 155.682 512.371 155.682 512.371 156.928C512.371 157.743 512.371 158.558 512.37 159.398C512.37 172.603 512.389 185.809 512.417 199.014C512.446 212.574 512.46 226.135 512.458 239.695C512.457 247.308 512.463 254.92 512.484 262.533C512.502 269.015 512.507 275.498 512.493 281.981C512.487 285.287 512.489 288.593 512.504 291.899C512.519 295.488 512.51 299.075 512.495 302.663C512.505 303.703 512.515 304.743 512.526 305.815C512.457 313.086 511.13 318.286 506.324 323.988C505.784 324.425 505.244 324.862 504.688 325.313C504.155 325.763 503.623 326.212 503.074 326.676C497.575 330.187 493.177 331.375 486.66 331.298C485.955 331.294 485.25 331.29 484.523 331.286C482.177 331.27 479.832 331.232 477.487 331.194C475.797 331.179 474.108 331.165 472.419 331.152C468.787 331.123 465.156 331.086 461.525 331.044C455.769 330.98 450.014 330.951 444.258 330.931C442.798 330.926 442.798 330.926 441.308 330.92C439.317 330.913 437.327 330.906 435.336 330.898C421.945 330.848 408.554 330.771 395.163 330.606C386.12 330.495 377.077 330.438 368.033 330.442C363.254 330.441 358.479 330.414 353.702 330.321C331.56 328.914 331.56 328.914 311.981 337.111C309.554 339.595 307.458 342.168 305.471 345.014C302.863 348.536 299.647 351.466 296.5 354.5C295.35 355.654 294.203 356.81 293.059 357.969C289.526 361.501 285.823 364.787 282 368C281.445 368.507 280.889 369.013 280.317 369.535C273.345 375.83 265.919 379.961 257 382.813C256.36 383.02 255.72 383.227 255.061 383.44C246.757 385.927 238.106 386.137 229.492 386.317C228.215 386.348 228.215 386.348 226.912 386.379C224.233 386.444 221.554 386.503 218.875 386.563C217.042 386.606 215.208 386.65 213.375 386.693C208.917 386.8 204.459 386.901 200 387C199.999 388.018 199.997 389.035 199.996 390.084C199.979 399.705 199.936 409.326 199.868 418.948C199.834 423.893 199.809 428.839 199.805 433.784C199.8 438.563 199.772 443.342 199.727 448.12C199.714 449.937 199.709 451.754 199.714 453.572C199.736 464.766 199.444 473.455 191.973 482.438C191.342 482.953 190.712 483.469 190.063 484C189.121 484.804 189.121 484.804 188.16 485.625C183.393 488.66 178.759 489.252 173.196 489.274C172.536 489.279 171.877 489.285 171.197 489.29C169 489.305 166.803 489.306 164.607 489.307C163.026 489.314 161.445 489.323 159.864 489.332C155.579 489.354 151.294 489.362 147.009 489.368C144.328 489.371 141.647 489.377 138.967 489.385C129.605 489.409 120.244 489.422 110.883 489.426C102.173 489.429 93.4626 489.459 84.7523 489.501C77.2616 489.536 69.7711 489.551 62.2803 489.552C57.812 489.553 53.344 489.561 48.8758 489.59C44.6698 489.616 40.4645 489.618 36.2585 489.602C34.7211 489.6 33.1836 489.607 31.6462 489.623C22.9262 489.708 15.2499 489.408 8.00013 484C5.667 481.488 3.73807 478.953 2.00013 476C1.65286 475.443 1.30559 474.887 0.947804 474.313C-3.58106 463.26 1.15379 446.842 3.10559 435.531C3.43074 433.597 3.75505 431.663 4.07857 429.729C4.75538 425.7 5.44131 421.673 6.13416 417.647C7.01358 412.533 7.87126 407.416 8.7222 402.298C9.38741 398.31 10.0636 394.325 10.743 390.339C11.0631 388.455 11.38 386.57 11.6935 384.685C15.9213 359.369 22.898 336.688 43.8048 320.219C61.0695 308.231 78.9947 305.825 99.4108 305.906C100.838 305.908 102.265 305.909 103.691 305.91C106.745 305.912 109.798 305.917 112.852 305.923C117.685 305.932 122.519 305.926 127.353 305.917C128.58 305.915 128.58 305.915 129.833 305.913C131.506 305.91 133.178 305.906 134.851 305.903C146.09 305.882 157.329 305.869 168.568 305.901C176.171 305.922 183.773 305.919 191.375 305.887C195.391 305.871 199.406 305.868 203.421 305.895C207.196 305.92 210.969 305.912 214.744 305.88C216.124 305.874 217.504 305.88 218.884 305.898C228.045 306.022 228.045 306.022 235.746 301.572C236.857 300.405 237.946 299.218 239 298C239.732 297.336 240.464 296.672 241.218 295.987C243.106 294.222 244.992 292.457 246.875 290.688C247.92 289.71 247.92 289.71 248.987 288.713C252.891 285.046 256.671 281.306 260.375 277.438C268.861 268.909 279.015 263.87 291.188 263.813C292.446 263.874 293.704 263.936 295 264C295.34 262.267 295.34 262.267 295.687 260.5C297.315 253.198 299.724 246.118 302.016 239.004C302.514 237.446 303.013 235.888 303.511 234.329C304.554 231.068 305.6 227.808 306.648 224.548C307.974 220.425 309.295 216.3 310.614 212.175C311.893 208.18 313.173 204.186 314.453 200.192C314.689 199.456 314.925 198.72 315.167 197.962C316.305 194.414 317.448 190.869 318.604 187.327C319.606 184.25 320.563 181.163 321.504 178.067C322.014 176.436 322.524 174.806 323.034 173.176C323.257 172.417 323.48 171.658 323.71 170.877C325.194 166.209 326.645 163.646 331 161C334.732 160.378 336.492 160.746 339.875 162.438C342.417 165.503 342.406 167.416 342.305 171.312C341.705 176.599 339.918 181.531 338.231 186.555C337.838 187.759 337.446 188.962 337.041 190.202C335.986 193.432 334.919 196.658 333.848 199.883C332.744 203.212 331.656 206.547 330.567 209.881C329.265 213.864 327.963 217.847 326.655 221.828C322.895 233.272 319.266 244.755 315.693 256.259C315.268 257.627 314.842 258.995 314.416 260.362C313.883 262.073 313.352 263.785 312.822 265.496C312 268 312 268 311 270C311.681 270.186 312.361 270.371 313.063 270.563C321.666 274.773 326.764 283.547 329.817 292.356C331.651 299.603 331.457 306.715 330 314C351.12 314 372.24 314 394 314C393.803 303.17 393.803 303.17 393.55 292.342C393.34 278.965 393.34 278.965 397.612 273.373C403.382 267.666 408.57 266.852 416.327 266.887C417.176 266.886 418.025 266.886 418.9 266.886C421.708 266.887 424.516 266.895 427.324 266.902C429.271 266.904 431.217 266.906 433.163 266.907C438.287 266.911 443.412 266.92 448.536 266.931C453.764 266.942 458.993 266.946 464.221 266.951C474.481 266.962 484.74 266.979 495 267C494.963 238.124 494.903 209.248 494.816 180.372C494.808 177.705 494.8 175.038 494.793 172.371C494.791 171.708 494.789 171.045 494.787 170.363C494.756 159.624 494.739 148.886 494.727 138.148C494.715 127.132 494.687 116.117 494.646 105.102C494.623 98.9133 494.607 92.725 494.608 86.5365C494.609 80.7154 494.591 74.8947 494.559 69.0737C494.55 66.9339 494.549 64.7941 494.554 62.6543C494.561 59.7388 494.543 56.8245 494.519 53.9091C494.527 53.057 494.535 52.2048 494.543 51.3269C494.492 47.8895 494.437 45.5815 492.334 42.7841C489.393 40.536 487.824 40.499 484.147 40.4967C482.943 40.4863 481.739 40.4759 480.499 40.4651C479.161 40.4738 477.824 40.4828 476.486 40.4922C475.067 40.4876 473.647 40.4812 472.228 40.4733C468.322 40.4565 464.417 40.4648 460.512 40.4772C456.302 40.4862 452.092 40.4723 447.882 40.4613C439.632 40.4435 431.383 40.4474 423.134 40.4589C416.431 40.468 409.729 40.4692 403.026 40.4648C401.596 40.4639 401.596 40.4639 400.138 40.463C398.202 40.4617 396.266 40.4604 394.33 40.4591C376.166 40.4477 358.002 40.4608 339.838 40.4823C324.244 40.5002 308.649 40.4971 293.055 40.4786C274.957 40.4572 256.859 40.4488 238.761 40.4611C236.832 40.4624 234.903 40.4636 232.974 40.4648C232.025 40.4655 231.076 40.4661 230.098 40.4667C223.402 40.4702 216.705 40.4643 210.008 40.4549C201.85 40.4437 193.692 40.4467 185.534 40.4681C181.369 40.4786 177.205 40.4827 173.04 40.4695C169.231 40.4576 165.421 40.464 161.612 40.4854C160.231 40.4899 158.85 40.4875 157.469 40.4779C155.597 40.4658 153.725 40.4805 151.854 40.4967C150.812 40.4974 149.771 40.498 148.698 40.4987C145.279 41.1341 144.094 42.2688 142 45.0001C141.409 48.3524 141.409 48.3524 141.518 52.1678C141.512 53.2393 141.512 53.2393 141.506 54.3324C141.5 55.8798 141.503 57.4273 141.514 58.9747C141.532 61.4258 141.524 63.8756 141.51 66.3267C141.48 72.4133 141.494 78.4997 141.505 84.5864C141.513 89.7311 141.505 94.8753 141.476 100.02C141.469 102.432 141.486 104.842 141.503 107.254C141.497 108.737 141.491 110.22 141.483 111.703C141.486 112.994 141.489 114.286 141.492 115.616C140.914 119.592 139.876 121.237 137 124C133.506 124.936 131.154 125.374 127.688 124.25C126 123 126 123 124 120C123.796 117.511 123.706 115.132 123.71 112.642C123.703 111.895 123.696 111.149 123.689 110.379C123.67 107.906 123.666 105.434 123.664 102.961C123.658 101.238 123.651 99.5152 123.644 97.7923C123.632 94.1758 123.628 90.5595 123.63 86.943C123.63 82.3263 123.602 77.7102 123.568 73.0937C123.546 69.5316 123.542 65.9696 123.543 62.4074C123.54 60.7067 123.532 59.0059 123.516 57.3053C123.433 47.2931 123.648 39.1145 129.641 30.6954C130.172 30.1772 130.703 29.659 131.25 29.1251C131.771 28.5914 132.292 28.0578 132.828 27.5079C140.412 22.2428 148.332 22.5685 157.22 22.6057ZM272 291C271.122 291.874 271.122 291.874 270.227 292.766C269.068 293.93 267.913 295.098 266.762 296.27C265.006 297.995 263.186 299.592 261.313 301.188C258.802 303.329 256.447 305.544 254.176 307.934C253.672 308.459 253.168 308.984 252.649 309.525C251.668 310.555 250.697 311.596 249.74 312.649C243.766 318.894 236.981 322.213 228.311 322.626C225.738 322.652 223.166 322.651 220.593 322.628C219.166 322.633 217.739 322.64 216.312 322.65C213.257 322.665 210.202 322.665 207.147 322.653C202.303 322.633 197.46 322.649 192.616 322.668C184.944 322.695 177.272 322.699 169.6 322.693C155.886 322.682 142.172 322.706 128.459 322.746C123.657 322.759 118.856 322.761 114.054 322.752C111.05 322.748 108.046 322.753 105.042 322.759C103.014 322.761 100.987 322.752 98.9597 322.743C79.0411 322.807 62.3844 326.398 47.5275 340.317C33.1088 355.313 30.8328 375.766 27.547 395.438C27.2392 397.257 26.931 399.075 26.6225 400.894C25.9832 404.672 25.3484 408.45 24.7169 412.229C23.9099 417.056 23.0911 421.882 22.269 426.706C21.6329 430.448 21.0029 434.19 20.3749 437.933C20.0754 439.713 19.7741 441.493 19.4706 443.272C19.048 445.756 18.6338 448.241 18.2218 450.727C18.0972 451.449 17.9726 452.171 17.8442 452.915C16.2278 461.808 16.2278 461.808 18.9911 469.97C22.7731 472.522 25.7407 472.642 30.1447 472.488C30.9144 472.481 31.6842 472.474 32.4773 472.467C34.9234 472.439 37.3672 472.376 39.8126 472.313C41.476 472.288 43.1394 472.265 44.8029 472.244C48.8695 472.189 52.9344 472.103 57.0001 472C58.4298 467.265 59.4891 462.644 60.2811 457.751C60.4499 456.721 60.4499 456.721 60.6221 455.669C60.8639 454.191 61.1039 452.712 61.3422 451.233C61.7206 448.891 62.1053 446.55 62.492 444.209C63.5899 437.558 64.6807 430.906 65.7567 424.252C66.4172 420.17 67.0887 416.091 67.7672 412.012C68.0229 410.461 68.2745 408.91 68.5217 407.358C68.8674 405.19 69.2269 403.026 69.5897 400.861C69.7902 399.629 69.9907 398.398 70.1973 397.129C71.0028 393.99 71.7478 392.301 74.0001 390C77.4006 388.965 79.3904 388.824 82.8126 389.813C85.0001 391 85.0001 391 86.0001 393C86.5223 399.976 85.6297 406.756 84.5001 413.625C84.357 414.534 84.214 415.443 84.0665 416.379C83.7179 418.587 83.3623 420.794 83.0001 423C84.2911 423.009 85.5821 423.019 86.9122 423.028C91.7283 423.068 96.5438 423.134 101.36 423.208C103.439 423.236 105.518 423.257 107.598 423.271C110.597 423.293 113.595 423.339 116.594 423.391C117.976 423.393 117.976 423.393 119.385 423.394C125.328 423.528 130.083 424.506 135 428C139.429 433.564 140.163 438.039 140.317 444.949C140.348 446.108 140.348 446.108 140.38 447.291C140.445 449.756 140.504 452.222 140.563 454.688C140.606 456.36 140.649 458.033 140.693 459.705C140.8 463.803 140.902 467.902 141 472C146.054 472.099 151.107 472.172 156.161 472.22C157.88 472.24 159.599 472.267 161.318 472.302C163.79 472.35 166.262 472.373 168.734 472.391C169.501 472.411 170.268 472.432 171.058 472.453C174.629 472.455 176.587 472.32 179.454 470.101C182.332 466.191 182.145 462.984 182.142 458.281C182.145 457.484 182.149 456.687 182.152 455.866C182.16 454.131 182.165 452.397 182.169 450.662C182.176 447.912 182.192 445.163 182.21 442.413C182.263 434.594 182.311 426.775 182.326 418.955C182.336 414.174 182.366 409.393 182.407 404.612C182.42 402.794 182.425 400.975 182.423 399.156C182.42 396.602 182.442 394.049 182.47 391.496C182.463 390.752 182.457 390.007 182.45 389.241C182.566 382.649 184.692 377.37 189.313 372.625C195.783 368.713 202.188 368.719 209.543 368.727C211.608 368.706 213.672 368.686 215.736 368.664C218.957 368.642 222.178 368.625 225.399 368.619C252.78 368.535 266.319 359.763 285.425 340.589C286.635 339.369 287.845 338.149 289.054 336.927C292.666 333.29 296.367 329.836 300.262 326.5C307.441 320.305 313.335 313.955 314.09 304.067C313.789 297.155 310.77 291.701 306.098 286.731C294.231 276.941 281.891 281.15 272 291ZM411 285C410.912 287.146 410.893 289.294 410.902 291.442C410.906 292.747 410.909 294.052 410.912 295.397C410.921 296.785 410.929 298.174 410.938 299.563C410.943 300.955 410.947 302.348 410.951 303.74C410.963 307.16 410.98 310.58 411 314C421.214 314.093 431.428 314.164 441.642 314.207C446.385 314.228 451.128 314.257 455.87 314.302C460.448 314.345 465.026 314.369 469.603 314.38C471.349 314.387 473.095 314.401 474.841 314.423C477.288 314.452 479.734 314.456 482.181 314.454C482.901 314.469 483.622 314.483 484.365 314.498C487.804 314.47 489.937 314.035 492.958 312.352C495.565 309.35 495.585 307.857 495.488 303.922C495.472 302.762 495.456 301.602 495.44 300.406C495.398 299.2 495.356 297.993 495.313 296.75C495.29 295.528 495.268 294.306 495.244 293.047C495.185 290.03 495.103 287.016 495 284C484.196 283.977 473.391 283.959 462.586 283.948C457.57 283.943 452.553 283.936 447.537 283.925C442.7 283.914 437.863 283.908 433.026 283.905C431.176 283.903 429.327 283.9 427.477 283.894C424.896 283.887 422.314 283.886 419.733 283.887C418.96 283.883 418.188 283.879 417.392 283.876C413.905 283.563 413.905 283.563 411 285ZM80.0001 440C79.2836 443.914 78.5716 447.828 77.8639 451.743C77.6226 453.074 77.3801 454.405 77.1364 455.735C76.7856 457.651 76.4397 459.568 76.0939 461.484C75.8844 462.637 75.6749 463.789 75.4591 464.976C74.9001 468.149 74.9001 468.149 75.0001 472C91.1701 472 107.34 472 124 472C124.021 466.906 124.041 461.811 124.063 456.563C124.072 454.953 124.081 453.344 124.09 451.686C124.093 450.43 124.095 449.173 124.098 447.879C124.103 446.586 124.108 445.292 124.114 443.959C124.34 441.114 124.34 441.114 123 440C121.649 439.907 120.293 439.883 118.939 439.887C118.079 439.887 117.218 439.887 116.331 439.887C114.928 439.895 114.928 439.895 113.496 439.902C112.067 439.905 112.067 439.905 110.608 439.907C107.551 439.912 104.495 439.925 101.438 439.938C99.3706 439.943 97.3035 439.947 95.2365 439.951C90.1577 439.962 85.0789 439.98 80.0001 440Z" fill="#00646F"/>
<path d="M174.574 147.543C190.587 160.064 200.234 177.536 203.59 197.512C205.875 216.946 201.319 235.984 190 252C187.168 255.512 184.16 258.782 181 262C180.323 262.701 179.646 263.402 178.949 264.125C164.962 277.612 145.52 283.432 126.406 283.215C115.281 282.513 104.994 279.97 94.9999 275C93.5574 274.313 93.5574 274.313 92.0858 273.613C74.8323 264.577 62.9438 248.608 56.9647 230.328C51.1233 210.179 53.3604 189.667 62.9999 171C65.1037 167.453 67.4218 164.216 69.9999 161C70.656 160.168 71.3121 159.337 71.9881 158.48C97.3153 128.338 143.388 124.592 174.574 147.543ZM82.9999 172.375C74.3973 183.944 69.3978 198.503 70.9999 213C74.4034 231.048 81.5406 245.603 97.1639 256.281C110.646 264.452 125.425 267.912 141.058 264.789C149.939 262.407 157.647 258.467 165 253C166.01 252.278 167.021 251.556 168.062 250.812C179.057 241.253 185.645 226.247 186.812 211.937C187.71 195.712 182.379 181.307 172 169C160.793 156.8 145.674 150.274 129.187 149.562C110.759 150.147 94.8679 158.282 82.9999 172.375Z" fill="#00646F"/>
<path d="M190.496 118.866C191.448 118.861 192.4 118.857 193.38 118.852C194.96 118.853 194.96 118.853 196.571 118.853C197.684 118.849 198.797 118.845 199.944 118.842C203.699 118.831 207.454 118.827 211.208 118.823C213.89 118.817 216.572 118.81 219.254 118.803C227.32 118.783 235.386 118.773 243.452 118.764C247.248 118.76 251.045 118.755 254.841 118.749C267.457 118.732 280.073 118.718 292.69 118.711C295.965 118.709 299.24 118.707 302.515 118.705C303.736 118.704 303.736 118.704 304.981 118.703C318.173 118.695 331.364 118.67 344.556 118.637C358.092 118.604 371.629 118.586 385.165 118.583C392.768 118.581 400.371 118.572 407.974 118.547C414.448 118.525 420.922 118.517 427.396 118.526C430.7 118.531 434.004 118.527 437.308 118.51C440.888 118.492 444.468 118.499 448.048 118.512C449.095 118.501 450.141 118.49 451.219 118.479C455.613 118.518 458.269 118.575 462.122 120.816C464.745 123.867 465 126.013 465 130C463.655 132.948 462.915 134.543 460 136C458.493 136.096 456.981 136.129 455.47 136.131C454.511 136.135 453.552 136.139 452.563 136.143C451.502 136.142 450.44 136.141 449.347 136.14C448.225 136.143 447.103 136.146 445.947 136.149C442.162 136.158 438.377 136.16 434.592 136.161C431.889 136.165 429.186 136.171 426.483 136.176C419.122 136.19 411.76 136.196 404.399 136.2C399.804 136.203 395.21 136.207 390.616 136.212C377.903 136.224 365.19 136.234 352.477 136.238C351.663 136.238 350.848 136.238 350.01 136.238C348.786 136.239 348.786 136.239 347.537 136.239C345.884 136.239 344.23 136.24 342.576 136.24C341.756 136.24 340.936 136.241 340.091 136.241C326.795 136.245 313.5 136.262 300.204 136.286C286.562 136.309 272.921 136.322 259.279 136.323C251.616 136.324 243.954 136.33 236.291 136.348C229.767 136.363 223.243 136.368 216.718 136.36C213.388 136.356 210.058 136.359 206.728 136.371C203.121 136.384 199.515 136.378 195.908 136.367C194.851 136.376 193.794 136.384 192.705 136.392C191.258 136.382 191.258 136.382 189.782 136.372C188.949 136.373 188.116 136.373 187.258 136.374C184.46 135.911 183.079 134.895 181 133C179.936 130.352 179.751 127.836 180 125C182.948 120.223 185.038 118.878 190.496 118.866Z" fill="#00646F"/>
<path d="M327 358C329.533 360 330.828 361.191 331.506 364.383C331.51 365.718 331.51 365.718 331.515 367.079C331.527 368.104 331.54 369.129 331.553 370.184C331.547 371.303 331.54 372.421 331.534 373.574C331.542 374.756 331.551 375.939 331.56 377.157C331.578 380.397 331.579 383.636 331.57 386.876C331.565 389.583 331.572 392.289 331.58 394.995C331.597 401.38 331.593 407.766 331.576 414.151C331.56 420.735 331.575 427.318 331.608 433.902C331.634 439.558 331.642 445.214 331.633 450.87C331.628 454.247 331.63 457.623 331.651 461C331.668 464.766 331.654 468.531 331.631 472.297C331.643 473.413 331.655 474.53 331.667 475.68C331.574 483.211 331.574 483.211 328.679 487.192C325.118 489.595 323.214 489.752 319 489C316.321 487.192 316.321 487.192 314 484C313.254 480.103 313.328 476.254 313.369 472.297C313.362 471.112 313.355 469.928 313.347 468.708C313.333 465.468 313.342 462.229 313.361 458.989C313.378 455.596 313.369 452.203 313.364 448.809C313.359 443.112 313.375 437.415 313.403 431.718C313.435 425.134 313.435 418.55 313.418 411.966C313.402 405.628 313.409 399.289 313.426 392.951C313.433 390.255 313.432 387.56 313.424 384.864C313.419 381.1 313.439 377.338 313.467 373.574C313.46 372.455 313.454 371.337 313.447 370.184C313.46 369.16 313.472 368.135 313.485 367.079C313.488 366.189 313.491 365.3 313.494 364.383C314.163 361.231 315.56 360.034 318 358C321.186 356.407 323.602 357.238 327 358Z" fill="#00646F"/>
<path d="M191.693 76.8596C193.14 76.8511 193.14 76.8511 194.616 76.8423C196.201 76.8407 196.201 76.8407 197.818 76.839C198.932 76.834 200.046 76.829 201.194 76.8239C204.887 76.8093 208.58 76.8025 212.273 76.797C214.835 76.7912 217.397 76.7855 219.959 76.7797C224.647 76.7705 229.335 76.7642 234.023 76.7612C240.919 76.7567 247.816 76.7392 254.712 76.7102C260.689 76.686 266.665 76.6783 272.641 76.6765C275.183 76.6735 277.724 76.6654 280.265 76.6523C283.818 76.6353 287.37 76.6371 290.923 76.6436C291.976 76.6344 293.028 76.6252 294.113 76.6157C303.132 76.6675 303.132 76.6675 307 80.0001C309.341 83.5126 309.496 84.8648 309 89.0001C307.696 91.657 307.696 91.657 305 94.0001C301.172 94.7642 297.377 94.6617 293.486 94.6153C292.31 94.6209 291.134 94.6264 289.922 94.6321C286.701 94.6419 283.481 94.6293 280.26 94.6059C276.888 94.5857 273.517 94.5916 270.146 94.594C264.486 94.5939 258.826 94.5742 253.166 94.5421C246.621 94.5052 240.076 94.4964 233.531 94.5034C227.235 94.5097 220.939 94.4989 214.643 94.4794C211.963 94.4712 209.283 94.4685 206.603 94.4701C202.863 94.4683 199.124 94.447 195.384 94.42C194.27 94.4229 193.156 94.4259 192.007 94.4289C190.991 94.4175 189.974 94.4062 188.927 94.3945C188.043 94.3908 187.159 94.387 186.247 94.3832C183.49 93.9132 182.634 93.2449 181 91.0001C179.334 84.1168 179.334 84.1168 181.75 80.0626C184.97 77.1103 187.491 76.8745 191.693 76.8596Z" fill="#00646F"/>
<path d="M372.75 217.353C374.056 217.34 374.056 217.34 375.388 217.326C378.259 217.304 381.129 217.319 384 217.336C385.999 217.332 387.997 217.328 389.996 217.321C394.182 217.314 398.368 217.325 402.555 217.348C407.918 217.377 413.281 217.36 418.645 217.33C422.771 217.312 426.897 217.318 431.024 217.331C433.001 217.334 434.979 217.33 436.957 217.318C439.722 217.306 442.485 217.325 445.25 217.353C446.066 217.343 446.881 217.333 447.722 217.322C451.937 217.401 453.556 217.658 457.008 220.322C459 223 459 223 459.625 226.5C458.821 231.002 457.602 232.22 454 235C451.078 235.712 448.246 235.674 445.25 235.631C444.379 235.638 443.509 235.645 442.612 235.653C439.741 235.67 436.871 235.65 434 235.629C432.001 235.63 430.003 235.632 428.004 235.636C423.817 235.639 419.632 235.624 415.445 235.597C410.082 235.563 404.719 235.569 399.355 235.588C395.229 235.598 391.103 235.589 386.976 235.574C384.999 235.569 383.021 235.569 381.043 235.576C378.278 235.581 375.515 235.561 372.75 235.533C371.526 235.543 371.526 235.543 370.278 235.553C366.403 235.488 364.397 235.236 360.992 233.213C358.612 230.569 358.406 228.614 358.336 225.098C360.647 217.799 366.191 217.272 372.75 217.353Z" fill="#00646F"/>
<path d="M391.281 160.482C391.996 160.475 392.71 160.468 393.446 160.461C395.798 160.444 398.148 160.455 400.5 160.469C402.14 160.466 403.78 160.462 405.42 160.457C408.853 160.451 412.286 160.46 415.719 160.479C420.114 160.501 424.508 160.488 428.903 160.464C432.288 160.45 435.674 160.454 439.059 160.465C440.679 160.467 442.299 160.464 443.92 160.455C446.187 160.445 448.452 160.46 450.719 160.482C452.007 160.486 453.296 160.489 454.623 160.492C458.559 161.084 460.224 162.198 463 165C463.664 167.219 463.664 167.219 463.625 169.5C463.644 170.629 463.644 170.629 463.664 171.781C462.664 175.124 460.893 176.12 458 178C454.623 178.508 454.623 178.508 450.719 178.518C449.647 178.528 449.647 178.528 448.554 178.539C446.202 178.556 443.852 178.545 441.5 178.531C439.86 178.534 438.22 178.538 436.58 178.543C433.147 178.549 429.714 178.54 426.281 178.522C421.886 178.499 417.492 178.512 413.097 178.536C409.712 178.55 406.326 178.546 402.941 178.535C401.321 178.533 399.701 178.536 398.08 178.545C395.813 178.555 393.548 178.54 391.281 178.518C389.993 178.514 388.704 178.511 387.377 178.508C383.441 177.916 381.776 176.802 379 174C378.336 171.781 378.336 171.781 378.375 169.5C378.362 168.747 378.349 167.994 378.336 167.219C380.18 161.058 385.65 160.496 391.281 160.482Z" fill="#00646F"/>
<path d="M239.656 160.807C241.433 160.783 241.433 160.783 243.246 160.759C248.668 160.714 254.089 160.673 259.511 160.65C262.374 160.637 265.236 160.609 268.098 160.568C272.218 160.509 276.337 160.491 280.457 160.477C281.738 160.454 283.018 160.431 284.337 160.408C294.216 160.432 294.216 160.432 297.308 163.314C299.562 166.892 299.742 168.846 299 173C297.346 175.612 296.645 176.579 294 178C289.514 178.753 285.067 178.676 280.528 178.629C279.212 178.631 277.897 178.634 276.542 178.636C273.764 178.639 270.986 178.625 268.208 178.597C264.651 178.563 261.096 178.569 257.539 178.588C254.139 178.601 250.74 178.583 247.34 178.566C246.064 178.571 244.788 178.576 243.473 178.582C242.288 178.566 241.103 178.55 239.883 178.534C238.841 178.527 237.799 178.521 236.725 178.515C233.288 177.866 232.121 176.736 230 174C228.911 170.006 228.579 167.923 230.313 164.125C233.127 160.581 235.305 160.861 239.656 160.807Z" fill="#00646F"/>
</g>
<defs>
<clipPath id="clip0_2055_20">
<rect width="512" height="512" fill="white"/>
</clipPath>
</defs>
</svg>
