<svg width="512" height="512" viewBox="0 0 512 512" fill="none" xmlns="http://www.w3.org/2000/svg">
<path d="M227 6C230.5 5.6875 230.5 5.6875 234 6C236 8 236 8 236 11C237.69 10.9207 237.69 10.9207 239.414 10.8398C244.367 10.8388 248.668 12.1388 253.375 13.5625C261.261 15.7934 267.796 17.1065 275.625 13.9375C279.133 12.5528 282.245 12.8727 286 13C289.231 18.1684 288.41 24.385 288.426 30.2717C288.437 32.4277 288.487 34.5809 288.537 36.7363C288.547 38.1146 288.554 39.4928 288.559 40.8711C288.572 42.1182 288.586 43.3653 288.599 44.6501C287.836 48.9146 286.331 50.3183 283 53C271.66 58.5708 260.869 57.0095 249 54C246.543 53.4333 244.084 52.8706 241.625 52.3125C239.769 51.8794 237.913 51.4462 236 51C236 56.94 236 62.88 236 69C239.248 68.9764 239.248 68.9764 242.562 68.9524C249.71 68.9027 256.859 68.8696 264.007 68.8446C268.342 68.8289 272.677 68.8076 277.012 68.7737C281.194 68.7411 285.376 68.7232 289.558 68.7154C291.155 68.7098 292.752 68.699 294.349 68.6828C296.583 68.6611 298.816 68.658 301.05 68.6594C302.322 68.6528 303.595 68.6461 304.906 68.6392C308 69 308 69 309.916 70.3252C311.663 73.0236 311.281 75.5339 311.188 78.6875C311.16 79.867 311.133 81.0465 311.105 82.2617C311.053 83.6172 311.053 83.6172 311 85C311.595 84.9895 312.191 84.9791 312.804 84.9683C315.494 84.9268 318.185 84.9007 320.875 84.875C321.812 84.8582 322.749 84.8415 323.715 84.8242C324.611 84.8178 325.507 84.8113 326.43 84.8047C327.257 84.7942 328.085 84.7837 328.937 84.7729C331 85 331 85 333 87C333.259 90.041 333.259 90.041 333.266 93.9062C333.268 94.5868 333.269 95.2673 333.271 95.9684C333.273 97.4075 333.269 98.8466 333.261 100.286C333.25 102.491 333.261 104.697 333.273 106.902C333.272 108.299 333.27 109.697 333.266 111.094C333.263 112.369 333.261 113.645 333.259 114.959C333 118 333 118 331 120C328.69 120 326.38 120 324 120C324 126.93 324 133.86 324 141C328.755 140.984 328.755 140.984 333.607 140.968C344.06 140.935 354.514 140.913 364.967 140.896C371.308 140.886 377.648 140.872 383.988 140.849C390.103 140.827 396.217 140.815 402.331 140.81C404.668 140.807 407.006 140.799 409.343 140.789C412.607 140.774 415.87 140.772 419.134 140.773C420.109 140.766 421.084 140.759 422.088 140.751C422.974 140.754 423.86 140.757 424.773 140.759C425.546 140.758 426.318 140.756 427.114 140.754C429 141 429 141 431 143C431.461 147.462 431.324 151.955 431.312 156.438C431.329 157.691 431.345 158.945 431.361 160.236C431.362 161.436 431.363 162.635 431.363 163.871C431.368 165.525 431.368 165.525 431.372 167.213C431 170 431 170 428 173C423.38 173 418.76 173 414 173C414 205.67 414 238.34 414 272C415.98 272 417.96 272 420 272C423.366 275.366 422.297 279.815 422.322 284.387C422.32 285.061 422.318 285.736 422.316 286.431C422.313 288.492 422.336 290.552 422.361 292.613C422.362 293.906 422.363 295.199 422.363 296.531C422.368 298.319 422.368 298.319 422.372 300.143C422.249 301.086 422.127 302.028 422 303C419 305 419 305 414 305C414 330.08 414 355.16 414 381C419.61 382.32 425.22 383.64 431 385C436.795 386.429 442.576 387.907 448.353 389.409C450.058 389.851 451.765 390.288 453.472 390.721C455.982 391.357 458.487 392.007 460.992 392.66C461.755 392.851 462.517 393.042 463.302 393.238C470.003 395.014 470.003 395.014 472 398C472.5 401 472.5 401 472 404C471.179 404.429 470.359 404.858 469.513 405.3C466.715 406.778 466.715 406.778 466.341 409.819C466.325 410.935 466.309 412.05 466.293 413.199C466.249 415.012 466.249 415.012 466.205 416.861C466.196 418.755 466.196 418.755 466.188 420.688C466.162 421.962 466.137 423.236 466.111 424.549C466.052 427.7 466.016 430.849 466 434C466.768 434.265 467.535 434.531 468.326 434.804C471.88 436.394 473.118 437.986 475.031 441.306C476.918 446.552 476.576 452.115 476.519 457.625C476.412 469.756 477.163 480.83 481.039 492.418C482.06 496.224 482.214 498.27 481 502C478.674 505.123 477.494 505.923 473.596 506.533C472.253 506.566 470.91 506.576 469.566 506.566C468.494 506.576 468.494 506.576 467.4 506.585C465.891 506.592 464.382 506.589 462.874 506.576C460.573 506.563 458.275 506.597 455.975 506.635C454.505 506.636 453.036 506.634 451.566 506.629C450.883 506.642 450.199 506.655 449.495 506.669C445.688 506.595 444.077 506.061 441.056 503.67C438.341 500.144 438.443 498.373 439 494C439.547 492.211 440.1 490.422 440.727 488.659C444.646 477.442 444.599 466.091 444.547 454.35C444.55 453.647 444.554 452.944 444.558 452.22C444.566 450.288 444.55 448.357 444.533 446.425C445.206 441.486 447.429 438.386 451.125 435.125C453 434 453 434 455 434C455 426.08 455 418.16 455 410C449.06 411.65 443.12 413.3 437 415C436.98 416.433 436.96 417.866 436.94 419.343C436.864 424.658 436.775 429.973 436.683 435.288C436.644 437.589 436.609 439.89 436.578 442.19C436.532 445.497 436.474 448.803 436.414 452.109C436.403 453.139 436.391 454.168 436.379 455.228C436.359 456.189 436.339 457.15 436.319 458.14C436.299 459.405 436.299 459.405 436.278 460.697C435.97 463.246 435.377 464.838 434 467C431.858 468.445 429.847 469.642 427.562 470.812C426.901 471.156 426.239 471.499 425.557 471.853C387.453 491.037 341.699 494.563 301.059 481.742C292.842 478.992 284.822 475.724 277 472C276.172 471.633 275.344 471.266 274.49 470.887C273.674 470.493 272.857 470.098 272.016 469.691C271.271 469.344 270.526 468.997 269.759 468.639C267.113 466.173 267.4 463.486 267 460C265.803 460.004 264.606 460.007 263.372 460.011C234.967 460.098 206.561 460.164 178.156 460.204C174.661 460.209 171.166 460.214 167.671 460.22C166.976 460.221 166.28 460.222 165.563 460.223C154.291 460.24 143.02 460.272 131.748 460.309C120.186 460.346 108.623 460.368 97.061 460.376C90.5651 460.382 84.0694 460.394 77.5736 460.423C71.4636 460.45 65.354 460.458 59.244 460.452C56.9977 460.454 54.7515 460.462 52.5053 460.477C49.4454 460.497 46.3865 460.492 43.3266 460.481C42.4317 460.493 41.5367 460.504 40.6147 460.516C34.6334 460.458 34.6334 460.458 31.4494 458.155C29.4734 455.217 29.4829 453.15 29.4688 449.625C29.4636 448.393 29.4584 447.16 29.4531 445.891C29.4686 444.607 29.4841 443.323 29.5 442C29.4845 440.716 29.4691 439.432 29.4531 438.109C29.4583 436.877 29.4634 435.645 29.4688 434.375C29.4733 433.248 29.4778 432.122 29.4824 430.961C30 428 30 428 34 424C38.29 424 42.58 424 47 424C47 384.73 47 345.46 47 305C45.35 305 43.7 305 42 305C39.6064 302.822 39.0572 301.411 38.6118 298.207C38.6084 297.158 38.605 296.108 38.6016 295.027C38.5977 293.881 38.5938 292.734 38.5898 291.553C38.6014 290.36 38.613 289.167 38.625 287.938C38.6134 286.741 38.6018 285.544 38.5898 284.311C38.5937 283.165 38.5976 282.02 38.6016 280.84C38.6049 279.792 38.6083 278.744 38.6118 277.664C39 275 39 275 40.2124 273.135C42 272 42 272 47 272C47 239.33 47 206.66 47 173C42.38 173 37.76 173 33 173C29.9165 168.889 29.6184 168.269 29.6016 163.5C29.5958 161.922 29.5958 161.922 29.5898 160.312C29.6014 159.219 29.613 158.126 29.625 157C29.6134 155.907 29.6018 154.814 29.5898 153.688C29.5937 152.636 29.5976 151.584 29.6016 150.5C29.6049 149.541 29.6083 148.582 29.6118 147.594C30.105 144.299 30.4856 143.235 33 141C36.3176 140.39 39.6155 140.496 42.9792 140.546C44.5161 140.545 44.5161 140.545 46.084 140.544C49.4769 140.547 52.869 140.578 56.2617 140.609C58.6116 140.617 60.9614 140.623 63.3112 140.627C69.501 140.642 75.6904 140.681 81.88 140.725C88.194 140.766 94.5081 140.785 100.822 140.805C113.215 140.848 125.607 140.918 138 141C138 134.07 138 127.14 138 120C135.36 120 132.72 120 130 120C126.834 115.251 127.666 110.135 127.684 104.548C127.687 102.507 127.664 100.467 127.639 98.4258C127.638 97.1406 127.637 95.8554 127.637 94.5312C127.634 93.3511 127.631 92.171 127.628 90.9551C128 88 128 88 129.231 86.1101C131.521 84.6731 132.974 84.6556 135.668 84.707C136.561 84.7167 137.453 84.7264 138.373 84.7363C139.302 84.7615 140.231 84.7866 141.188 84.8125C142.128 84.826 143.068 84.8396 144.037 84.8535C146.359 84.8889 148.679 84.9382 151 85C150.977 84.0126 150.954 83.0252 150.93 82.0078C150.912 80.7265 150.894 79.4452 150.875 78.125C150.852 76.8488 150.829 75.5727 150.805 74.2578C151 71 151 71 153 69C155.974 68.7595 155.974 68.7595 159.836 68.7729C160.539 68.7727 161.242 68.7724 161.965 68.7721C164.292 68.7735 166.619 68.789 168.945 68.8047C170.557 68.8084 172.168 68.8113 173.78 68.8133C178.024 68.8209 182.269 68.8406 186.514 68.8627C190.844 68.8831 195.174 68.8923 199.504 68.9023C208.003 68.9238 216.501 68.9579 225 69C224.996 68.255 224.991 67.51 224.987 66.7424C224.946 59.7237 224.916 52.7051 224.896 45.6864C224.886 42.0779 224.872 38.4695 224.849 34.8611C224.827 31.3792 224.815 27.8975 224.81 24.4156C224.805 22.4396 224.789 20.4637 224.773 18.4878C224.773 17.2868 224.773 16.0858 224.773 14.8484C224.769 13.7892 224.764 12.7299 224.759 11.6386C225 9 225 9 227 6ZM236 22C236 27.94 236 33.88 236 40C238.506 40.3713 238.506 40.3713 241.062 40.75C245.379 41.4482 249.509 42.3882 253.704 43.6235C262.322 46.1533 268.845 47.0775 277 43C277 37.39 277 31.78 277 26C273.968 26.3403 273.968 26.3403 270.875 26.6875C261.8 27.3495 253.669 25.4419 245 22.8125C241.553 21.7386 241.553 21.7386 236 22ZM162 80C162 81.65 162 83.3 162 85C207.54 85 253.08 85 300 85C300 83.35 300 81.7 300 80C254.46 80 208.92 80 162 80ZM139 96C139 100.29 139 104.58 139 109C199.39 109 259.78 109 322 109C322 104.71 322 100.42 322 96C261.61 96 201.22 96 139 96ZM149 120C149 220.32 149 320.64 149 424C187.94 424 226.88 424 267 424C267 421.03 267 418.06 267 415C263.23 413.894 259.459 412.791 255.688 411.688C254.109 411.224 254.109 411.224 252.498 410.752C246.371 408.961 240.235 407.236 234.058 405.624C232 405 232 405 231 404C230.959 402 230.957 400 231 398C235.397 395.626 239.734 394.08 244.55 392.839C245.646 392.549 245.646 392.549 246.765 392.252C249.16 391.618 251.559 390.992 253.957 390.367C255.628 389.926 257.298 389.484 258.969 389.042C263.351 387.883 267.736 386.731 272.121 385.581C279.158 383.735 286.192 381.881 293.225 380.022C295.684 379.373 298.145 378.729 300.606 378.086C302.103 377.691 303.6 377.297 305.097 376.902C306.129 376.634 306.129 376.634 307.183 376.36C310.357 375.699 310.357 375.699 313 374C313.096 372.64 313.124 371.274 313.123 369.91C313.125 369.023 313.127 368.137 313.129 367.223C313.125 365.745 313.125 365.745 313.12 364.237C313.121 363.199 313.122 362.161 313.123 361.091C313.124 357.584 313.119 354.077 313.114 350.57C313.113 348.067 313.113 345.565 313.114 343.062C313.114 337.66 313.111 332.257 313.106 326.854C313.098 319.043 313.095 311.232 313.094 303.42C313.092 290.748 313.085 278.076 313.075 265.404C313.066 253.091 313.059 240.778 313.055 228.466C313.055 227.699 313.054 226.933 313.054 226.144C313.052 220.152 313.05 214.161 313.048 208.169C313.039 178.779 313.019 149.39 313 120C258.88 120 204.76 120 149 120ZM41 152C41 155.3 41 158.6 41 162C73.01 162 105.02 162 138 162C138 158.7 138 155.4 138 152C105.99 152 73.98 152 41 152ZM324 152C324 155.3 324 158.6 324 162C355.68 162 387.36 162 420 162C420 158.7 420 155.4 420 152C388.32 152 356.64 152 324 152ZM58 173C58 205.67 58 238.34 58 272C84.4 272 110.8 272 138 272C138 239.33 138 206.66 138 173C111.6 173 85.2 173 58 173ZM324 173C324 205.67 324 238.34 324 272C350.07 272 376.14 272 403 272C403 239.33 403 206.66 403 173C376.93 173 350.86 173 324 173ZM50 283C50 286.63 50 290.26 50 294C79.04 294 108.08 294 138 294C138 290.37 138 286.74 138 283C108.96 283 79.92 283 50 283ZM324 283C324 286.63 324 290.26 324 294C352.71 294 381.42 294 411 294C411 290.37 411 286.74 411 283C382.29 283 353.58 283 324 283ZM58 305C58 344.27 58 383.54 58 424C84.4 424 110.8 424 138 424C138 384.73 138 345.46 138 305C111.6 305 85.2 305 58 305ZM324 305C324 326.78 324 348.56 324 371C331.666 369.606 338.272 368.102 345.543 365.707C352.944 364.193 360.221 366.721 367.336 368.723C368.777 369.12 368.777 369.12 370.247 369.526C373.291 370.366 376.333 371.214 379.375 372.062C382.439 372.914 385.503 373.763 388.568 374.61C390.469 375.136 392.37 375.664 394.27 376.196C395.125 376.433 395.98 376.67 396.861 376.914C397.614 377.124 398.367 377.335 399.143 377.551C401.006 378.078 401.006 378.078 403 378C403 353.91 403 329.82 403 305C376.93 305 350.86 305 324 305ZM338.944 378.203C338.065 378.437 337.186 378.671 336.28 378.912C333.394 379.683 330.512 380.467 327.629 381.25C325.621 381.789 323.613 382.327 321.605 382.864C316.334 384.277 311.066 385.7 305.799 387.125C300.418 388.58 295.034 390.024 289.65 391.469C279.098 394.303 268.548 397.148 258 400C260.698 402.698 263.094 403.012 266.782 404C267.829 404.283 267.829 404.283 268.897 404.572C271.215 405.198 273.535 405.814 275.855 406.43C277.476 406.865 279.096 407.301 280.716 407.738C284.998 408.89 289.282 410.033 293.567 411.175C297.871 412.324 302.173 413.481 306.475 414.637C311.339 415.943 316.204 417.248 321.069 418.549C321.814 418.748 322.558 418.947 323.325 419.152C324.784 419.541 326.243 419.928 327.702 420.313C331.198 421.237 334.679 422.191 338.147 423.216C339.147 423.504 339.147 423.504 340.166 423.798C341.966 424.317 343.761 424.852 345.556 425.388C352.506 426.623 359.095 424.608 365.787 422.807C366.625 422.586 367.464 422.364 368.327 422.136C371.073 421.41 373.816 420.676 376.559 419.941C378.473 419.432 380.387 418.922 382.302 418.413C386.299 417.348 390.296 416.279 394.292 415.208C399.423 413.832 404.558 412.469 409.693 411.109C413.64 410.062 417.585 409.008 421.529 407.951C423.423 407.445 425.317 406.941 427.212 406.44C429.85 405.742 432.485 405.034 435.119 404.323C435.907 404.116 436.695 403.91 437.507 403.697C439.356 403.192 441.181 402.604 443 402C443.33 401.34 443.66 400.68 444 400C442.929 399.714 441.859 399.428 440.755 399.134C430.675 396.442 420.596 393.749 410.516 391.055C405.334 389.67 400.152 388.286 394.969 386.902C389.97 385.567 384.971 384.231 379.972 382.895C378.063 382.385 376.154 381.875 374.244 381.365C371.574 380.653 368.905 379.939 366.235 379.225C365.045 378.908 365.045 378.908 363.831 378.584C360.859 377.788 357.919 376.973 355 376C349.248 375.631 344.427 376.696 338.944 378.203ZM278 418C277.852 423.766 277.743 429.53 277.67 435.297C277.64 437.259 277.599 439.22 277.547 441.181C277.475 444.001 277.441 446.82 277.414 449.641C277.383 450.517 277.352 451.393 277.32 452.296C277.319 454.674 277.385 456.702 278 459C280.658 461.593 280.658 461.593 284 463C285.089 463.549 285.089 463.549 286.2 464.109C325.823 480.584 368.3 483.443 408.695 467.16C412.522 465.547 416.28 463.847 420 462C420.882 461.663 421.764 461.325 422.673 460.978C425.126 459.29 425.126 459.29 425.434 457.147C425.581 454.662 425.561 452.226 425.488 449.738C425.481 448.832 425.474 447.927 425.467 446.993C425.439 444.099 425.376 441.206 425.312 438.312C425.287 436.351 425.265 434.389 425.244 432.428C425.189 427.618 425.103 422.809 425 418C416.933 419.458 409.08 421.524 401.18 423.695C399.868 424.052 398.556 424.408 397.244 424.763C391.724 426.258 386.204 427.759 380.689 429.274C377.295 430.206 373.899 431.127 370.501 432.043C368.598 432.559 366.698 433.085 364.798 433.612C352.315 436.965 343.86 435.459 331.633 432.062C330.147 431.658 328.661 431.254 327.175 430.852C323.284 429.795 319.396 428.727 315.509 427.656C309.267 425.938 303.02 424.24 296.774 422.539C294.594 421.944 292.415 421.345 290.237 420.744C288.908 420.38 287.579 420.016 286.25 419.652C285.089 419.333 283.927 419.013 282.73 418.683C280.146 417.919 280.146 417.919 278 418ZM41 435C41 439.62 41 444.24 41 449C115.58 449 190.16 449 267 449C267 444.38 267 439.76 267 435C192.42 435 117.84 435 41 435ZM456 446C455.693 449.058 455.693 449.058 455.727 452.668C455.706 454.051 455.685 455.435 455.664 456.818C455.642 458.981 455.625 461.144 455.619 463.306C455.575 472.728 454.594 480.978 451.853 490.017C450.863 492.964 450.863 492.964 451 496C457.27 496 463.54 496 470 496C469.361 493.855 468.721 491.71 468.062 489.5C465.318 479.122 465.435 468.444 465.328 457.783C465.319 457.095 465.309 456.407 465.299 455.698C465.275 453.802 465.265 451.905 465.255 450.008C465.228 446.82 465.228 446.82 463 444C459.542 443.568 458.52 443.48 456 446Z" fill="#00646F"/>
<path d="M267 158C277.512 168.841 282.868 181.404 283.313 196.375C283.043 209.899 278.367 223.262 268.969 233.195C256.811 244.34 242.671 249.533 226.285 248.844C210.909 247.077 198.513 240.217 188.598 228.332C181.9 218.555 178.601 207.863 178.688 196.125C178.693 195.334 178.698 194.543 178.703 193.729C178.823 187.722 179.598 182.55 182 177C182.306 176.209 182.611 175.417 182.926 174.602C188.193 162.46 198.099 153.433 210 148C229.561 140.385 251.305 143.847 267 158ZM199.625 169.25C190.94 179.648 189.065 190.868 190 204C192.67 216.161 199.952 225.714 210.242 232.473C219.332 237.584 230.086 239.226 240.27 236.895C252.633 232.844 261.602 226.387 268 215C272.916 203.365 273.425 193.162 269.391 181.215C265.679 172.635 259.985 165.838 252 161C251.363 160.612 250.727 160.224 250.071 159.824C232.887 150.335 212.78 155.53 199.625 169.25Z" fill="#00646F"/>
<path d="M187.498 271.718C188.412 271.72 189.326 271.723 190.267 271.725C191.228 271.72 192.189 271.715 193.18 271.71C196.368 271.696 199.557 271.697 202.746 271.699C204.955 271.695 207.165 271.691 209.375 271.686C214.011 271.679 218.647 271.679 223.283 271.684C229.233 271.69 235.183 271.673 241.133 271.65C245.698 271.635 250.262 271.634 254.827 271.637C257.021 271.637 259.215 271.632 261.409 271.622C264.474 271.609 267.538 271.616 270.603 271.628C271.515 271.62 272.427 271.612 273.366 271.604C274.2 271.612 275.035 271.619 275.894 271.626C276.619 271.626 277.343 271.625 278.09 271.625C280.58 272.114 281.47 273.008 283 275C283.388 277.771 283.388 277.771 283.398 281.094C283.402 282.289 283.406 283.484 283.41 284.715C283.398 285.964 283.387 287.213 283.375 288.5C283.386 289.749 283.398 290.998 283.41 292.285C283.406 293.48 283.402 294.675 283.398 295.906C283.395 297.003 283.392 298.099 283.388 299.228C282.943 302.406 282.472 303.07 280 305C278.109 305.375 278.109 305.375 275.939 305.374C275.114 305.381 274.29 305.388 273.441 305.395C272.54 305.388 271.639 305.38 270.711 305.372C269.284 305.378 269.284 305.378 267.828 305.383C264.676 305.391 261.526 305.378 258.375 305.363C256.189 305.363 254.003 305.363 251.818 305.365C247.234 305.365 242.651 305.354 238.068 305.336C232.187 305.313 226.305 305.313 220.424 305.32C215.91 305.323 211.396 305.316 206.881 305.307C204.713 305.303 202.544 305.302 200.375 305.303C197.346 305.303 194.318 305.291 191.289 305.275C189.938 305.278 189.938 305.278 188.559 305.282C187.735 305.275 186.91 305.268 186.061 305.261C184.987 305.258 184.987 305.258 183.891 305.254C182 305 182 305 179 303C178.628 300.143 178.628 300.143 178.637 296.531C178.637 295.238 178.638 293.945 178.639 292.613C178.647 291.939 178.655 291.264 178.664 290.569C178.687 288.508 178.684 286.448 178.678 284.387C178.747 271.792 178.747 271.792 187.498 271.718ZM190 283C190 286.63 190 290.26 190 294C217.06 294 244.12 294 272 294C272 290.37 272 286.74 272 283C244.94 283 217.88 283 190 283Z" fill="#00646F"/>
<path d="M231.062 159.625C234 160 234 160 236 162C236.64 167.303 236.755 172.609 236.865 177.947C236.913 179.722 236.988 181.498 237.091 183.271C237.764 195.043 237.764 195.043 236 200C232.095 204.047 228.182 205.809 223 208C221.186 209.132 219.389 210.293 217.625 211.5C213.452 214.001 210.816 214.803 206 214C204 212 204 212 203.562 209.125C204 206 204 206 206.078 204.07C209.351 201.752 212.697 199.719 216.188 197.75C216.816 197.386 217.444 197.023 218.092 196.648C222.746 194 222.746 194 225 194C224.984 193.112 224.969 192.224 224.952 191.31C224.901 188.007 224.864 184.705 224.835 181.402C224.82 179.975 224.8 178.547 224.774 177.119C224.737 175.064 224.72 173.009 224.707 170.953C224.691 169.717 224.676 168.481 224.659 167.208C225.159 162.5 226.222 160.218 231.062 159.625Z" fill="#00646F"/>
</svg>
