<?xml version="1.0" encoding="UTF-8"?>
<svg version="1.1" xmlns="http://www.w3.org/2000/svg" width="512" height="512">
<path d="M0 0 C1.42507073 0.46278716 2.85066968 0.92395038 4.27674866 1.38362122 C7.31311498 2.36589634 10.34569988 3.35880069 13.37567139 4.36062622 C18.15724865 5.94155601 22.94625235 7.49903897 27.73681641 9.05249023 C32.67452552 10.65480459 37.61171838 12.25861478 42.54620361 13.87083435 C53.48880393 17.44547469 64.44652511 20.96863833 75.421875 24.44140625 C76.13860949 24.66824726 76.85534397 24.89508827 77.59379768 25.12880325 C81.78133015 26.4537494 85.96942673 27.77690473 90.15771103 29.09947205 C99.19891657 31.95497065 108.23781191 34.81752389 117.26843262 37.70635986 C119.22520488 38.3310154 121.18291171 38.95275407 123.14172363 39.57098389 C125.65602369 40.36527179 128.16633339 41.17100591 130.67578125 41.98046875 C131.37661835 42.19896988 132.07745544 42.41747101 132.79953003 42.64259338 C138.05276949 44.35999387 142.59525605 46.56436958 146.10546875 50.921875 C148.34357916 56.10486753 148.93898118 60.52621257 147.16796875 65.859375 C145.25541849 70.28432083 142.60322299 73.53569326 138.20898438 75.69677734 C134.20478757 77.03575608 130.17009203 77.70421654 126.01171875 78.3984375 C125.12061401 78.55097992 124.22950928 78.70352234 123.31140137 78.86068726 C121.43250406 79.18097347 119.55313675 79.49851316 117.67333984 79.81347656 C114.80176109 80.29539942 111.93209407 80.78766212 109.0625 81.28125 C107.23317771 81.59176382 105.40375382 81.90167983 103.57421875 82.2109375 C102.7188855 82.35777985 101.86355225 82.50462219 100.9822998 82.65591431 C97.04389587 83.31052331 93.30248707 83.86256165 89.29296875 83.671875 C89.31391602 84.73100098 89.33486328 85.79012695 89.35644531 86.88134766 C89.4291026 90.82847457 89.47486129 94.77554292 89.51269531 98.72314453 C89.53275244 100.42832394 89.56000532 102.13343506 89.59472656 103.83837891 C89.64350736 106.29607024 89.66599594 108.75284866 89.68359375 111.2109375 C89.70423889 111.96742584 89.72488403 112.72391418 89.74615479 113.50332642 C89.74832879 118.68636747 88.63870979 121.51254336 85.29296875 125.671875 C84.96296875 126.001875 84.63296875 126.331875 84.29296875 126.671875 C84.19020614 128.68486368 84.15724206 130.70144032 84.15112305 132.71704102 C84.14408859 134.01251358 84.13705414 135.30798615 84.12980652 136.64271545 C84.12799063 137.34010393 84.12617474 138.03749241 84.12430382 138.75601387 C84.11714575 140.93850981 84.10148095 143.12077993 84.08296204 145.3032074 C84.03048637 151.5104548 83.98258923 157.7175848 83.96704102 163.92504883 C83.95691273 167.71955377 83.92745802 171.5134998 83.88572121 175.30778313 C83.87346525 176.74970187 83.86828002 178.19169981 83.87051964 179.6336689 C83.88124395 188.79938618 83.61328781 195.47368289 77.58203125 202.73046875 C73.89028548 205.78959142 71.26527036 207.4293237 66.29296875 207.671875 C66.2671875 208.31511719 66.24140625 208.95835937 66.21484375 209.62109375 C64.75233477 232.9215209 52.20128062 252.30068239 35.29296875 267.671875 C34.63296875 268.001875 33.97296875 268.331875 33.29296875 268.671875 C32.7654646 272.13551946 32.59338449 275.22378533 33.29296875 278.671875 C35.68976007 281.45710919 38.63586195 282.96394268 41.85546875 284.671875 C43.62344897 285.69479654 45.39036661 286.71955666 47.15625 287.74609375 C48.47423584 288.48931885 48.47423584 288.48931885 49.81884766 289.24755859 C53.16895196 291.17616611 56.35513364 293.30152918 59.54296875 295.484375 C66.06596168 299.87832285 72.64322959 304.18746663 79.23046875 308.484375 C80.20209961 309.11899658 81.17373047 309.75361816 82.17480469 310.4074707 C84.03962083 311.62287957 85.90883462 312.83157193 87.78271484 314.03295898 C89.2736665 315.00638424 90.74824174 316.00706371 92.18212891 317.06274414 C98.27660717 321.39037821 105.4009507 322.94402538 112.5151062 324.86477661 C137.36848432 331.62511123 158.75829428 340.99529779 172.54296875 364.296875 C179.16310823 375.99883066 182.41377754 388.93838678 182.48583984 402.33251953 C182.49401733 403.18218796 182.50219482 404.03185638 182.51062012 404.90727234 C182.53533742 407.70640381 182.55195654 410.50548497 182.56640625 413.3046875 C182.57172993 414.26610531 182.5770536 415.22752312 182.5825386 416.2180748 C182.60921311 421.30878652 182.62860464 426.39947423 182.64306641 431.49023438 C182.65638839 435.68414196 182.68421754 439.87756103 182.72509766 444.07128906 C182.77464037 449.15518984 182.79921362 454.23864879 182.80629349 459.32278061 C182.81296908 461.24992581 182.82809367 463.17706258 182.8521843 465.10406876 C183.00452672 478.02884684 182.64043816 489.08612655 173.48046875 499.171875 C167.32147887 504.78262146 160.69708328 507.79230494 152.3579464 507.80609608 C151.11046792 507.81055392 149.86298945 507.81501176 148.5777086 507.81960469 C147.18570669 507.81951539 145.79370477 507.81932554 144.40170288 507.81904602 C142.92884843 507.82234463 141.45599488 507.82607019 139.9831425 507.8301875 C135.92553127 507.84021612 131.86793485 507.84392568 127.81031299 507.84657681 C123.43795819 507.85047734 119.06561513 507.86005589 114.69326782 507.86878967 C104.12857151 507.88856176 93.56387423 507.89862148 82.99916404 507.90751746 C78.02531715 507.91189936 73.05147132 507.91726645 68.07762527 507.92250633 C51.54531004 507.93951977 35.01299548 507.95401405 18.48067284 507.96125507 C14.18942641 507.963165 9.89818 507.96508533 5.60693359 507.96704102 C4.5403508 507.96752476 3.47376801 507.9680085 2.37486453 507.9685069 C-14.90392302 507.97680757 -32.18264135 508.00214461 -49.46139868 508.03462169 C-67.19708313 508.06768608 -84.93273241 508.0857033 -102.66844785 508.08889931 C-112.62801427 508.09106504 -122.58747975 508.09982286 -132.54701614 508.12536049 C-141.02899227 508.14705903 -149.51084297 508.15512209 -157.9928437 508.14539371 C-162.32004698 508.14084648 -166.6469914 508.14275969 -170.97415924 508.16215515 C-174.93826416 508.17976968 -178.90192106 508.1788032 -182.86603062 508.16325786 C-184.2974564 508.16087916 -185.72891306 508.165219 -187.16029163 508.17708651 C-198.59462376 508.26598956 -206.46138414 506.46463835 -214.91796875 498.59765625 C-222.81490138 490.09724623 -224.08613945 481.37899206 -224.14453125 470.109375 C-224.17740234 468.98595703 -224.21027344 467.86253906 -224.24414062 466.70507812 C-224.29761371 458.52369617 -224.29761371 458.52369617 -221.4375 454.3984375 C-218.69314712 452.66309562 -217.71629809 452.06241471 -214.58203125 452.609375 C-213.91945313 452.70089844 -213.256875 452.79242188 -212.57421875 452.88671875 C-210.00285398 453.96798301 -209.17337236 455.31632634 -207.70703125 457.671875 C-207.32226562 460.05029297 -207.32226562 460.05029297 -207.30078125 462.6640625 C-207.27886719 463.61667969 -207.25695312 464.56929688 -207.234375 465.55078125 C-207.22535156 466.53949219 -207.21632813 467.52820313 -207.20703125 468.546875 C-207.17043463 479.19729155 -207.17043463 479.19729155 -201.45703125 487.921875 C-195.97422055 491.41093635 -190.17253348 491.97866653 -183.8046875 492.0859375 C-182.72084023 492.11498672 -182.72084023 492.11498672 -181.61509705 492.1446228 C-179.3333575 492.20385105 -177.05156592 492.25057355 -174.76953125 492.296875 C-173.21156795 492.33510723 -171.65362459 492.37416192 -170.09570312 492.4140625 C-166.29964344 492.50950475 -162.50348503 492.59374168 -158.70703125 492.671875 C-158.72797852 491.60227539 -158.74892578 490.53267578 -158.77050781 489.43066406 C-158.84297751 485.45749327 -158.88885588 481.48438075 -158.92675781 477.51074219 C-158.94685753 475.79189221 -158.97414214 474.07311048 -159.00878906 472.35449219 C-159.05738159 469.88199011 -159.0800156 467.4103929 -159.09765625 464.9375 C-159.11830139 464.17068909 -159.13894653 463.40387817 -159.16021729 462.61383057 C-159.16171802 459.035167 -159.01508051 457.0742792 -156.80761719 454.19067383 C-154.54865502 452.55736331 -153.46457244 452.10398918 -150.70703125 452.109375 C-150.04703125 452.08746094 -149.38703125 452.06554687 -148.70703125 452.04296875 C-146.70703125 452.671875 -146.70703125 452.671875 -142.70703125 457.671875 C-142.70703125 469.221875 -142.70703125 480.771875 -142.70703125 492.671875 C-62.18703125 492.671875 18.33296875 492.671875 101.29296875 492.671875 C101.29296875 481.121875 101.29296875 469.571875 101.29296875 457.671875 C105.29296875 452.671875 105.29296875 452.671875 107.29296875 452.04296875 C108.28296875 452.07583984 108.28296875 452.07583984 109.29296875 452.109375 C109.95296875 452.10808594 110.61296875 452.10679687 111.29296875 452.10546875 C114.2982201 452.95656532 115.39182608 454.18841575 117.29296875 456.671875 C117.64206925 459.5615262 117.76112495 462.0578021 117.68359375 464.9375 C117.67793396 465.73089783 117.67227417 466.52429565 117.66644287 467.34173584 C117.64410022 469.86906973 117.59391051 472.39497165 117.54296875 474.921875 C117.52290089 476.63800032 117.50465062 478.35414792 117.48828125 480.0703125 C117.4442427 484.2713828 117.37523201 488.47138635 117.29296875 492.671875 C121.82839839 492.60244146 126.36295435 492.51421547 130.89770508 492.40942383 C132.43666801 492.37640579 133.97574531 492.34830378 135.51489258 492.32543945 C149.0436832 492.66522449 149.0436832 492.66522449 160.89428711 487.2565918 C165.22810787 482.34634034 165.4448663 478.0550786 165.45410156 471.81079102 C165.45906647 471.01032852 165.46403137 470.20986603 165.46914673 469.38514709 C165.48377003 466.7320164 165.49057366 464.07894567 165.49609375 461.42578125 C165.50184882 459.57551574 165.50760651 457.72525024 165.5133667 455.87498474 C165.52387975 451.98867516 165.52971919 448.10238626 165.53320312 444.21606445 C165.5386625 439.26349957 165.5626341 434.31121314 165.59117508 429.35873508 C165.60991465 425.53144061 165.61501323 421.70421137 165.616539 417.87687492 C165.61954492 416.05303375 165.62750283 414.22919315 165.64072418 412.40539742 C165.72959466 399.19392009 164.81043572 387.43223692 158.60546875 375.484375 C158.25661621 374.80511963 157.90776367 374.12586426 157.54833984 373.42602539 C147.60699692 354.74638935 128.77880801 346.77236264 109.35546875 340.796875 C100.34543732 337.84211412 100.34543732 337.84211412 91.140625 338.48828125 C88.17354067 340.2109884 85.7116359 342.00859588 83.1171875 344.22558594 C79.5086703 347.08651419 75.40754517 349.2045657 71.41796875 351.484375 C69.51487826 352.60721176 67.61393479 353.73369327 65.71484375 354.86328125 C61.71300486 357.23724278 57.70983599 359.60892153 53.70498657 361.97779846 C40.45207488 369.81848686 27.22062863 377.68918813 14.07553101 385.70959473 C-2.19491903 395.63381438 -2.19491903 395.63381438 -10.14453125 400.171875 C-10.75876953 400.52781738 -11.37300781 400.88375977 -12.00585938 401.25048828 C-15.25549521 403.07443521 -17.98495104 404.36498892 -21.70703125 404.671875 C-24.79858398 403.51513672 -24.79858398 403.51513672 -28.203125 401.7265625 C-28.8153038 401.4069455 -29.4274826 401.08732849 -30.05821228 400.75802612 C-36.4545733 397.37138769 -42.62185601 393.61224095 -48.76953125 389.796875 C-51.22294964 388.28788502 -53.67953555 386.78410009 -56.13671875 385.28125 C-56.76025742 384.89943573 -57.38379608 384.51762146 -58.02622986 384.12423706 C-64.76321388 380.00865921 -71.57463284 376.02299626 -78.39453125 372.046875 C-86.52313928 367.30285 -94.64263668 362.54640331 -102.7121582 357.70214844 C-104.81145351 356.44530911 -106.91668077 355.19831826 -109.02807617 353.96191406 C-113.69729414 351.20749245 -118.13966519 348.42742969 -122.3828125 345.046875 C-129.73274528 339.29524317 -129.73274528 339.29524317 -138.69384766 337.82324219 C-146.35945952 339.15528028 -153.49107029 341.83675717 -160.70703125 344.671875 C-162.08147609 345.15108641 -163.45863289 345.62268522 -164.83984375 346.08203125 C-180.48757006 351.53838972 -192.23522093 360.71042612 -200.1484375 375.3359375 C-206.38520813 388.25629217 -207.15915059 400.78826548 -207.06738281 414.85473633 C-207.05881082 417.03273609 -207.08045008 419.20888303 -207.10546875 421.38671875 C-207.10208496 422.66667725 -207.09870117 423.94663574 -207.09521484 425.26538086 C-207.86462499 429.54933131 -209.3281302 431.01488952 -212.70703125 433.671875 C-215.70703125 434.296875 -215.70703125 434.296875 -218.70703125 433.671875 C-222.14930197 430.98457451 -223.5561286 429.51132572 -224.33813477 425.16113281 C-224.36425277 423.81600855 -224.36191766 422.47012693 -224.3359375 421.125 C-224.33955544 420.03079742 -224.33955544 420.03079742 -224.34324646 418.91448975 C-224.34226891 417.36790546 -224.32889675 415.82128581 -224.30395508 414.27490234 C-224.2702314 411.96973352 -224.28314787 409.66853793 -224.30273438 407.36328125 C-224.29135125 394.00163824 -222.48321114 380.20898841 -216.01953125 368.296875 C-215.67776855 367.64388428 -215.33600586 366.99089355 -214.98388672 366.31811523 C-203.67690872 345.4793599 -185.20671045 334.06299987 -163.20996094 327.37988281 C-160.64141026 326.65331268 -158.06268128 326.02705682 -155.46484375 325.4140625 C-138.85095867 321.2820123 -126.2118781 312.84717957 -112.37890625 303.20703125 C-107.02223027 299.48715698 -101.55082217 295.94328192 -96.08096313 292.39300537 C-92.49016246 290.05909215 -88.9107939 287.70757122 -85.33349609 285.35302734 C-83.66071711 284.28231196 -81.96445297 283.24685148 -80.24072266 282.26025391 C-76.11914398 280.03190242 -76.11914398 280.03190242 -73.64453125 276.2421875 C-73.76960997 271.15818947 -73.76960997 271.15818947 -76.203125 266.8203125 C-77.55605724 265.67154508 -78.94520193 264.56466443 -80.359375 263.4921875 C-95.37286051 251.85111554 -104.72211768 232.17833916 -107.70703125 213.671875 C-107.83203125 210.109375 -107.83203125 210.109375 -107.70703125 207.671875 C-108.57328125 207.589375 -109.43953125 207.506875 -110.33203125 207.421875 C-115.08069374 206.36661667 -118.17874367 204.80815283 -121.06773376 200.76985168 C-124.99193797 193.74207667 -125.39428997 187.50317882 -125.29861641 179.54446983 C-125.27287915 177.38678483 -125.27809176 175.23097987 -125.29051208 173.07319641 C-125.3110967 168.50170828 -125.29163934 163.93082312 -125.26953125 159.359375 C-125.24836772 154.03967118 -125.24388294 148.72057942 -125.27003288 143.40088844 C-125.27338127 141.28168278 -125.25223056 139.16366631 -125.22962952 137.04460144 C-125.23499977 135.11152885 -125.23499977 135.11152885 -125.24047852 133.1394043 C-125.23427994 132.00818649 -125.22808136 130.87696869 -125.22169495 129.71147156 C-125.81290651 126.00879239 -127.20683128 124.40255034 -129.70703125 121.671875 C-131.29348482 118.49896787 -130.82781338 115.08362116 -130.8046875 111.6015625 C-130.80327255 110.80533478 -130.8018576 110.00910706 -130.80039978 109.18875122 C-130.7947947 106.6414212 -130.78224139 104.09417853 -130.76953125 101.546875 C-130.7645169 99.82161585 -130.75995388 98.09635533 -130.75585938 96.37109375 C-130.74482362 92.13798709 -130.72755561 87.90494586 -130.70703125 83.671875 C-131.68820923 83.59839844 -131.68820923 83.59839844 -132.68920898 83.5234375 C-139.79628734 82.94085922 -146.75225726 81.92544628 -153.76953125 80.671875 C-155.31543945 80.40503906 -155.31543945 80.40503906 -156.89257812 80.1328125 C-164.44211864 78.80433131 -164.44211864 78.80433131 -166.70703125 77.671875 C-166.70703125 89.221875 -166.70703125 100.771875 -166.70703125 112.671875 C-164.06703125 113.331875 -161.42703125 113.991875 -158.70703125 114.671875 C-156.6484375 116.328125 -156.6484375 116.328125 -155.26953125 118.171875 C-154.79644531 118.7803125 -154.32335937 119.38875 -153.8359375 120.015625 C-151.78555217 123.02380279 -151.58722068 124.89007851 -151.57080078 128.5 C-151.30908706 145.97030402 -148.83274419 162.53255149 -145.58203125 179.671875 C-144.85582648 183.52980759 -144.1353684 187.38842795 -143.431427 191.25048828 C-142.99851809 193.62372475 -142.55313569 195.9947347 -142.09274292 198.36279297 C-140.65135523 206.23720286 -139.71917816 213.69616881 -143.39453125 221.046875 C-146.44488684 224.5094408 -149.25405293 227.26599245 -153.97189331 228.04663086 C-156.69219016 228.20032551 -159.38481038 228.2262671 -162.109375 228.203125 C-163.10530167 228.2069519 -164.10122833 228.21077881 -165.12733459 228.21472168 C-167.22772231 228.21743633 -169.32814409 228.21010656 -171.4284668 228.19335938 C-174.63081862 228.1719666 -177.83092123 228.1931652 -181.03320312 228.21875 C-183.079432 228.2161062 -185.12565949 228.21098015 -187.171875 228.203125 C-188.12311752 228.21122192 -189.07436005 228.21931885 -190.0544281 228.22766113 C-196.13172199 228.14262079 -199.73326646 227.22299767 -204.70703125 223.671875 C-208.75958761 219.08608754 -209.6176926 214.64566656 -209.70703125 208.671875 C-209.26140346 204.33436735 -208.46547769 200.08276365 -207.65234375 195.80078125 C-207.19769713 193.2598049 -206.7432778 190.71878787 -206.2890625 188.17773438 C-205.57102218 184.23240871 -204.84220205 180.28913161 -204.10986328 176.34643555 C-201.36724124 161.48036995 -199.07752035 147.0466203 -199.15286255 131.8888092 C-199.11034667 124.17412757 -197.89545618 120.86029993 -192.39453125 115.359375 C-189.70703125 113.671875 -189.70703125 113.671875 -182.70703125 112.671875 C-182.70703125 99.471875 -182.70703125 86.271875 -182.70703125 72.671875 C-183.69703125 72.341875 -184.68703125 72.011875 -185.70703125 71.671875 C-189.10466079 67.4901771 -189.84740639 62.93594287 -189.70703125 57.671875 C-188.88700928 53.51319216 -187.51125046 50.54920505 -184.64453125 47.421875 C-177.30789591 43.05111352 -168.90753506 40.67133522 -160.79296875 38.15234375 C-159.73694962 37.82077271 -158.68093048 37.48920166 -157.59291077 37.14758301 C-155.29632717 36.4267886 -152.99921359 35.70768111 -150.70162964 34.99008179 C-145.05597315 33.22646565 -139.413648 31.45225879 -133.77142906 29.67768288 C-132.42627814 29.25464465 -131.0810844 28.83174253 -129.73584938 28.40897179 C-109.50658302 22.05081531 -89.31493237 15.57450209 -69.11914539 9.11099052 C-66.12546538 8.15298392 -63.131674 7.19532557 -60.13787651 6.23768616 C-57.46490729 5.38237137 -54.79226008 4.52605354 -52.11977673 3.66922188 C-50.2459546 3.0708325 -48.36991639 2.47939723 -46.49386597 1.88803101 C-43.85447127 1.04037962 -41.23757724 0.16764406 -38.62063599 -0.74325562 C-24.34886165 -5.62783182 -14.27109251 -4.78139625 0 0 Z M-34.5390625 14.9765625 C-35.61865234 15.32719254 -36.69824219 15.67782257 -37.81054688 16.03907776 C-40.15322326 16.80089848 -42.49461933 17.56666504 -44.83486938 18.33590698 C-50.49822216 20.19717386 -56.16926184 22.03474217 -61.83951378 23.87485313 C-63.81651355 24.51682737 -65.79315431 25.15989705 -67.76972961 25.80317688 C-80.45755063 29.92999567 -93.1750282 33.96077098 -105.90072632 37.96929932 C-109.49853643 39.10276075 -113.09564967 40.23841043 -116.69262695 41.37451172 C-127.13043505 44.66913079 -137.57276703 47.94735766 -148.03125 51.17578125 C-150.49605524 51.9394054 -152.96073097 52.70344626 -155.42538452 53.46755981 C-157.64096897 54.15148242 -159.85902749 54.82687114 -162.07739258 55.50170898 C-163.37072498 55.90179485 -164.66394628 56.30224014 -165.95703125 56.703125 C-167.0553125 57.03892578 -168.15359375 57.37472656 -169.28515625 57.72070312 C-171.85997665 58.42023337 -171.85997665 58.42023337 -172.70703125 60.671875 C-166.52077628 61.82621575 -160.33156911 62.9636064 -154.14013672 64.08984375 C-152.03885227 64.47406389 -149.9382453 64.8620101 -147.83837891 65.25390625 C-144.80155774 65.81997087 -141.76246688 66.3721187 -138.72265625 66.921875 C-137.80027161 67.09686523 -136.87788696 67.27185547 -135.92755127 67.45214844 C-123.66975616 69.63350654 -112.03014776 68.416014 -99.80057526 66.81991577 C-97.15600653 66.4756999 -94.51025818 66.14235167 -91.86395264 65.81176758 C-84.34728066 64.871211 -76.83268977 63.91482182 -69.31982422 62.94433594 C-43.55985684 59.62504395 -18.67658185 56.87584569 7.24536133 60.27099609 C9.4164214 60.55484405 11.58944051 60.81587994 13.76367188 61.07421875 C26.23712423 62.60996675 26.23712423 62.60996675 32.29296875 64.671875 C33.80231092 67.69055934 33.46807547 70.34484729 33.29296875 73.671875 C31.29296875 76.671875 31.29296875 76.671875 28.12719727 77.40795898 C24.22238238 77.67673357 20.81866025 77.43100254 16.9453125 76.89453125 C15.51890906 76.70876269 14.09247566 76.52322412 12.66601562 76.33789062 C10.47478866 76.0420786 8.28429484 75.74189921 6.09448242 75.43579102 C-20.10031077 71.81928951 -45.1164853 74.93133983 -71.17144775 78.24920654 C-75.00997583 78.73462656 -78.85010891 79.20658748 -82.69035053 79.67822933 C-87.27602945 80.24219598 -91.86068116 80.81431038 -96.4453125 81.38671875 C-97.7532801 81.5488149 -97.7532801 81.5488149 -99.08767128 81.71418571 C-101.5308121 82.01835467 -103.97313145 82.32838309 -106.4152832 82.64038086 C-107.1438855 82.73029297 -107.87248779 82.82020508 -108.62316895 82.9128418 C-111.95373246 83.10326738 -111.95373246 83.10326738 -114.70703125 84.671875 C-114.70703125 94.241875 -114.70703125 103.811875 -114.70703125 113.671875 C-52.66703125 113.671875 9.37296875 113.671875 73.29296875 113.671875 C73.29296875 104.101875 73.29296875 94.531875 73.29296875 84.671875 C70.8830013 82.26190755 64.98397765 82.80741065 61.7109375 82.46484375 C57.93659759 81.58919689 56.58995576 80.74019592 54.29296875 77.671875 C53.69754894 74.09935613 53.74570073 72.44352291 55.85546875 69.46875 C59.19512884 67.00682109 61.87228087 67.45049459 65.79296875 67.921875 C68.62742691 68.2008571 71.45343722 68.46048369 74.29296875 68.671875 C75.08155273 68.73439453 75.87013672 68.79691406 76.68261719 68.86132812 C87.78037657 69.30475476 98.69026411 66.69730539 109.54296875 64.671875 C111.6560738 64.28549347 113.769354 63.9000685 115.8828125 63.515625 C121.02160407 62.57873588 126.15810201 61.63002916 131.29296875 60.671875 C130.46187346 58.46189233 130.46187346 58.46189233 128.11122131 57.7754364 C127.14002853 57.47015518 126.16883575 57.16487396 125.16821289 56.8503418 C123.50220284 56.32043892 123.50220284 56.32043892 121.80253601 55.77983093 C120.57348038 55.39744766 119.34442474 55.01506439 118.078125 54.62109375 C116.77959494 54.2110756 115.48128539 53.80035855 114.18318176 53.38899231 C111.38218207 52.50294471 108.57973237 51.62170068 105.77606201 50.74414062 C101.33359526 49.35361698 96.8943242 47.95309238 92.45556641 46.55078125 C87.82516677 45.08849385 83.19451013 43.62704172 78.56268311 42.16928101 C67.62907178 38.72809933 56.70259091 35.26507865 45.78125 31.78515625 C44.66202872 31.4285772 44.66202872 31.4285772 43.52019691 31.06479454 C39.83367583 29.89021266 36.14725821 28.71530651 32.46090698 27.54019165 C28.24897252 26.19759165 24.03680637 24.85572045 19.82446289 23.5144043 C19.160078 23.30281835 18.49569311 23.0912324 17.81117535 22.87323475 C13.44650309 21.48363228 9.08036664 20.0986963 4.71386719 18.71484375 C0.83611341 17.48505277 -3.03624638 16.24156609 -6.90136719 14.97265625 C-7.64603241 14.73115845 -8.39069763 14.48966064 -9.15792847 14.24084473 C-10.99763864 13.64356945 -12.83468555 13.03810587 -14.67138672 12.43164062 C-21.97909572 10.60265635 -27.59462452 12.66917177 -34.5390625 14.9765625 Z M-182.70703125 128.671875 C-182.70703125 132.961875 -182.70703125 137.251875 -182.70703125 141.671875 C-177.75703125 141.671875 -172.80703125 141.671875 -167.70703125 141.671875 C-167.70703125 137.381875 -167.70703125 133.091875 -167.70703125 128.671875 C-172.65703125 128.671875 -177.60703125 128.671875 -182.70703125 128.671875 Z M-108.70703125 129.671875 C-108.70703125 137.591875 -108.70703125 145.511875 -108.70703125 153.671875 C-100.41605237 153.78912021 -100.41605237 153.78912021 -93.70703125 150.671875 C-90.85659757 146.92130437 -91.48620654 142.40104429 -91.58203125 137.921875 C-91.62328125 135.199375 -91.66453125 132.476875 -91.70703125 129.671875 C-97.31703125 129.671875 -102.92703125 129.671875 -108.70703125 129.671875 Z M-75.70703125 129.671875 C-76.03703125 135.941875 -76.36703125 142.211875 -76.70703125 148.671875 C-80.90908604 161.27803938 -80.90908604 161.27803938 -88.01953125 165.421875 C-94.65346627 168.59462653 -101.46336993 168.56563463 -108.70703125 168.671875 C-108.79406948 172.10921563 -108.84743397 175.54627337 -108.89453125 178.984375 C-108.91966797 179.96083984 -108.94480469 180.93730469 -108.97070312 181.94335938 C-108.98037109 182.88115234 -108.99003906 183.81894531 -109 184.78515625 C-109.01571045 185.64923096 -109.0314209 186.51330566 -109.04760742 187.40356445 C-108.63468379 190.15372462 -107.88410905 190.9998819 -105.70703125 192.671875 C-103.72188459 193.25070626 -101.78519041 193.5445216 -99.7421875 193.8515625 C-96.5640528 195.13257649 -95.50361586 196.75900247 -93.70703125 199.671875 C-92.79081932 202.81779322 -92.28567699 206.00198973 -91.76953125 209.234375 C-90.32518148 217.23240772 -88.45422918 224.39661352 -84.70703125 231.671875 C-84.26617187 232.5278125 -83.8253125 233.38375 -83.37109375 234.265625 C-73.89394781 251.23023983 -58.46789775 262.30917867 -40.4921875 268.83984375 C-21.47867829 274.05204126 -2.11022614 270.66673415 15.06640625 261.59375 C19.89191959 258.71947329 24.12637016 255.42631006 28.29296875 251.671875 C29.24429688 250.84236328 29.24429688 250.84236328 30.21484375 249.99609375 C42.61675769 238.49962928 48.90353158 221.68573422 51.23046875 205.296875 C51.97914486 200.7038065 52.50032169 197.68654318 56.29296875 194.671875 C58.59583102 193.74416221 60.87318688 192.99650032 63.26953125 192.34765625 C65.48868384 191.77395698 65.48868384 191.77395698 67.29296875 189.671875 C67.5703812 187.44152203 67.5703812 187.44152203 67.48828125 184.8828125 C67.48183594 183.94179687 67.47539062 183.00078125 67.46875 182.03125 C67.45199219 181.04640625 67.43523437 180.0615625 67.41796875 179.046875 C67.40894531 178.05429688 67.39992188 177.06171875 67.390625 176.0390625 C67.36700991 173.58309366 67.33407674 171.12760332 67.29296875 168.671875 C66.32617188 168.65769531 65.359375 168.64351562 64.36328125 168.62890625 C55.41812741 168.3012125 47.35385859 167.70877958 40.64453125 161.03125 C33.58008202 151.9658874 34.87918575 140.809998 34.29296875 129.671875 C-2.00703125 129.671875 -38.30703125 129.671875 -75.70703125 129.671875 Z M50.29296875 129.671875 C50.25171875 132.394375 50.21046875 135.116875 50.16796875 137.921875 C50.14976074 138.77297852 50.13155273 139.62408203 50.11279297 140.50097656 C49.99134178 145.908208 49.99134178 145.908208 52.29296875 150.671875 C58.06884448 153.90636541 59.93513526 153.671875 67.29296875 153.671875 C67.29296875 145.751875 67.29296875 137.831875 67.29296875 129.671875 C61.68296875 129.671875 56.07296875 129.671875 50.29296875 129.671875 Z M-184.70703125 157.671875 C-185.85384661 164.23594417 -186.99293863 170.80129011 -188.125 177.36791992 C-188.51091712 179.60005549 -188.89891525 181.83183234 -189.2890625 184.06323242 C-189.85057746 187.27690289 -190.40451263 190.49180341 -190.95703125 193.70703125 C-191.13202148 194.69896988 -191.30701172 195.69090851 -191.48730469 196.71290588 C-192.34795926 201.76641044 -193.01340361 206.5431843 -192.70703125 211.671875 C-191.00685122 213.37205503 -188.8813299 212.79989436 -186.61366272 212.81082153 C-185.54806374 212.80778519 -185.54806374 212.80778519 -184.4609375 212.8046875 C-183.73462631 212.80564423 -183.00831512 212.80660095 -182.25999451 212.80758667 C-180.72077345 212.80826844 -179.18154954 212.80641437 -177.64233398 212.80224609 C-175.28297468 212.79690543 -172.92380641 212.80218715 -170.56445312 212.80859375 C-169.07161416 212.80793282 -167.57877532 212.80665134 -166.0859375 212.8046875 C-165.37756241 212.80671173 -164.66918732 212.80873596 -163.93934631 212.81082153 C-160.19829943 212.84851873 -160.19829943 212.84851873 -156.70703125 211.671875 C-157.5049671 206.71352255 -158.30462247 201.75545119 -159.10571289 196.79760742 C-159.37666645 195.11929391 -159.64719079 193.44091103 -159.91723633 191.76245117 C-161.74892687 180.38004643 -163.67844958 169.02096706 -165.70703125 157.671875 C-171.97703125 157.671875 -178.24703125 157.671875 -184.70703125 157.671875 Z M-57.70703125 278.671875 C-58.07922375 286.99795905 -57.57625517 294.88548814 -56.33203125 303.109375 C-56.20594482 303.94887695 -56.0798584 304.78837891 -55.94995117 305.65332031 C-55.18370171 310.45444921 -54.14479046 315.02728763 -52.70703125 319.671875 C-51.57265625 319.98125 -50.43828125 320.290625 -49.26953125 320.609375 C-48.63144531 320.78339844 -47.99335938 320.95742188 -47.3359375 321.13671875 C-38.64201105 322.90650764 -29.91944586 322.86542162 -21.08203125 322.859375 C-20.41738861 322.85910309 -19.75274597 322.85883118 -19.06796265 322.85855103 C-3.54515282 323.64689802 -3.54515282 323.64689802 11.0546875 319.57421875 C12.96459791 316.64006617 13.36809357 313.44263637 13.91796875 310.046875 C14.04276611 309.32193848 14.16756348 308.59700195 14.29614258 307.85009766 C14.64363824 305.79279419 14.97230576 303.73350863 15.29296875 301.671875 C15.42832031 300.82625 15.56367188 299.980625 15.703125 299.109375 C16.61388929 292.33636734 16.38026522 285.4906992 16.29296875 278.671875 C15.33777344 279.00960938 14.38257813 279.34734375 13.3984375 279.6953125 C-10.53491382 288.02794112 -34.0073548 287.92376212 -57.70703125 278.671875 Z M-82.39453125 302.734375 C-87.85594831 306.43022344 -93.33337566 310.09308962 -98.875 313.66796875 C-99.9060083 314.33368896 -100.9370166 314.99940918 -101.99926758 315.68530273 C-104.02672362 316.99182129 -106.05645095 318.29482314 -108.08862305 319.59399414 C-109.02230713 320.19719482 -109.95599121 320.80039551 -110.91796875 321.421875 C-112.16006104 322.21851563 -112.16006104 322.21851563 -113.42724609 323.03125 C-115.77797031 324.7229256 -117.71909846 326.57150387 -119.70703125 328.671875 C-118.99611328 329.08735596 -118.28519531 329.50283691 -117.55273438 329.9309082 C-114.10351747 331.9476229 -110.65506838 333.96564403 -107.20703125 335.984375 C-106.56832092 336.35825348 -105.9296106 336.73213196 -105.27154541 337.11734009 C-97.51379664 341.6600911 -89.76755419 346.22136544 -82.04296875 350.8203125 C-80.97825348 351.45397987 -80.97825348 351.45397987 -79.89202881 352.10044861 C-76.45424273 354.14710481 -73.01805561 356.19638472 -69.58398438 358.24926758 C-62.37557807 362.54992715 -55.1178187 366.72630797 -47.70703125 370.671875 C-48.95610417 367.4077646 -50.34707859 364.37140587 -52.0625 361.328125 C-63.32597264 340.92044634 -68.96080067 320.55326374 -72.70703125 297.671875 C-76.39245955 297.671875 -79.42023873 300.70178239 -82.39453125 302.734375 Z M31.29296875 297.671875 C31.20321777 298.23358398 31.1134668 298.79529297 31.02099609 299.37402344 C27.04779691 323.76738826 20.87532611 348.20180528 6.29296875 368.671875 C6.62296875 369.331875 6.95296875 369.991875 7.29296875 370.671875 C14.51278206 366.44934948 21.73083029 362.2238158 28.9453125 357.9921875 C29.56402725 357.62960342 30.182742 357.26701935 30.82020569 356.89344788 C36.296129 353.68022422 41.74407114 350.42152397 47.1796875 347.140625 C53.34305866 343.42977223 59.54028063 339.77525083 65.73046875 336.109375 C66.35230042 335.74109589 66.97413208 335.37281677 67.61480713 334.99337769 C71.17386681 332.88565659 74.73327351 330.77852258 78.29296875 328.671875 C75.36563725 325.54610233 72.33689044 323.23312966 68.7421875 320.9140625 C67.65744141 320.21015381 66.57269531 319.50624512 65.45507812 318.78100586 C64.29695966 318.03616393 63.13875504 317.29145592 61.98046875 316.546875 C60.21396896 315.40460978 58.4484794 314.26079636 56.68313599 313.116745 C55.51753496 312.36140786 54.35158216 311.60661327 53.18527222 310.85237122 C47.90092414 307.43091797 42.67019593 303.93193053 37.4831543 300.36474609 C34.64473769 298.2912558 34.64473769 298.2912558 31.29296875 297.671875 Z M-45.70703125 337.671875 C-43.34487498 349.48265633 -35.28407356 360.12740541 -28.83203125 370.109375 C-28.1654248 371.14690918 -27.49881836 372.18444336 -26.81201172 373.25341797 C-26.18182129 374.21521973 -25.55163086 375.17702148 -24.90234375 376.16796875 C-24.33531738 377.03607178 -23.76829102 377.9041748 -23.18408203 378.79858398 C-22.69665527 379.41677002 -22.20922852 380.03495605 -21.70703125 380.671875 C-21.04703125 380.671875 -20.38703125 380.671875 -19.70703125 380.671875 C-17.92573746 378.18415359 -16.27015712 375.69679487 -14.64453125 373.109375 C-14.15718506 372.34375244 -13.66983887 371.57812988 -13.16772461 370.78930664 C-1.63912469 355.10722342 -1.63912469 355.10722342 4.29296875 337.671875 C-12.20703125 337.671875 -28.70703125 337.671875 -45.70703125 337.671875 Z " fill="#000000" transform="translate(276.70703125,4.328125)"/>
</svg>
