<?xml version="1.0" encoding="UTF-8"?>
<svg version="1.1" xmlns="http://www.w3.org/2000/svg" width="512" height="512">
<path d="M0 0 C7.22442554 7.27093472 10.09430485 16.37646811 10.1953125 26.45703125 C10.14553358 37.73588606 7.08794221 50.56440154 -1.1796875 58.83203125 C-0.12225342 59.11868652 -0.12225342 59.11868652 0.95654297 59.41113281 C4.20449245 60.29534117 7.44988127 61.18862602 10.6953125 62.08203125 C11.80390625 62.38238281 12.9125 62.68273437 14.0546875 62.9921875 C38.51573781 69.75494847 38.51573781 69.75494847 45.078125 80.984375 C47.99623867 88.36465278 47.95146896 95.91188257 47.8828125 103.70703125 C47.87830078 104.6815625 47.87378906 105.65609375 47.86914062 106.66015625 C47.85742156 109.05084559 47.84101469 111.44140565 47.8203125 113.83203125 C48.39966553 113.69055664 48.97901855 113.54908203 49.57592773 113.40332031 C58.94623523 111.20218295 67.56379348 110.98387155 76.8203125 113.83203125 C76.79710937 113.24679687 76.77390625 112.6615625 76.75 112.05859375 C76.62009956 105.87904421 76.97312397 99.79012107 77.5703125 93.64453125 C77.6628833 92.52328857 77.6628833 92.52328857 77.75732422 91.37939453 C78.4864504 84.50196108 80.75654377 78.65597601 85.6953125 73.70703125 C95.99198962 65.69126362 113.70567422 59.83203125 126.8203125 59.83203125 C126.36140625 59.16558594 125.9025 58.49914062 125.4296875 57.8125 C117.36531495 45.69899922 113.2896283 33.84049373 115.4453125 19.14453125 C117.69665111 9.0208648 122.25646447 1.77457323 130.8203125 -4.16796875 C140.55015904 -9.83823405 152.53997575 -10.28612249 163.359375 -7.890625 C171.26144735 -5.57017518 178.28023688 -1.43575347 182.5546875 5.74609375 C188.58526419 17.54879384 189.8802692 29.81170464 186.2578125 42.70703125 C184.05419628 49.01557876 180.68648571 54.41287273 176.8203125 59.83203125 C177.95984375 59.95191406 179.099375 60.07179688 180.2734375 60.1953125 C194.03817002 61.92952352 209.38825768 66.40673048 219.8203125 75.83203125 C221.3671875 78.19921875 221.3671875 78.19921875 222.5703125 80.70703125 C223.18132812 81.94066406 223.18132812 81.94066406 223.8046875 83.19921875 C226.27260141 89.59681095 226.11631409 96.43535044 226.3828125 103.20703125 C226.42599609 104.22925781 226.46917969 105.25148438 226.51367188 106.3046875 C226.61919042 108.81368413 226.72130463 111.32277068 226.8203125 113.83203125 C227.84640625 113.50847656 228.8725 113.18492187 229.9296875 112.8515625 C239.94725796 110.00486095 251.06013401 111.40388386 260.29296875 116.0859375 C268.33836678 121.01525482 273.18196699 127.72431925 276.125 136.65234375 C278.70860732 148.46726709 277.30104333 161.01030661 271.25390625 171.56640625 C269.83721872 173.71021291 268.35309747 175.77102499 266.8203125 177.83203125 C266.4903125 178.49203125 266.1603125 179.15203125 265.8203125 179.83203125 C266.45420898 179.98760498 267.08810547 180.14317871 267.74121094 180.3034668 C303.78029271 189.22160136 303.78029271 189.22160136 310.3828125 199.19140625 C315.34700291 208.49926327 315.00025861 217.59581636 315.05859375 227.9453125 C315.06266928 228.62146292 315.0667448 229.29761333 315.07094383 229.99425316 C315.09170715 233.57193051 315.10605174 237.1495706 315.11547852 240.72729492 C315.12653627 244.39542483 315.16095614 248.06294711 315.20065022 251.73086262 C315.2269543 254.5767062 315.23518232 257.42240763 315.23875999 260.26836205 C315.24591424 262.27008634 315.27228457 264.27171284 315.29914856 266.27326965 C315.27661402 275.80879218 314.03999283 283.52756259 307.5078125 290.76953125 C301.19593902 296.98970681 294.15695049 297.27309666 285.77954102 297.23608398 C284.14405304 297.24637886 284.14405304 297.24637886 282.4755249 297.25688171 C278.88328914 297.27513316 275.29149079 297.27131444 271.69921875 297.265625 C269.19489907 297.27018751 266.69058065 297.27549329 264.18626404 297.2815094 C258.94176269 297.29043722 253.69737424 297.2882558 248.45288086 297.27807617 C242.40597027 297.2665978 236.35950336 297.28067165 230.31265122 297.30747265 C224.47616686 297.33236462 218.6398542 297.3347969 212.80332756 297.32835579 C210.328656 297.32820264 207.85397587 297.33424202 205.3793354 297.34664726 C201.91604961 297.3615632 198.45373443 297.35087447 194.99047852 297.33374023 C193.97360458 297.3434082 192.95673065 297.35307617 191.90904236 297.36303711 C184.72767302 297.28882884 179.38027002 295.83246696 173.83203125 291.15625 C163.60366798 278.51411369 165.63377791 262.54114138 165.63500977 247.09741211 C165.63282483 244.03680471 165.61461812 240.97655952 165.59570312 237.91601562 C165.50050895 205.08301358 165.50050895 205.08301358 173.4375 195.9765625 C184.22634644 185.47870155 200.74680067 183.28601592 214.8203125 179.83203125 C214.1603125 178.51203125 213.5003125 177.19203125 212.8203125 175.83203125 C211.7171167 175.99436249 210.6139209 176.15669373 209.47729492 176.32394409 C204.41514067 176.95264189 199.40380429 176.97228424 194.30859375 176.96142578 C192.77529922 176.96405426 192.77529922 176.96405426 191.21102905 176.96673584 C187.85160597 176.9711162 184.49223607 176.96822982 181.1328125 176.96484375 C178.78686513 176.96551788 176.44091783 176.96648883 174.0949707 176.96774292 C169.18602837 176.96921472 164.27710427 176.96708195 159.36816406 176.96240234 C153.08706714 176.95670539 146.80601296 176.95998716 140.5249176 176.96597481 C135.68298014 176.96959436 130.84105276 176.96843541 125.99911499 176.96584702 C123.68354284 176.96518161 121.36796976 176.96599263 119.05239868 176.96832657 C115.81225168 176.97087598 112.57217317 176.96698026 109.33203125 176.96142578 C107.90725967 176.96446213 107.90725967 176.96446213 106.45370483 176.96755981 C101.15108626 176.95078449 96.06789996 176.6041946 90.8203125 175.83203125 C90.1603125 177.15203125 89.5003125 178.47203125 88.8203125 179.83203125 C89.4186792 179.98760498 90.0170459 180.14317871 90.63354492 180.3034668 C124.91267296 189.27404434 124.91267296 189.27404434 131.8203125 197.83203125 C143.05304651 217.24298388 138.40763968 248.07172796 137.5078125 269.76953125 C137.48541504 270.48866699 137.46301758 271.20780273 137.43994141 271.94873047 C137.08050874 278.72915937 135.10181692 285.36395061 130.43979645 290.4603529 C123.55045668 296.29551924 116.22486293 297.5693519 107.47070312 297.49487305 C106.38315231 297.50524094 105.2956015 297.51560883 104.1750946 297.52629089 C100.60852459 297.55321944 97.04319639 297.54372907 93.4765625 297.53125 C90.98131978 297.53716418 88.48607991 297.5444131 85.99084473 297.55293274 C80.10617271 297.56630221 74.22194139 297.5532803 68.33730745 297.53137761 C63.65935458 297.51668435 58.9820724 297.53014355 54.30419922 297.55932617 C47.82803025 297.59927446 41.35254104 297.60966718 34.87626648 297.59598732 C32.41719913 297.59450526 29.95810806 297.60213678 27.49909973 297.6192379 C24.0552649 297.63930384 20.61365586 297.62073532 17.16992188 297.5925293 C16.16495163 297.60624573 15.15998138 297.61996216 14.1245575 297.63409424 C6.70902065 297.51332053 1.72041835 295.3013579 -4.1796875 290.83203125 C-6.43359375 288.41796875 -6.43359375 288.41796875 -7.7421875 286.20703125 C-8.19722656 285.47226562 -8.65226563 284.7375 -9.12109375 283.98046875 C-17.89211904 266.17949492 -14.61957991 224.00519397 -10.0546875 205.26953125 C-7.15202071 197.10317684 -1.62898034 192.70613725 5.95581055 189.04760742 C10.90234087 186.94850451 16.01670473 185.54960468 21.1953125 184.14453125 C23.30824426 183.56072846 25.42026678 182.97362227 27.53125 182.3828125 C28.45212402 182.13184814 29.37299805 181.88088379 30.32177734 181.62231445 C32.6464635 180.88701945 34.6798869 179.98988944 36.8203125 178.83203125 C35.5003125 177.51203125 34.1803125 176.19203125 32.8203125 174.83203125 C32.04243378 175.15702103 31.26455505 175.4820108 30.46310425 175.81684875 C25.74245361 177.13241171 21.41183235 177.10358302 16.53564453 177.07495117 C15.51374023 177.07684952 14.49183594 177.07874786 13.43896484 177.08070374 C10.06860626 177.08440128 6.69846437 177.07371966 3.328125 177.0625 C0.97931951 177.06130725 -1.36948646 177.06085524 -3.71829224 177.06111145 C-8.63921092 177.05954821 -13.56005669 177.05127202 -18.48095703 177.0378418 C-24.77781072 177.02087106 -31.07458418 177.01702709 -37.37145805 177.01778698 C-42.22198243 177.01751453 -47.07248939 177.01202105 -51.92300797 177.00478554 C-54.2441609 177.00161081 -56.56531581 176.99963426 -58.88647079 176.99889183 C-62.13642457 176.99671451 -65.38629478 176.98793972 -68.63623047 176.97729492 C-69.58922028 176.97774811 -70.54221008 176.97820129 -71.52407837 176.97866821 C-76.83242537 176.95335023 -81.92628537 176.60394964 -87.1796875 175.83203125 C-87.8396875 177.15203125 -88.4996875 178.47203125 -89.1796875 179.83203125 C-88.45491211 180.01266113 -87.73013672 180.19329102 -86.98339844 180.37939453 C-83.62837278 181.22428884 -80.27919455 182.09052834 -76.9296875 182.95703125 C-75.79015625 183.240625 -74.650625 183.52421875 -73.4765625 183.81640625 C-62.18230328 186.76831491 -50.6709121 190.4955651 -44.1796875 200.83203125 C-38.16653132 212.79128239 -40.02187106 228.30144023 -40.04931641 241.30419922 C-40.05467546 244.32524636 -40.04934536 247.34614487 -40.04296875 250.3671875 C-40.02762494 282.06195327 -40.02762494 282.06195327 -47.890625 290.71484375 C-52.43058527 294.81865063 -56.79287661 297.07396316 -63.01704407 297.09945679 C-63.96315552 297.10798676 -64.90926697 297.11651672 -65.88404846 297.12530518 C-66.91013718 297.1243988 -67.93622589 297.12349243 -68.9934082 297.12255859 C-70.6284581 297.13263443 -70.6284581 297.13263443 -72.29653931 297.14291382 C-75.89956218 297.16190951 -79.50239892 297.16581891 -83.10546875 297.16796875 C-85.61264625 297.17439578 -88.11982299 297.18112407 -90.6269989 297.18814087 C-95.88342494 297.20011771 -101.13980383 297.20390699 -106.39624023 297.20263672 C-112.45785961 297.20143622 -118.51912239 297.22252314 -124.58065158 297.25412405 C-130.42672414 297.28350756 -136.27265646 297.29061065 -142.11879539 297.28941727 C-144.59905643 297.29177461 -147.07932021 297.30060554 -149.55953407 297.316082 C-153.03258282 297.33572362 -156.5047191 297.32991005 -159.9777832 297.31787109 C-160.99779922 297.32911011 -162.01781525 297.34034912 -163.06874084 297.35192871 C-170.81049472 297.28389249 -175.99959047 295.50620375 -181.9296875 290.51953125 C-187.17729882 284.25155106 -189.29674988 278.79085828 -189.32495117 270.64575195 C-189.33452095 268.76778679 -189.33452095 268.76778679 -189.34428406 266.85188293 C-189.34581344 265.48719318 -189.34692702 264.12250291 -189.34765625 262.7578125 C-189.35087241 261.35019395 -189.35423675 259.94257574 -189.35774231 258.53495789 C-189.36372665 255.58360012 -189.36558306 252.6322716 -189.36499023 249.6809082 C-189.36488897 245.91974587 -189.37850741 242.15877383 -189.39576244 238.39765644 C-189.40694712 235.48836934 -189.40890742 232.57912718 -189.40838051 229.66982079 C-189.4095522 228.28450048 -189.41392785 226.8991787 -189.42171288 225.51387978 C-189.48034224 213.99782264 -189.23733793 203.76992921 -181.1796875 194.83203125 C-170.49422007 185.74517706 -153.61017088 182.53711094 -140.1796875 179.83203125 C-140.63859375 179.18878906 -141.0975 178.54554688 -141.5703125 177.8828125 C-149.72385708 165.87517647 -152.6191106 154.13813432 -151.1796875 139.83203125 C-149.16072385 130.5992424 -144.6479551 123.09730479 -136.9921875 117.51953125 C-128.03569012 112.03199446 -116.56188011 109.82055725 -106.23242188 112.29931641 C-104.5394227 112.78041743 -102.85824421 113.30273761 -101.1796875 113.83203125 C-101.20289062 112.91164063 -101.22609375 111.99125 -101.25 111.04296875 C-101.63746693 83.86493099 -101.63746693 83.86493099 -93.64453125 75.16015625 C-86.14492471 68.25846823 -77.05633604 65.69321764 -67.4296875 63.08203125 C-66.30691406 62.76621094 -65.18414062 62.45039063 -64.02734375 62.125 C-55.71905438 59.83203125 -55.71905438 59.83203125 -51.1796875 59.83203125 C-51.63859375 59.16558594 -52.0975 58.49914062 -52.5703125 57.8125 C-60.45848023 45.96367662 -65.22088078 33.38807826 -62.68359375 19.0234375 C-60.24217127 9.07843408 -55.70478262 1.6837516 -47.1796875 -4.16796875 C-32.00397504 -12.0174752 -13.45953463 -10.7621785 0 0 Z M-42.0546875 11.20703125 C-47.19986598 17.56283997 -48.71638743 22.64735725 -48.1796875 30.83203125 C-46.46988681 39.56940258 -42.7880045 47.63195983 -35.3671875 52.89453125 C-30.98940269 55.28772028 -27.06427233 55.87567284 -22.1796875 54.83203125 C-14.54274218 51.78842233 -9.59372618 45.44029919 -6.3046875 38.08203125 C-4.2146944 31.77473066 -3.95602505 24.11946203 -6.4296875 17.89453125 C-10.07278262 11.51911479 -13.41639137 8.17552503 -20.6171875 6.14453125 C-28.64023802 5.16611046 -35.70649555 5.96287268 -42.0546875 11.20703125 Z M134.8203125 12.26953125 C130.28019119 18.15447522 129.35279703 24.68153283 130.171875 31.953125 C131.85656355 39.91987509 135.13820286 47.54722852 142.0078125 52.33203125 C146.62637304 54.79526354 150.65062431 55.34505374 155.8203125 54.83203125 C162.47520358 52.65900559 166.7166904 47.4470534 170.15234375 41.54296875 C173.50436599 34.27038339 174.34461458 26.15852504 172.125 18.40234375 C169.80684223 13.24005965 166.28184954 9.1543384 160.8671875 7.0859375 C151.74899205 4.56277273 141.7719436 5.28887455 134.8203125 12.26953125 Z M-45.8671875 73.01953125 C-47.21028054 73.34157742 -48.55337953 73.66359878 -49.89648438 73.9855957 C-68.65880511 77.69319056 -68.65880511 77.69319056 -83.9921875 88.01953125 C-87.0911623 95.35920841 -86.45117952 104.47483424 -86.5546875 112.33203125 C-86.59207031 113.40839844 -86.62945312 114.48476563 -86.66796875 115.59375 C-86.74007525 122.17146502 -85.91186747 126.38973612 -82.36425781 131.95068359 C-77.2049314 140.1447828 -79.00433569 151.76503161 -80.1796875 160.83203125 C-78.1996875 161.16203125 -76.2196875 161.49203125 -74.1796875 161.83203125 C-74.15986816 160.5702002 -74.14004883 159.30836914 -74.11962891 158.00830078 C-74.04369985 153.33784633 -73.95496338 148.66770865 -73.86230469 143.99755859 C-73.82396229 141.97418459 -73.78911879 139.95074119 -73.7578125 137.92724609 C-73.71227581 135.02285922 -73.65426341 132.11895231 -73.59375 129.21484375 C-73.58219879 128.30646759 -73.57064758 127.39809143 -73.55874634 126.46218872 C-73.53887665 125.6214682 -73.51900696 124.78074768 -73.49853516 123.91455078 C-73.48521149 123.17286652 -73.47188782 122.43118225 -73.4581604 121.66702271 C-73.1796875 119.83203125 -73.1796875 119.83203125 -71.1796875 117.83203125 C-65.49620126 117.29074685 -65.49620126 117.29074685 -63.1796875 117.83203125 C-60.47943966 120.30525611 -59.95852887 122.43915584 -59.74731445 125.95800781 C-59.70625475 127.62926222 -59.68034767 129.30094337 -59.66796875 130.97265625 C-59.65133179 131.75495605 -59.63469482 132.53725586 -59.61755371 133.34326172 C-59.55987046 136.2559135 -59.52753066 139.16902274 -59.4921875 142.08203125 C-59.3890625 148.59953125 -59.2859375 155.11703125 -59.1796875 161.83203125 C-37.3996875 161.83203125 -15.6196875 161.83203125 6.8203125 161.83203125 C7.069887 148.47418146 7.069887 148.47418146 7.29833984 135.1159668 C7.33354393 133.44187825 7.36946498 131.76780456 7.40625 130.09375 C7.41760986 129.22383423 7.42896973 128.35391846 7.44067383 127.4576416 C7.46073486 126.62559204 7.4807959 125.79354248 7.50146484 124.9362793 C7.51478851 124.21458054 7.52811218 123.49288177 7.5418396 122.74931335 C7.8203125 120.83203125 7.8203125 120.83203125 9.8203125 117.83203125 C15.36885619 117.2155264 15.36885619 117.2155264 17.8203125 117.83203125 C20.51893258 120.30749143 21.0414282 122.43822252 21.25268555 125.95800781 C21.29400946 127.62925571 21.3195274 129.3009443 21.33203125 130.97265625 C21.34998245 131.85483826 21.36793365 132.73702026 21.38642883 133.64593506 C21.44052221 136.4579188 21.47442426 139.2697329 21.5078125 142.08203125 C21.54098645 143.99090902 21.57547618 145.8997644 21.61132812 147.80859375 C21.69624811 152.4829505 21.76306391 157.15725701 21.8203125 161.83203125 C23.4703125 161.50203125 25.1203125 161.17203125 26.8203125 160.83203125 C27.75347227 158.03255194 27.90083072 156.62690944 27.77734375 153.76953125 C27.49581078 144.44766179 27.32206738 136.32269474 31.8203125 127.83203125 C32.1503125 127.50203125 32.4803125 127.17203125 32.8203125 126.83203125 C32.94612914 124.47716307 33.00895703 122.1532627 33.0234375 119.796875 C33.02913757 119.08479385 33.03483765 118.37271271 33.04071045 117.63905334 C33.05017978 116.12502535 33.05670207 114.61097656 33.06054688 113.09692383 C33.07017136 110.80316777 33.10113989 108.51033923 33.1328125 106.21679688 C33.36491876 95.61979766 33.36491876 95.61979766 29.8203125 85.83203125 C25.44995664 81.98611809 20.50334874 80.51792611 15.0078125 78.95703125 C14.15268066 78.70872559 13.29754883 78.46041992 12.41650391 78.20458984 C5.21223562 76.15156002 -2.03565798 74.26603391 -9.3046875 72.45703125 C-10.33440674 72.19422363 -11.36412598 71.93141602 -12.42504883 71.66064453 C-24.43759291 68.7614342 -33.93121071 70.09575052 -45.8671875 73.01953125 Z M130.91699219 73.40258789 C128.46129444 74.01554208 126.00091368 74.60567106 123.5390625 75.19335938 C106.66322528 78.60072126 106.66322528 78.60072126 93.8203125 88.83203125 C90.23433163 99.58997387 89.46926185 117.37147701 92.90234375 128.265625 C94.17950668 130.85312343 94.17950668 130.85312343 95.62890625 132.9921875 C97.8947387 136.49122712 97.94173286 139.94772964 97.91796875 144.03515625 C97.91474609 145.01484375 97.91152344 145.99453125 97.90820312 147.00390625 C97.89982422 148.0196875 97.89144531 149.03546875 97.8828125 150.08203125 C97.87830078 151.11328125 97.87378906 152.14453125 97.86914062 153.20703125 C97.85737338 155.74875698 97.84093261 158.29036444 97.8203125 160.83203125 C99.8003125 161.16203125 101.7803125 161.49203125 103.8203125 161.83203125 C103.83489502 160.60572998 103.84947754 159.37942871 103.86450195 158.1159668 C103.92243333 153.57025859 103.99966631 149.02504844 104.08276367 144.47973633 C104.11603736 142.51171954 104.14406165 140.54360676 104.16674805 138.57543945 C104.20024928 135.74779313 104.25256213 132.92102843 104.30859375 130.09375 C104.31498367 129.21240891 104.3213736 128.33106781 104.32795715 127.42301941 C104.34775131 126.60239517 104.36754547 125.78177094 104.38793945 124.9362793 C104.39904251 124.21458054 104.41014557 123.49288177 104.42158508 122.74931335 C104.93516664 120.27975475 105.85422405 119.36876435 107.8203125 117.83203125 C110.08203125 117.5390625 110.08203125 117.5390625 112.5078125 117.64453125 C113.72017578 117.68513672 113.72017578 117.68513672 114.95703125 117.7265625 C115.57191406 117.76136719 116.18679688 117.79617188 116.8203125 117.83203125 C117.59221037 120.59236336 117.9622183 123.0952074 118.02563477 125.95800781 C118.04581665 126.76963379 118.06599854 127.58125977 118.08679199 128.41748047 C118.10326782 129.26068848 118.11974365 130.10389648 118.13671875 130.97265625 C118.15536987 131.75495605 118.174021 132.53725586 118.1932373 133.34326172 C118.26136089 136.25607373 118.32162054 139.16906538 118.3828125 142.08203125 C118.5271875 148.59953125 118.6715625 155.11703125 118.8203125 161.83203125 C140.6003125 161.83203125 162.3803125 161.83203125 184.8203125 161.83203125 C185.03032584 148.47421694 185.03032584 148.47421694 185.20825195 135.1159668 C185.24053565 133.44187169 185.27390848 131.76779707 185.30859375 130.09375 C185.31795959 128.78887634 185.31795959 128.78887634 185.32751465 127.4576416 C185.34745483 126.62559204 185.36739502 125.79354248 185.38793945 124.9362793 C185.39904251 124.21458054 185.41014557 123.49288177 185.42158508 122.74931335 C185.93516664 120.27975475 186.85422405 119.36876435 188.8203125 117.83203125 C191.08203125 117.5390625 191.08203125 117.5390625 193.5078125 117.64453125 C194.72017578 117.68513672 194.72017578 117.68513672 195.95703125 117.7265625 C196.57191406 117.76136719 197.18679688 117.79617188 197.8203125 117.83203125 C198.59221037 120.59236336 198.9622183 123.0952074 199.02563477 125.95800781 C199.0555526 127.15879974 199.0555526 127.15879974 199.08607483 128.3838501 C199.10278732 129.23815613 199.11949982 130.09246216 199.13671875 130.97265625 C199.15749985 131.85483826 199.17828094 132.73702026 199.19969177 133.64593506 C199.26496117 136.45788956 199.32396697 139.2699357 199.3828125 142.08203125 C199.42601923 143.99089481 199.46963421 145.89974918 199.51367188 147.80859375 C199.62061937 152.48297951 199.72195035 157.15745727 199.8203125 161.83203125 C201.8003125 161.50203125 203.7803125 161.17203125 205.8203125 160.83203125 C205.6553125 159.69765625 205.4903125 158.56328125 205.3203125 157.39453125 C204.16298152 147.67635491 204.1036098 136.77754467 210.0078125 128.45703125 C212.97247211 123.73846996 212.18425965 118.28296441 211.91894531 112.91503906 C211.8124652 110.66630569 211.74942009 108.41834815 211.6875 106.16796875 C211.62974024 104.57674394 211.56987002 102.98559424 211.5078125 101.39453125 C211.48565674 100.64969482 211.46350098 99.9048584 211.44067383 99.13745117 C211.19222557 94.16011134 210.33434292 90.24364539 207.8203125 85.83203125 C203.38292928 82.03231644 198.52331007 80.52359572 193.0078125 78.95703125 C192.15268066 78.70872559 191.29754883 78.46041992 190.41650391 78.20458984 C183.21223562 76.15156002 175.96434202 74.26603391 168.6953125 72.45703125 C167.66559326 72.19422363 166.63587402 71.93141602 165.57495117 71.66064453 C153.05951833 68.64006272 143.2037405 70.32601931 130.91699219 73.40258789 Z M-131.5546875 133.20703125 C-136.89508269 139.74081084 -136.93628614 146.70805336 -136.1796875 154.83203125 C-134.34492858 162.36913751 -130.60125261 168.53491589 -124.3671875 173.18359375 C-119.88337079 175.84133994 -115.8525671 176.47620259 -110.70703125 175.69921875 C-104.70511181 173.63982754 -100.09230958 168.67313689 -96.7421875 163.39453125 C-93.31326595 155.57659012 -92.27920024 148.25379833 -94.1796875 139.83203125 C-96.68076654 133.62603431 -100.17285789 130.56240835 -106.1796875 127.83203125 C-115.15023715 125.10980743 -125.0990492 126.04969314 -131.5546875 133.20703125 Z M44.8203125 134.83203125 C40.80329232 141.66096556 40.87597188 148.09927489 41.8203125 155.83203125 C44.67218336 164.72137339 49.32474921 170.50576926 57.1953125 175.26953125 C62.56085833 176.41929107 67.2262266 175.6597297 72.0703125 173.14453125 C78.86294275 167.43254672 83.31958114 161.10640155 84.171875 152.12890625 C84.3473388 143.99376635 83.89636611 138.61118283 78.6328125 132.14453125 C73.05254981 127.55631526 67.44220289 126.29373866 60.27734375 126.546875 C53.65795053 127.31510347 49.07930282 129.59955743 44.8203125 134.83203125 Z M222.8203125 133.83203125 C218.9517556 140.32568033 217.84096824 146.75272034 219.28125 154.22265625 C220.91324371 160.48183213 223.49296074 165.04748999 227.8203125 169.83203125 C228.27277344 170.35023438 228.72523438 170.8684375 229.19140625 171.40234375 C232.7951238 174.9754348 236.41518802 175.78155211 241.296875 176.0234375 C247.06796925 175.58569196 251.15679839 172.83578864 255.0703125 168.70703125 C261.34917914 160.60969503 263.08695027 151.93928368 261.8203125 141.83203125 C260.11591541 135.87621671 256.87353079 132.26821969 251.8203125 128.83203125 C242.19213365 124.23676407 230.32314701 126.32919674 222.8203125 133.83203125 Z M-136.88208008 194.40258789 C-139.23796985 195.01842874 -141.59937166 195.60756339 -143.96289062 196.19335938 C-160.61828547 199.66062883 -160.61828547 199.66062883 -173.1796875 209.83203125 C-174.14053333 213.51624642 -174.32063091 217.01493161 -174.35668945 220.81225586 C-174.36952469 221.99375717 -174.38235992 223.17525848 -174.39558411 224.39256287 C-174.40297104 225.66036087 -174.41035797 226.92815887 -174.41796875 228.234375 C-174.4260405 229.54483292 -174.43411224 230.85529083 -174.44242859 232.20545959 C-174.45741022 234.97510648 -174.46727123 237.74472813 -174.47485352 240.5144043 C-174.48593214 244.05295823 -174.52036733 247.59088583 -174.56002522 251.1292181 C-174.5925204 254.51841156 -174.59697065 257.90753784 -174.60546875 261.296875 C-174.62297684 262.56264877 -174.64048492 263.82842255 -174.65852356 265.1325531 C-174.79599383 272.09297283 -174.79599383 272.09297283 -172.59057617 278.55297852 C-169.62366739 281.35764621 -167.15026088 282.06845945 -163.1796875 282.83203125 C-163.15463135 281.63602295 -163.1295752 280.44001465 -163.10375977 279.20776367 C-163.00964898 274.7740593 -162.90943714 270.34051025 -162.80737305 265.90698242 C-162.7640381 263.987423 -162.72236198 262.0678254 -162.68237305 260.14819336 C-162.62463572 257.39034511 -162.56095115 254.63268884 -162.49609375 251.875 C-162.47938126 251.01553268 -162.46266876 250.15606537 -162.44544983 249.27055359 C-162.42550461 248.4699501 -162.40555939 247.66934662 -162.38500977 246.84448242 C-162.36946548 246.14054855 -162.3539212 245.43661469 -162.33790588 244.71134949 C-162.1796875 242.83203125 -162.1796875 242.83203125 -161.1796875 239.83203125 C-158.58978734 237.91358668 -157.30486323 237.82201719 -154.0546875 238.08203125 C-151.1796875 238.83203125 -151.1796875 238.83203125 -149.1796875 240.83203125 C-148.9012146 242.66702271 -148.9012146 242.66702271 -148.86083984 244.91455078 C-148.83074829 246.1932605 -148.83074829 246.1932605 -148.80004883 247.49780273 C-148.78300903 248.84273804 -148.78300903 248.84273804 -148.765625 250.21484375 C-148.74798096 251.03847412 -148.73033691 251.86210449 -148.7121582 252.71069336 C-148.64900774 255.792606 -148.60287872 258.8748484 -148.5546875 261.95703125 C-148.4309375 268.84578125 -148.3071875 275.73453125 -148.1796875 282.83203125 C-126.3996875 282.83203125 -104.6196875 282.83203125 -82.1796875 282.83203125 C-81.89055934 269.80320959 -81.89055934 269.80320959 -81.61157227 256.77416992 C-81.57344715 255.14110466 -81.53497783 253.50804737 -81.49609375 251.875 C-81.47961792 251.02667603 -81.46314209 250.17835205 -81.44616699 249.30432129 C-81.42598511 248.49257446 -81.40580322 247.68082764 -81.38500977 246.84448242 C-81.36946548 246.14054855 -81.3539212 245.43661469 -81.33790588 244.71134949 C-81.1796875 242.83203125 -81.1796875 242.83203125 -80.1796875 239.83203125 C-77.58978734 237.91358668 -76.30486323 237.82201719 -73.0546875 238.08203125 C-70.1796875 238.83203125 -70.1796875 238.83203125 -68.1796875 240.83203125 C-67.9012146 242.66702271 -67.9012146 242.66702271 -67.86083984 244.91455078 C-67.84097015 245.7552713 -67.82110046 246.59599182 -67.80062866 247.46218872 C-67.78907745 248.37056488 -67.77752625 249.27894104 -67.765625 250.21484375 C-67.74625885 251.14424774 -67.7268927 252.07365173 -67.7069397 253.03121948 C-67.64705065 256.00639605 -67.6007214 258.98161113 -67.5546875 261.95703125 C-67.51651629 263.97137125 -67.47746507 265.98569479 -67.4375 268 C-67.3413415 272.943877 -67.2573451 277.88783042 -67.1796875 282.83203125 C-62.11933356 281.5913354 -62.11933356 281.5913354 -57.8046875 278.83203125 C-54.15670031 272.09728567 -55.02133078 263.2025837 -55.01171875 255.6875 C-55.00839035 254.75585526 -55.00506195 253.82421051 -55.00163269 252.86433411 C-54.99660608 250.90720101 -54.99422303 248.95005947 -54.99438477 246.99291992 C-54.99220074 244.03745054 -54.97400569 241.08235664 -54.95507812 238.12695312 C-53.93762881 221.234732 -53.93762881 221.234732 -59.36669922 206.15185547 C-67.40172704 199.5255029 -80.16462517 197.54980198 -90.19360352 195.03686523 C-92.24881442 194.51785774 -94.29685526 193.97515274 -96.34570312 193.43164062 C-110.77215353 189.70821455 -122.64871954 190.67300657 -136.88208008 194.40258789 Z M41.08349609 194.45751953 C38.69624255 195.08178804 36.30408171 195.68313603 33.91015625 196.28125 C18.64660307 199.62841237 18.64660307 199.62841237 5.8203125 207.83203125 C-2.28100429 224.44264482 0.70250319 256.95817789 3.8203125 274.83203125 C5.48225597 278.35318151 6.75434617 280.30164776 10.4453125 281.64453125 C13.38122824 282.88734895 13.38122824 282.88734895 14.8203125 282.83203125 C14.8500415 280.99257935 14.8500415 280.99257935 14.88037109 279.1159668 C14.95638869 274.57034617 15.04511197 270.02504726 15.13769531 265.47973633 C15.17600097 263.51170194 15.21085105 261.54359715 15.2421875 259.57543945 C15.28780361 256.74795353 15.34580348 253.92095291 15.40625 251.09375 C15.41780121 250.21240891 15.42935242 249.33106781 15.44125366 248.42301941 C15.46112335 247.60239517 15.48099304 246.78177094 15.50146484 245.9362793 C15.51478851 245.21458054 15.52811218 244.49288177 15.5418396 243.74931335 C15.8203125 241.83203125 15.8203125 241.83203125 17.8203125 238.83203125 C20.98943348 237.9364101 22.99734104 237.54287912 26.1328125 238.64453125 C27.8203125 239.83203125 27.8203125 239.83203125 28.8203125 241.83203125 C28.97776076 244.89225635 29.07905596 247.93362144 29.13671875 250.99609375 C29.15536987 251.80006592 29.174021 252.60403809 29.1932373 253.43237305 C29.26162265 256.44047886 29.32171537 259.44876858 29.3828125 262.45703125 C29.5271875 269.18078125 29.6715625 275.90453125 29.8203125 282.83203125 C51.6003125 282.83203125 73.3803125 282.83203125 95.8203125 282.83203125 C96.069887 269.47418146 96.069887 269.47418146 96.29833984 256.1159668 C96.33354393 254.44187825 96.36946498 252.76780456 96.40625 251.09375 C96.41760986 250.22383423 96.42896973 249.35391846 96.44067383 248.4576416 C96.46073486 247.62559204 96.4807959 246.79354248 96.50146484 245.9362793 C96.51478851 245.21458054 96.52811218 244.49288177 96.5418396 243.74931335 C96.8203125 241.83203125 96.8203125 241.83203125 98.8203125 238.83203125 C101.98943348 237.9364101 103.99734104 237.54287912 107.1328125 238.64453125 C108.8203125 239.83203125 108.8203125 239.83203125 109.8203125 241.83203125 C109.97777076 244.89245065 110.07898127 247.93345025 110.13671875 250.99609375 C110.15749985 251.9033017 110.17828094 252.81050964 110.19969177 253.74520874 C110.26518385 256.64907105 110.32407064 259.5530253 110.3828125 262.45703125 C110.42599805 264.42318667 110.46961235 266.38933272 110.51367188 268.35546875 C110.62086489 273.18089487 110.72213331 278.00641365 110.8203125 282.83203125 C116.56939378 281.54991206 116.56939378 281.54991206 120.8203125 277.83203125 C126.45360186 260.93216317 127.07248844 226.30427938 120.58984375 209.67578125 C116.87985496 203.71359175 112.05764269 201.88454813 105.6328125 199.95703125 C104.82126709 199.70872559 104.00972168 199.46041992 103.17358398 199.20458984 C95.96798207 197.06178476 88.69165029 195.2114043 81.3828125 193.45703125 C80.31844971 193.19422363 79.25408691 192.93141602 78.1574707 192.66064453 C64.89328058 189.59500556 54.0346926 191.06585667 41.08349609 194.45751953 Z M220.47509766 194.03027344 C218.32661807 194.58041663 216.17392204 195.11025329 214.01953125 195.63671875 C196.18847887 198.88521789 196.18847887 198.88521789 182.5078125 208.95703125 C180.68011983 216.6001097 180.66999857 224.51588893 180.6875 232.3359375 C180.68654327 233.29926498 180.68558655 234.26259247 180.68460083 235.25511169 C180.6839252 237.27611355 180.68573605 239.29711765 180.68994141 241.31811523 C180.69530435 244.38986127 180.68997226 247.46146152 180.68359375 250.53320312 C180.68425453 252.5091149 180.68553568 254.48502659 180.6875 256.4609375 C180.68547577 257.36743546 180.68345154 258.27393341 180.68136597 259.207901 C180.45718469 269.34403624 180.45718469 269.34403624 183.4453125 278.76953125 C186.39075426 281.32741488 189.08333948 281.8607667 192.8203125 282.83203125 C192.82647583 280.94713989 192.82647583 280.94713989 192.83276367 279.02416992 C192.85451848 274.3665248 192.90876991 269.70972889 192.97290039 265.05249023 C192.99611235 263.0359714 193.01048359 261.01933078 193.01586914 259.00268555 C193.02513545 256.10518215 193.06607382 253.20960266 193.11328125 250.3125 C193.1093486 249.40928513 193.10541595 248.50607025 193.10136414 247.57548523 C193.15636989 245.22146153 193.24880422 243.11626612 193.8203125 240.83203125 C196.1965332 238.72387695 196.1965332 238.72387695 198.8203125 237.83203125 C201.54411105 238.08540786 203.3849077 238.61432885 205.8203125 239.83203125 C206.70596836 242.48899883 206.9653387 244.11393208 207.02563477 246.84448242 C207.04581665 247.65622925 207.06599854 248.46797607 207.08679199 249.30432129 C207.10326782 250.15264526 207.11974365 251.00096924 207.13671875 251.875 C207.15536987 252.65830688 207.174021 253.44161377 207.1932373 254.24865723 C207.26148883 257.17216816 207.32166702 260.09586306 207.3828125 263.01953125 C207.5271875 269.55765625 207.6715625 276.09578125 207.8203125 282.83203125 C229.6003125 282.83203125 251.3803125 282.83203125 273.8203125 282.83203125 C273.95120674 269.14506085 273.95120674 269.14506085 274.02807617 255.45776367 C274.05451848 253.74264445 274.08279479 252.0275521 274.11328125 250.3125 C274.10929321 249.42099243 274.10530518 248.52948486 274.10119629 247.61096191 C274.15590458 245.24373743 274.24569507 243.12869297 274.8203125 240.83203125 C277.1965332 238.72387695 277.1965332 238.72387695 279.8203125 237.83203125 C282.54411105 238.08540786 284.3849077 238.61432885 286.8203125 239.83203125 C287.70596836 242.48899883 287.9653387 244.11393208 288.02563477 246.84448242 C288.0555526 248.04538765 288.0555526 248.04538765 288.08607483 249.27055359 C288.10278732 250.1300209 288.11949982 250.98948822 288.13671875 251.875 C288.15749985 252.75859695 288.17828094 253.64219391 288.19969177 254.55256653 C288.26507004 257.3748091 288.32401778 260.1971446 288.3828125 263.01953125 C288.42600887 264.93295231 288.46962352 266.84636398 288.51367188 268.75976562 C288.62073945 273.45042562 288.72204002 278.14117908 288.8203125 282.83203125 C292.79336909 282.06798191 295.2639991 281.35941816 298.22900391 278.54858398 C301.13045412 273.41269805 300.34628883 267.06729149 300.28125 261.3671875 C300.28033356 260.0605162 300.27941711 258.75384491 300.2784729 257.40757751 C300.27535397 254.64788368 300.25886267 251.88871269 300.23193359 249.12915039 C300.19798827 245.60767827 300.19030474 242.0867802 300.19182396 238.56516361 C300.19114636 235.186596 300.17344921 231.80821301 300.15625 228.4296875 C300.15402435 227.17221207 300.15179871 225.91473663 300.14950562 224.61915588 C300.41115919 214.22308041 300.41115919 214.22308041 295.55639648 205.54956055 C286.52892066 199.88271907 275.6731627 197.5020831 265.3996582 195.03686523 C263.25225779 194.51818958 261.11180757 193.97564971 258.97070312 193.43164062 C245.26314559 190.0345168 234.08023688 190.54463367 220.47509766 194.03027344 Z " fill="#000000" transform="translate(193.1796875,211.16796875)"/>
<path d="M0 0 C1.89194605 0.51096033 3.78443908 1.01989894 5.6774292 1.52697754 C10.71587748 2.88255131 15.74644367 4.26538426 20.77578735 5.65430069 C26.00976281 7.09505157 31.25029105 8.51155927 36.49023438 9.93041992 C43.91882862 11.9443642 51.34495163 13.96701847 58.76812744 16.000844 C70.21720442 19.13758517 81.67806982 22.22638943 93.15097809 25.27474403 C98.03398117 26.57316062 102.91516267 27.8784053 107.79632187 29.18373394 C111.57536482 30.19408873 115.35508108 31.20172514 119.13659668 32.20278931 C122.63479203 33.12948606 126.12989708 34.06704073 129.62290192 35.0131073 C131.47613242 35.51219841 133.33234955 36.00015888 135.18865967 36.4876709 C142.55473149 38.49663633 148.93916658 40.34420764 153.140625 47.19921875 C154.70903352 51.9044443 154.68958039 55.72570691 152.953125 60.38671875 C149.76907561 65.32748504 146.58360978 67.02202484 141.140625 69.19921875 C140.810625 83.05921875 140.480625 96.91921875 140.140625 111.19921875 C142.120625 111.85921875 144.100625 112.51921875 146.140625 113.19921875 C152.25253373 117.12519571 156.42390184 122.09627668 158.140625 129.19921875 C159.01820582 136.56724102 158.64269355 142.70610866 155.11328125 149.296875 C153.51865149 152.41568903 152.83778049 154.20461362 153.8828125 157.63671875 C154.25664062 158.48234375 154.63046875 159.32796875 155.015625 160.19921875 C156.99632928 164.74237263 158.25562477 168.52647297 158.30175781 173.50537109 C158.31616913 174.76720718 158.31616913 174.76720718 158.33087158 176.05453491 C158.3372464 177.40619247 158.3372464 177.40619247 158.34375 178.78515625 C158.34945007 179.71969635 158.35515015 180.65423645 158.36102295 181.61709595 C158.37045896 183.59237541 158.37700137 185.56767052 158.38085938 187.54296875 C158.39056718 190.55627011 158.42160472 193.5688898 158.453125 196.58203125 C158.45965537 198.50390221 158.46490571 200.42577804 158.46875 202.34765625 C158.4810968 203.24471283 158.4934436 204.14176941 158.50616455 205.06600952 C158.48545068 210.91573073 157.74585179 215.3429675 153.640625 219.84375 C147.03271577 224.98897099 141.41599647 224.41411133 133.328125 224.44921875 C131.5637207 224.48015625 131.5637207 224.48015625 129.76367188 224.51171875 C122.93860127 224.54258396 117.77122192 224.51073708 112.49609375 219.69921875 C109.46730879 215.80940797 108.03630607 213.05188915 107.94775391 208.14941406 C107.93169098 207.3371637 107.91562805 206.52491333 107.89907837 205.68804932 C107.85408053 201.93380871 107.8134619 198.17974192 107.79052734 194.42529297 C107.77410453 192.4626061 107.7469999 190.49997553 107.70849609 188.53759766 C107.48758144 177.2017945 107.79659695 167.63656919 112.26147461 157.10717773 C113.42114395 154.2797136 113.42114395 154.2797136 112.3503418 151.81958008 C111.08996776 149.97423653 111.08996776 149.97423653 109.5703125 148.21484375 C106.28813713 143.58751455 105.91816021 137.17298284 106.33203125 131.640625 C107.81683706 123.70828405 112.19431958 118.88446001 118.04296875 113.6171875 C120.140625 112.19921875 120.140625 112.19921875 125.140625 111.19921875 C125.140625 98.65921875 125.140625 86.11921875 125.140625 73.19921875 C122.49289062 73.92109375 119.84515625 74.64296875 117.1171875 75.38671875 C114.55908318 76.08231096 112.00074525 76.7770375 109.44238281 77.47167969 C107.66121178 77.95579951 105.88028591 78.44082228 104.09960938 78.92675781 C101.54360482 79.62410872 98.98674305 80.31823303 96.4296875 81.01171875 C95.63068024 81.23045654 94.83167297 81.44919434 94.00845337 81.67456055 C88.36836841 83.19921875 88.36836841 83.19921875 86.140625 83.19921875 C86.1606105 84.61076485 86.1606105 84.61076485 86.18099976 86.05082703 C86.30267601 94.92294821 86.39259456 103.79489994 86.45149803 112.66766644 C86.4827996 117.22923771 86.52524989 121.790135 86.59326172 126.35131836 C86.65849782 130.75394617 86.69433988 135.15592615 86.70988846 139.55900002 C86.72096735 141.23799654 86.7426028 142.91695794 86.77500534 144.59567833 C86.81862932 146.94957184 86.82455724 149.300796 86.82177734 151.6550293 C86.843349 152.34770905 86.86492065 153.04038879 86.887146 153.75405884 C86.85198801 156.50919539 86.65531089 158.59921287 84.82617664 160.73156452 C81.0782051 163.89979693 76.90227198 166.24559099 72.578125 168.51171875 C71.84561523 168.89561768 71.11310547 169.2795166 70.35839844 169.67504883 C19.34188492 195.68021968 -42.72237632 199.13738892 -97.06738281 182.19042969 C-112.68924157 177.08731893 -129.53624245 171.08966014 -142.859375 161.19921875 C-144.33926292 158.23944291 -143.98947899 155.23943866 -143.97290039 151.99560547 C-143.97304642 151.25404205 -143.97319244 150.51247864 -143.9733429 149.7484436 C-143.972645 147.29190162 -143.96485834 144.83543502 -143.95703125 142.37890625 C-143.95516663 140.67782635 -143.95374294 138.97674591 -143.95274353 137.27566528 C-143.94892178 132.79415408 -143.9390944 128.31267518 -143.92803955 123.83117676 C-143.91781808 119.25985145 -143.91324433 114.68852094 -143.90820312 110.1171875 C-143.89747185 101.14451704 -143.88039951 92.17187058 -143.859375 83.19921875 C-144.45095901 83.08847015 -145.04254303 82.97772156 -145.65205383 82.86361694 C-152.20793952 81.59911498 -158.64176373 80.02768722 -165.08984375 78.30078125 C-166.12450272 78.02454926 -167.15916168 77.74831726 -168.22517395 77.4637146 C-170.39629302 76.88225943 -172.56691655 76.29895107 -174.73706055 75.71386719 C-178.04557899 74.82456711 -181.35762446 73.94932258 -184.66992188 73.07421875 C-186.78929473 72.50476986 -188.90844341 71.93448583 -191.02734375 71.36328125 C-192.50100655 70.97712143 -192.50100655 70.97712143 -194.00444031 70.5831604 C-206.77073663 67.0963623 -206.77073663 67.0963623 -210.796875 61.51171875 C-212.56862222 55.98803623 -212.93004092 50.74821105 -210.421875 45.38671875 C-204.50629971 36.94466102 -190.19286115 35.68690903 -180.7890625 33.2265625 C-178.97671489 32.74626101 -177.16455491 32.26525103 -175.35256958 31.78358459 C-170.49003494 30.49300613 -165.625155 29.21150597 -160.75958252 27.93243408 C-152.61175438 25.78932432 -144.4669316 23.63478932 -136.32169342 21.48186111 C-134.25318466 20.93531764 -132.1845755 20.38915401 -130.11586761 19.84336472 C-116.80355214 16.33073595 -103.51114859 12.75518688 -90.24228287 9.08181953 C-85.3951277 7.74173979 -80.54488303 6.41286729 -75.69490623 5.08304119 C-71.21155827 3.85195191 -66.73408474 2.60186183 -62.26002312 1.33747005 C-59.48598602 0.55880447 -56.70691606 -0.20054455 -53.92620468 -0.95498848 C-52.08815846 -1.45977877 -50.25649132 -1.98763153 -48.42532349 -2.51683044 C-31.44604484 -7.07019069 -16.61505734 -4.64710066 0 0 Z M-56.23046875 15.2890625 C-58.21524789 15.82777701 -60.20045836 16.36490454 -62.18606567 16.90055847 C-67.47227204 18.33110892 -72.75245506 19.7827845 -78.03172684 21.23868561 C-83.49088897 22.74015148 -88.95548022 24.22157501 -94.41967773 25.70458984 C-103.14275589 28.07430924 -111.86296346 30.45428775 -120.58105469 32.84228516 C-131.47155307 35.82451919 -142.36971203 38.77746567 -153.2734375 41.7109375 C-154.03111734 41.91482275 -154.78879719 42.118708 -155.56943703 42.32877159 C-158.47640866 43.11094727 -161.38341898 43.89297865 -164.29053211 44.67462826 C-171.35811367 46.57510885 -178.42338478 48.48409456 -185.48828125 50.39453125 C-186.55837433 50.68386032 -187.62846741 50.97318939 -188.73098755 51.27128601 C-191.10714817 51.91381398 -193.48328082 52.55644511 -195.859375 53.19921875 C-192.54777414 55.40695266 -189.91996998 56.12085821 -186.07397461 57.12841797 C-185.38137448 57.31155359 -184.68877436 57.49468922 -183.97518635 57.6833744 C-181.65536965 58.29543678 -179.33355075 58.89953798 -177.01171875 59.50390625 C-175.35619607 59.9395032 -173.70082419 60.37567366 -172.04559326 60.81237793 C-167.56392219 61.99346422 -163.0805807 63.16808251 -158.59682846 64.34123993 C-150.09371643 66.56720587 -141.59361729 68.80465084 -133.09375 71.04296875 C-131.65022691 71.42275942 -131.65022691 71.42275942 -130.17754173 71.81022263 C-117.08565274 75.25679259 -104.01657541 78.77739584 -90.96899223 82.38805771 C-88.39941787 83.09871559 -85.82922678 83.8070953 -83.25880432 84.51467896 C-81.58797756 84.97477572 -79.91715537 85.43488906 -78.24633789 85.89501953 C-77.4337404 86.11876314 -76.6211429 86.34250675 -75.78392124 86.57303047 C-71.01392983 87.88822859 -66.24861723 89.21900279 -61.48604774 90.56081009 C-58.52035271 91.39236981 -55.55071862 92.20911799 -52.57990265 93.02217102 C-51.22391763 93.39665323 -49.86961196 93.77728874 -48.51735687 94.1650238 C-33.07032409 98.58869065 -20.48047692 97.39909178 -5.296875 93.125 C-3.69052151 92.68717457 -2.0837264 92.25096676 -0.47653198 91.8162384 C3.83928996 90.64437699 8.14900009 89.45137037 12.45792389 88.25443268 C16.97211693 87.00466466 21.49184327 85.77525966 26.01123047 84.54443359 C32.59347634 82.75008968 39.1740454 80.94981852 45.75259972 79.14198685 C58.12402726 75.74278273 70.50788848 72.3912745 82.8984375 69.0625 C83.8081707 68.81806719 84.7179039 68.57363438 85.65520477 68.32179451 C89.245277 67.35733602 92.83542009 66.39314217 96.42569351 65.42943287 C104.85204788 63.16757973 113.27653256 60.89880821 121.70064926 58.62863731 C123.91459427 58.0320199 126.12857091 57.43552004 128.34255981 56.83906555 C131.60860009 55.95918544 134.87461991 55.07922947 138.140625 54.19921875 C134.82902414 51.99148484 132.20121998 51.27757929 128.35522461 50.27001953 C127.66262448 50.08688391 126.97002436 49.90374828 126.25643635 49.7150631 C123.93661965 49.10300072 121.61480075 48.49889952 119.29296875 47.89453125 C117.63744607 47.4589343 115.98207419 47.02276384 114.32684326 46.58605957 C109.84517219 45.40497328 105.3618307 44.23035499 100.87807846 43.05719757 C92.37496643 40.83123163 83.87486729 38.59378666 75.375 36.35546875 C74.41265127 36.10227497 73.45030254 35.84908119 72.45879173 35.58821487 C59.36690274 32.14164491 46.29782541 28.62104166 33.25024223 25.01037979 C30.68066787 24.29972191 28.11047678 23.5913422 25.54005432 22.88375854 C23.86922756 22.42366178 22.19840537 21.96354844 20.52758789 21.50341797 C19.7149904 21.27967436 18.9023929 21.05593075 18.06517124 20.82540703 C13.29517983 19.51020891 8.52986723 18.17943471 3.76729774 16.83762741 C0.80160271 16.00606769 -2.16803138 15.18931951 -5.13884735 14.37626648 C-6.49483237 14.00178427 -7.84913804 13.62114876 -9.20139313 13.2334137 C-26.27740125 8.34324663 -39.55682187 10.64544573 -56.23046875 15.2890625 Z M-128.859375 87.19921875 C-129.0449109 95.45719659 -129.18696408 103.71430115 -129.27387238 111.9738493 C-129.31558988 115.80940653 -129.37214459 119.64353608 -129.46289062 123.47827148 C-129.54995566 127.18071769 -129.59767502 130.88179312 -129.61839294 134.5851841 C-129.63315155 135.99635214 -129.66197568 137.40744676 -129.70521545 138.8180294 C-130.23742566 146.50024524 -130.23742566 146.50024524 -127.16384888 153.13494873 C-125.09280364 154.457444 -123.15965542 155.34914842 -120.859375 156.19921875 C-119.53945823 156.85366331 -118.22360539 157.51644299 -116.9140625 158.19140625 C-98.97479767 166.432726 -80.34863353 172.08305004 -60.859375 175.19921875 C-60.13927246 175.3163623 -59.41916992 175.43350586 -58.67724609 175.55419922 C-15.71529233 182.21780717 31.32356808 174.26506666 69.32513428 152.97538757 C71.40605726 151.28633801 71.40605726 151.28633801 71.62164307 148.4087677 C71.61276062 147.27847641 71.60387817 146.14818512 71.59472656 144.98364258 C71.59442444 143.70254105 71.59412231 142.42143951 71.59381104 141.10151672 C71.57338439 139.70308818 71.5525204 138.30466596 71.53125 136.90625 C71.52378859 135.47564992 71.51809518 134.04503961 71.51409912 132.61442566 C71.49883457 128.8510816 71.45954676 125.08835617 71.4152832 121.32525635 C71.37434757 117.48450082 71.35609182 113.64364522 71.3359375 109.80273438 C71.29305237 102.2679473 71.22479228 94.73366974 71.140625 87.19921875 C66.57369976 88.35364952 62.00773838 89.51172702 57.44296265 90.67462158 C55.73830925 91.10847406 54.03341283 91.54137277 52.32827759 91.97332764 C41.04569483 94.8342556 29.81012398 97.82757854 18.60546875 100.98046875 C15.14802638 101.944187 11.69018814 102.90647457 8.2322998 103.86859131 C5.98635686 104.49907735 3.74270342 105.13778454 1.50158691 105.78521729 C-1.69260206 106.70737874 -4.89390154 107.60001247 -8.09765625 108.48828125 C-9.47897484 108.90007629 -9.47897484 108.90007629 -10.88819885 109.32019043 C-27.63453435 113.86468054 -42.95894409 110.5259161 -59.26953125 105.94921875 C-61.258686 105.4091195 -63.24839868 104.87107133 -65.2386322 104.33496094 C-70.4172147 102.93438645 -75.58808022 101.5072346 -80.75762939 100.07373047 C-86.05349561 98.61009659 -91.35603126 97.17105928 -96.65820312 95.73046875 C-102.60291639 94.11423365 -108.54685157 92.49550839 -114.4858551 90.85839844 C-115.38049469 90.61198608 -116.27513428 90.36557373 -117.19688416 90.11169434 C-118.8726925 89.64967106 -120.54820959 89.18658967 -122.22338867 88.72229004 C-125.49511883 87.66136299 -125.49511883 87.66136299 -128.859375 87.19921875 Z M123.140625 130.19921875 C121.08057398 134.14764987 120.95221056 135.5816381 122.265625 139.88671875 C124.5558987 143.93286895 126.1685988 145.45304668 130.453125 147.07421875 C134.35803588 147.25584251 136.75112508 146.08227426 140.140625 144.19921875 C142.6059892 141.33621516 143.09612848 139.50513231 143.640625 135.76171875 C142.97686942 131.03246024 141.48380709 129.54240084 138.140625 126.19921875 C131.91548019 123.08664635 127.04376754 124.9184965 123.140625 130.19921875 Z M127.140625 161.19921875 C122.54890828 170.02944321 122.61586398 177.9952549 122.78393555 187.70678711 C122.82856475 190.28714402 122.84546629 192.86656795 122.85742188 195.44726562 C122.8708256 197.08464902 122.88574289 198.72202089 122.90234375 200.359375 C122.90973068 201.132173 122.91711761 201.90497101 122.92472839 202.70118713 C122.66880191 206.24606683 122.66880191 206.24606683 124.140625 209.19921875 C125.47106125 209.29759085 126.80655844 209.33000467 128.140625 209.33203125 C128.945 209.33332031 129.749375 209.33460938 130.578125 209.3359375 C131.8465625 209.33013672 131.8465625 209.33013672 133.140625 209.32421875 C133.98625 209.32808594 134.831875 209.33195312 135.703125 209.3359375 C136.5075 209.33464844 137.311875 209.33335937 138.140625 209.33203125 C139.254375 209.33033936 139.254375 209.33033936 140.390625 209.32861328 C142.16888311 209.38864091 142.16888311 209.38864091 143.140625 208.19921875 C143.27911221 205.5771305 143.35382428 202.98337257 143.37890625 200.359375 C143.386978 199.56325302 143.39504974 198.76713104 143.40336609 197.94688416 C143.41723281 196.25294179 143.42794332 194.55897118 143.43579102 192.86499023 C143.45284807 190.30330952 143.49668821 187.74297284 143.54101562 185.18164062 C143.62375784 176.2732806 143.34761582 169.28958572 139.140625 161.19921875 C135.180625 161.19921875 131.220625 161.19921875 127.140625 161.19921875 Z " fill="#000000" transform="translate(284.859375,8.80078125)"/>
</svg>
