<?xml version="1.0" encoding="UTF-8"?>
<svg version="1.1" xmlns="http://www.w3.org/2000/svg" width="512" height="512">
<path d="M0 0 C2.38840203 1.02908078 4.77724636 2.05713558 7.16650391 3.08422852 C12.14611017 5.22593382 17.12298299 7.37387049 22.09814453 9.52587891 C29.25506429 12.62081942 36.42098991 15.69451824 43.58984375 18.76171875 C44.7328746 19.25081223 45.87590546 19.7399057 47.05357361 20.24382019 C49.35981176 21.23061614 51.66606073 22.2173868 53.97232056 23.20413208 C59.79802497 25.69798938 65.621622 28.19675676 71.4453125 30.6953125 C82.16056823 35.29208733 92.87801468 39.88372501 103.5965271 44.47290039 C112.91958499 48.46497698 122.24037793 52.46231563 131.56021118 56.46191406 C138.16917861 59.29733884 144.78134436 62.12512651 151.39630127 64.94654846 C155.49364036 66.69546878 159.58869565 68.44968874 163.68322754 70.20516968 C165.57536625 71.01500617 167.46848749 71.82255159 169.3626709 72.62759399 C171.95276776 73.72871564 174.5392261 74.83799113 177.125 75.94921875 C178.23974701 76.4194899 178.23974701 76.4194899 179.37701416 76.89926147 C189.3438147 81.20966603 198.70237461 87.09621692 203.5625 97.25 C206.64444752 107.45512425 205.62503686 118.60160312 200.75390625 127.94140625 C194.58977793 135.84159923 187.32487684 140.31426612 178.1796875 144.10546875 C177.09848129 144.57015564 176.01727509 145.03484253 174.90330505 145.51361084 C171.4216218 147.00511757 167.93007057 148.4716931 164.4375 149.9375 C162.04260477 150.95698735 159.64831926 151.97790816 157.25463867 153.00024414 C151.41782107 155.4883573 145.5727729 157.9563653 139.72442627 160.41723633 C136.01081347 161.98253792 132.30238556 163.55976136 128.59503174 165.13981628 C125.02404916 166.66129983 121.45013371 168.17580013 117.875 169.6875 C116.91530304 170.09384171 116.91530304 170.09384171 115.93621826 170.50839233 C114.18449896 171.24805749 112.4302236 171.9816609 110.67578125 172.71484375 C109.72485596 173.1130835 108.77393066 173.51132324 107.79418945 173.92163086 C105.5625 174.75 105.5625 174.75 103.5625 174.75 C103.57360306 175.58112808 103.58470612 176.41225616 103.59614563 177.26856995 C103.69703806 185.16637567 103.77281125 193.06395973 103.82156086 200.96226597 C103.84746774 205.02127007 103.8825108 209.07973425 103.93969727 213.13842773 C103.99470392 217.06776539 104.02406198 220.99658941 104.03688622 224.92628288 C104.0460049 226.41278083 104.06380477 227.8992561 104.09115028 229.38553047 C104.44217535 249.28671404 97.28942577 264.54985869 83.4375 278.90234375 C49.36331345 313.14827519 -5.07417456 322.86335595 -51.4375 323.125 C-97.5067223 322.86501568 -147.92982121 313.14829101 -183.4375 281.75 C-184.11941406 281.15058594 -184.80132812 280.55117188 -185.50390625 279.93359375 C-195.63555078 270.43641619 -201.48379545 259.84664633 -205.4375 246.75 C-205.9325 245.265 -205.9325 245.265 -206.4375 243.75 C-206.52721327 241.52663393 -206.55507853 239.30061107 -206.55102539 237.07543945 C-206.55117142 236.402005 -206.55131744 235.72857056 -206.5514679 235.034729 C-206.55077175 232.81088021 -206.54299332 230.58711539 -206.53515625 228.36328125 C-206.53329101 226.82057236 -206.53186761 225.27786289 -206.53086853 223.7351532 C-206.52705169 219.67616132 -206.51722851 215.61720527 -206.50616455 211.55822754 C-206.49593252 207.41577641 -206.49136707 203.2733195 -206.48632812 199.13085938 C-206.47560551 191.00388982 -206.45853907 182.87694937 -206.4375 174.75 C-207.59121094 174.39292969 -208.74492187 174.03585938 -209.93359375 173.66796875 C-217.28354633 171.21798456 -224.37221753 168.08495313 -231.5 165.0625 C-232.95234404 164.44956186 -234.40481702 163.83692914 -235.85742188 163.22460938 C-239.38561109 161.73659023 -242.91202935 160.24444799 -246.4375 158.75 C-246.64792458 172.72748921 -246.80593772 186.70473221 -246.90380955 200.68348122 C-246.95078357 207.17447457 -247.01449749 213.66440412 -247.11645508 220.15478516 C-247.21423359 226.41832301 -247.26805601 232.68083768 -247.29139519 238.9450798 C-247.30802726 241.3350371 -247.34050729 243.72493825 -247.38907051 246.11445999 C-247.4544082 249.46246612 -247.4634028 252.80624424 -247.45922852 256.15478516 C-247.50776474 257.63724731 -247.50776474 257.63724731 -247.55728149 259.1496582 C-247.51941229 261.95641802 -247.39337771 264.1076159 -246.4375 266.75 C-244.30929534 268.74000457 -242.24297776 270.05564761 -239.66329861 271.40105247 C-235.1810433 274.1175279 -233.04822787 278.91781639 -231.4375 283.75 C-230.7688789 291.05002714 -231.35142768 296.34348513 -234.66796875 302.859375 C-235.67971612 304.84086708 -235.67971612 304.84086708 -234.875 307.4375 C-234.400625 308.200625 -233.92625 308.96375 -233.4375 309.75 C-230.96135385 314.14771807 -229.92416004 317.74918821 -229.3828125 322.7578125 C-229.26838303 323.78396164 -229.26838303 323.78396164 -229.15164185 324.83084106 C-228.89979609 327.13599186 -228.66739157 329.44256118 -228.4375 331.75 C-228.35173706 332.58221069 -228.26597412 333.41442139 -228.1776123 334.27185059 C-227.61239917 339.76744955 -227.08392836 345.26576452 -226.57763672 350.76708984 C-226.31342309 353.61505002 -226.03763114 356.46174637 -225.76171875 359.30859375 C-224.93107031 368.11293414 -224.23820639 376.91329975 -224.0703125 385.7578125 C-224.04387665 386.48080536 -224.0174408 387.20379822 -223.99020386 387.94869995 C-223.96735361 393.0286181 -225.24959582 395.84742894 -228.4375 399.75 C-236.08436826 405.76987502 -244.11238293 404.96601303 -253.41943359 404.99023438 C-255.66672198 404.99991054 -257.91308317 405.03095521 -260.16015625 405.0625 C-277.54372481 405.19294199 -277.54372481 405.19294199 -283.04003906 400.33300781 C-288.70889449 393.91147417 -287.80293512 386.82013987 -287.4375 378.75 C-286.92380039 370.7732338 -286.19864528 362.81362835 -285.46606445 354.85449219 C-285.12526438 351.12789091 -284.80137403 347.40006839 -284.47851562 343.671875 C-284.26144013 341.26813652 -284.04337463 338.8644872 -283.82421875 336.4609375 C-283.73033371 335.36373383 -283.63644867 334.26653015 -283.53971863 333.13607788 C-282.63059368 323.53258339 -281.65451098 313.4676688 -275.4375 305.75 C-275.71464844 305.21890625 -275.99179687 304.6878125 -276.27734375 304.140625 C-276.82068359 303.08101563 -276.82068359 303.08101563 -277.375 302 C-277.91447266 300.95585938 -277.91447266 300.95585938 -278.46484375 299.890625 C-281.3711232 293.49447585 -281.20083441 287.21772738 -278.875 280.6875 C-276.72682305 275.7611154 -273.87748464 271.83868497 -269.4375 268.75 C-267.4575 268.09 -265.4775 267.43 -263.4375 266.75 C-263.7675 228.47 -264.0975 190.19 -264.4375 150.75 C-278.2975 144.81 -278.2975 144.81 -292.4375 138.75 C-306.96585542 125.67448012 -306.96585542 125.67448012 -307.87109375 114.5859375 C-308.39594823 103.05565972 -306.15359916 95.41122378 -298.609375 86.671875 C-292.57542438 81.33247985 -285.30124398 78.17400662 -277.9609375 75.0390625 C-276.94365067 74.59856064 -275.92636383 74.15805878 -274.87825012 73.70420837 C-271.52574603 72.25468037 -268.1692322 70.81470662 -264.8125 69.375 C-262.43381665 68.34930357 -260.05532062 67.32317261 -257.67700195 66.29663086 C-237.9866562 57.80751148 -218.2587735 49.40571118 -198.52442932 41.01948547 C-184.51920304 35.06758092 -170.52840953 29.08259299 -156.54382324 23.08236694 C-153.0287951 21.57484958 -149.51306214 20.06898895 -145.99707031 18.5637207 C-135.75824243 14.17964224 -125.52166982 9.79098719 -115.30085754 5.36503601 C-111.00790642 3.50776056 -106.71153267 1.65849512 -102.41452026 -0.18936157 C-100.42423201 -1.04757209 -98.43549695 -1.90939584 -96.44851685 -2.77523804 C-60.52860272 -18.42304592 -35.48842878 -15.42705064 0 0 Z M-95.0519104 14.56417847 C-100.9471117 17.17315005 -106.8556109 19.75177654 -112.76171875 22.3359375 C-113.99275558 22.87553051 -115.2237685 23.41517807 -116.45475769 23.95487976 C-129.01403699 29.45776055 -141.62826587 34.8297192 -154.25 40.1875 C-158.74373266 42.09708459 -163.23712105 44.00747853 -167.73046875 45.91796875 C-168.84997925 46.39385941 -169.96948975 46.86975006 -171.1229248 47.36006165 C-189.89173815 55.34140999 -208.63498002 63.38264984 -227.37483215 71.43171692 C-234.0241887 74.28718905 -240.67663378 77.1352904 -247.3319397 79.97686768 C-251.44621554 81.73466245 -255.55840529 83.49729732 -259.67010498 85.2611084 C-261.5751689 86.07709919 -263.48111427 86.89103564 -265.38800049 87.70275879 C-267.99284687 88.81193573 -270.59440893 89.92849032 -273.1953125 91.046875 C-273.94880981 91.36555542 -274.70230713 91.68423584 -275.4786377 92.01257324 C-281.73262754 94.71736015 -287.51505362 97.40077044 -290.73828125 103.765625 C-292.32821366 108.27783543 -292.22520999 112.36511009 -290.73046875 116.890625 C-287.27610178 123.6699819 -281.1253214 125.86611863 -274.4375 128.75 C-273.29152344 129.32363281 -272.14554687 129.89726562 -270.96484375 130.48828125 C-269.80082031 131.04902344 -268.63679688 131.60976562 -267.4375 132.1875 C-265.8596875 132.95900391 -265.8596875 132.95900391 -264.25 133.74609375 C-254.29863544 136.3664838 -242.88556588 132.94700195 -232.89428711 131.20556641 C-231.37038104 130.94386868 -229.8464022 130.68259445 -228.32235718 130.42170715 C-224.22085695 129.71806002 -220.12055352 129.00767267 -216.02055812 128.29531527 C-213.45642345 127.85010047 -210.89204468 127.40631991 -208.32757759 126.96302414 C-199.37538046 125.41543324 -190.42419437 123.86213493 -181.47387695 122.30371094 C-173.1355754 120.8520161 -164.79509737 119.41333466 -156.45353693 117.98049605 C-149.27814455 116.74735777 -142.10438657 115.50500872 -134.93182951 114.25548494 C-130.65326272 113.510295 -126.37411918 112.76891962 -122.09327507 112.03691483 C-118.07679766 111.34980857 -114.06247234 110.65129797 -110.04952621 109.94386864 C-108.5760168 109.68613165 -107.10177982 109.4325158 -105.62680626 109.1832943 C-103.61659792 108.84298274 -101.60915517 108.48645246 -99.60191345 108.12905884 C-98.47724135 107.93401575 -97.35256926 107.73897266 -96.19381618 107.53801918 C-92.04859748 106.35291862 -90.92079268 104.5554878 -88.75 100.9375 C-82.56117938 92.40696347 -73.68845565 89.26271676 -63.62890625 87.1640625 C-48.54550984 85.20709797 -31.76608316 85.80043763 -19.171875 95.24609375 C-14.99231681 98.87026019 -12.5887005 102.30796129 -11.4375 107.75 C-11.34025138 113.75780375 -12.35894078 118.16162088 -16.4375 122.75 C-27.76579333 132.32624796 -42.06607465 134.40796887 -56.4375 133.75 C-66.19706704 132.92690398 -76.87739255 131.10773934 -84.18510437 124.12432861 C-86.67219959 122.03496073 -87.24093653 121.75997151 -90.66316223 121.58636475 C-91.84013168 121.80504211 -93.01710114 122.02371948 -94.22973633 122.24902344 C-94.89514875 122.36385826 -95.56056118 122.47869308 -96.24613762 122.59700775 C-98.48889032 122.99069551 -100.721765 123.42533675 -102.95703125 123.859375 C-104.58092579 124.15205262 -106.20536226 124.44173634 -107.83027649 124.72869873 C-111.4150963 125.3655684 -114.99655676 126.01838387 -118.57672119 126.6809082 C-124.73923561 127.81442302 -130.91370963 128.87219065 -137.09130859 129.91992188 C-147.28401199 131.65075241 -157.47222858 133.40559423 -167.65754509 135.17937469 C-174.73767613 136.41223382 -181.81912637 137.63708255 -188.90169048 138.85588455 C-193.50663654 139.65011603 -198.11034088 140.45136532 -202.71372414 141.25460052 C-204.9026041 141.63524888 -207.09195342 142.01320861 -209.28177452 142.38840485 C-212.30338275 142.90674541 -215.32309375 143.43499169 -218.3425293 143.96582031 C-219.24033615 144.11751678 -220.13814301 144.26921326 -221.06315613 144.42550659 C-221.87909241 144.57103973 -222.69502869 144.71657288 -223.53569031 144.86651611 C-224.24534785 144.98961781 -224.9550054 145.1127195 -225.68616772 145.23955154 C-227.67508854 145.66692372 -227.67508854 145.66692372 -229.4375 147.75 C-200.50706962 160.35595643 -171.54535267 172.87977303 -142.4987793 185.21606445 C-140.27129548 186.16221062 -138.04383776 187.10841822 -135.81640625 188.0546875 C-134.71977158 188.52055771 -133.6231369 188.98642792 -132.49327087 189.46641541 C-124.47476182 192.87600288 -116.46759454 196.31141849 -108.46484375 199.7578125 C-107.33480927 200.24404083 -106.20477478 200.73026917 -105.04049683 201.23123169 C-99.65960951 203.54659951 -94.28018733 205.8652529 -88.90332031 208.18994141 C-86.98119333 209.01742344 -85.05899668 209.84474367 -83.13671875 210.671875 C-82.28295151 211.04265167 -81.42918427 211.41342834 -80.54954529 211.79544067 C-71.04908766 215.87319564 -62.25066503 218.85602531 -51.8125 219 C-50.70648438 219.02578125 -49.60046875 219.0515625 -48.4609375 219.078125 C-38.32652852 218.6183133 -28.86771289 214.53120501 -19.6875 210.5625 C-18.37653093 210.00358494 -17.06523582 209.44543416 -15.75366211 208.88793945 C-11.88050045 207.23839123 -8.01275036 205.57643486 -4.14544678 203.91320801 C-0.17497355 202.20767735 3.7985574 200.50931719 7.7718811 198.81044006 C19.65939187 193.72761769 31.541472 188.63218565 43.42153931 183.53199768 C55.31188349 178.42749096 67.20531442 173.33019816 79.09921265 168.23397827 C84.86575967 165.76308007 90.63208753 163.29167051 96.3984375 160.8203125 C98.72493384 159.82323972 101.05143124 158.82616943 103.37792969 157.82910156 C104.54900269 157.32721313 105.72007568 156.82532471 106.92663574 156.30822754 C148.26953125 138.58984375 148.26953125 138.58984375 151.64910889 137.14215088 C153.78980067 136.22425419 155.92983967 135.30483326 158.06915283 134.38372803 C162.38856128 132.52554593 166.70825258 130.67741866 171.06933594 128.91894531 C171.72050385 128.65276398 172.37167175 128.38658264 173.04257202 128.11233521 C174.65910097 127.45474779 176.28114448 126.8107562 177.90380859 126.16845703 C182.6463916 123.63820843 186.43107811 119.68592437 188.5625 114.75 C189.36453072 110.15815381 189.06606635 105.92838211 187.0625 101.6875 C184.29582522 97.97026649 180.96760717 96.13138621 176.875 94.16015625 C176.18104126 93.82016602 175.48708252 93.48017578 174.77209473 93.12988281 C165.48987857 88.65559474 155.97771314 84.68994951 146.48394775 80.69119263 C141.11433522 78.42938811 135.75083281 76.15318115 130.38635635 73.87922859 C128.51477249 73.08617208 126.64290694 72.29378393 124.77096558 71.50157166 C111.72554713 65.97960251 98.70561537 60.39849334 85.6875 54.8125 C83.36648383 53.81715301 81.04543882 52.82187325 78.72436523 51.82666016 C71.67010808 48.80181084 64.6162799 45.77596205 57.5625 42.75 C52.62374654 40.63139704 47.68495 38.51289458 42.74609375 36.39453125 C41.8301925 36.00167183 41.8301925 36.00167183 40.89578819 35.60087585 C30.89764232 31.31247219 20.89722126 27.0293997 10.89558411 22.74914551 C5.10855091 20.27170721 -0.67543305 17.78744292 -6.45487976 15.2923584 C-9.52906164 13.96624901 -12.60553843 12.64553316 -15.68264771 11.32623291 C-17.02757867 10.7480613 -18.37145199 10.16742104 -19.71408081 9.58392334 C-30.02650901 5.10335224 -39.87920898 1.19785408 -51.25 1.3125 C-51.94158203 1.29251953 -52.63316406 1.27253906 -53.34570312 1.25195312 C-68.04027306 1.26515579 -81.92744209 8.75443625 -95.0519104 14.56417847 Z M-75.4375 108.75 C-75.34405781 110.68117782 -75.34405781 110.68117782 -74.4375 112.75 C-64.0774246 119.27561626 -52.28939792 119.59746478 -40.57421875 117.5625 C-35.80751117 116.32778621 -31.66053595 114.24759688 -27.4375 111.75 C-27.55927688 109.83533633 -27.55927688 109.83533633 -28.4375 107.75 C-40.68728369 98.6544816 -63.77604296 98.77488111 -75.4375 108.75 Z M-190.4375 182.75 C-190.52608959 186.35400627 -190.57841522 189.95772545 -190.625 193.5625 C-190.65013672 194.56732422 -190.67527344 195.57214844 -190.70117188 196.60742188 C-190.85037991 212.07532131 -185.3107851 223.22457992 -174.83984375 234.375 C-149.85003481 259.08037209 -111.37784966 269.29162314 -77.4375 272.75 C-76.47328125 272.86085938 -75.5090625 272.97171875 -74.515625 273.0859375 C-59.57301528 274.5485739 -44.116832 274.37398501 -29.171875 272.98046875 C-16.6721227 271.9269182 -16.6721227 271.9269182 -12.4375 274.75 C-11.10411269 280.2613342 -11.10411269 280.2613342 -11.4375 282.75 C-13.73902892 285.81251244 -15.12959971 286.67730886 -18.89868164 287.56713867 C-20.2752635 287.72576664 -21.65451869 287.8622302 -23.03515625 287.98046875 C-23.78225357 288.05533005 -24.52935089 288.13019135 -25.29908752 288.20732117 C-33.8146422 288.99145253 -42.32924464 289.10214766 -50.875 289.0625 C-52.10949387 289.05976578 -52.10949387 289.05976578 -53.368927 289.05697632 C-98.28824088 288.89061852 -149.54690272 279.52044801 -183.37890625 247.6328125 C-185.49405742 245.60234952 -185.49405742 245.60234952 -188.4375 243.75 C-186.83114188 256.600865 -176.34076293 266.64150812 -166.75390625 274.30859375 C-140.12425016 294.3265298 -106.19998278 303.07139395 -73.4375 305.75 C-72.62071777 305.81848145 -71.80393555 305.88696289 -70.96240234 305.95751953 C-24.98628261 309.53123927 30.13336081 302.63259732 66.5625 271.75 C67.31015625 271.15832031 68.0578125 270.56664062 68.828125 269.95703125 C76.10585759 263.95413957 82.74702725 255.9041327 85.5625 246.75 C85.2325 245.76 84.9025 244.77 84.5625 243.75 C84.14742188 244.21148437 83.73234375 244.67296875 83.3046875 245.1484375 C74.54995353 254.41600107 60.49309983 266.45194028 47.625 268.6875 C44.93711192 268.74235486 43.10749958 268.45908196 40.5625 267.75 C39.7004974 264.34239598 39.2086024 261.26256575 39.5625 257.75 C41.6686424 254.89302738 44.48472926 253.43902053 47.5625 251.75 C64.02871546 242.58131185 80.4786944 230.52636913 86.2265625 211.68359375 C87.80826574 205.5934983 87.90656667 199.82115215 87.75 193.5625 C87.72969727 191.99145508 87.72969727 191.99145508 87.70898438 190.38867188 C87.6740968 187.84187876 87.6250887 185.29623675 87.5625 182.75 C84.01073075 183.3593523 80.93745425 184.30666926 77.63183594 185.73339844 C76.66745605 186.14678467 75.70307617 186.5601709 74.70947266 186.98608398 C73.66581543 187.43927002 72.6221582 187.89245605 71.546875 188.359375 C70.4429541 188.83415283 69.3390332 189.30893066 68.20166016 189.7980957 C65.19505165 191.09211355 62.19029869 192.3903328 59.186203 193.69017029 C56.04806861 195.04649755 52.90724445 196.39656432 49.76660156 197.74707031 C39.61252212 202.11504754 29.4644362 206.49689687 19.31640625 210.87890625 C13.70217844 213.30295869 8.08607637 215.72262412 2.46887207 218.13977051 C-0.62177722 219.47167695 -3.70985559 220.80941691 -6.79785156 222.14746094 C-21.57894943 228.52780656 -34.6851733 233.91054242 -51 234 C-51.91330078 234.020625 -52.82660156 234.04125 -53.76757812 234.0625 C-70.55195414 234.15620203 -84.65568361 227.13049985 -99.75 220.5625 C-102.11011583 219.54559778 -104.47072081 218.52983016 -106.83178711 217.51513672 C-111.79599852 215.37969138 -116.75766314 213.23851663 -121.71679688 211.09130859 C-132.76649366 206.30724054 -143.82455059 201.54262861 -154.88753796 196.78938007 C-157.99578901 195.45350616 -161.10291666 194.11512901 -164.20767212 192.77114868 C-167.66925867 191.27304538 -171.13322363 189.78056964 -174.59765625 188.2890625 C-175.62542175 187.8422261 -176.65318726 187.39538971 -177.71209717 186.93501282 C-179.13476898 186.32450325 -179.13476898 186.32450325 -180.58618164 185.70166016 C-181.40703751 185.34689606 -182.22789337 184.99213196 -183.07362366 184.62661743 C-185.51468443 183.72137701 -187.8752064 183.19091618 -190.4375 182.75 Z M-262.4375 284.75 C-263.98336876 287.84173752 -263.73109521 290.34429552 -263.4375 293.75 C-262.02083333 296.33333333 -262.02083333 296.33333333 -259.4375 297.75 C-255.45297016 298.31921855 -253.38256252 298.42149179 -250.0625 296.0625 C-248.21828193 293.43803583 -247.51580977 291.96070053 -247.4375 288.75 C-249.05905629 285.26365399 -250.20203292 283.90697806 -253.4375 281.75 C-257.73137011 281.75 -259.02616484 282.35284556 -262.4375 284.75 Z M-262.25 316.6875 C-267.23059228 323.6603292 -267.00838193 333.22401621 -267.7265625 341.51953125 C-267.83471283 342.7180925 -267.94286316 343.91665375 -268.05429077 345.15153503 C-268.28047727 347.67003272 -268.50386977 350.18878274 -268.72460938 352.70776367 C-269.06299146 356.56810671 -269.40964846 360.42763742 -269.7578125 364.28710938 C-269.97704133 366.73954058 -270.19580756 369.19201318 -270.4140625 371.64453125 C-270.51715729 372.79871048 -270.62025208 373.95288971 -270.72647095 375.14204407 C-270.82011932 376.21383408 -270.9137677 377.28562408 -271.01025391 378.38989258 C-271.13444199 379.80145378 -271.13444199 379.80145378 -271.26113892 381.24153137 C-271.41334791 383.40647322 -271.4375 385.57971412 -271.4375 387.75 C-261.2075 387.75 -250.9775 387.75 -240.4375 387.75 C-241.05252733 374.77166822 -241.90476388 361.84395171 -243.05712891 348.90234375 C-243.31586441 345.96176283 -243.55821109 343.02007814 -243.80078125 340.078125 C-243.96774631 338.18220301 -244.13567867 336.2863659 -244.3046875 334.390625 C-244.37356171 333.52391174 -244.44243591 332.65719849 -244.51339722 331.76422119 C-245.07071168 325.80727744 -246.04227676 320.4018543 -250.1875 315.8125 C-254.71875805 313.67273925 -258.14079294 313.85671291 -262.25 316.6875 Z " fill="#000000" transform="translate(307.4375,61.25)"/>
<path d="M0 0 C1.64761692 2.65449392 2.00033099 4.69577487 2.125 7.8125 C1.1875 10.5 1.1875 10.5 -0.875 12.8125 C-3.60885988 14.08179208 -6.01139836 14.97551955 -8.875 15.8125 C-10.22271484 16.24949219 -10.22271484 16.24949219 -11.59765625 16.6953125 C-17.12522267 18.38323512 -21.248729 19.33628173 -26.875 17.8125 C-29.875 15.8125 -29.875 15.8125 -30.8125 12 C-31.31662015 9.00425154 -30.93938426 7.92752161 -29.4296875 5.23046875 C-25.95773142 1.94432072 -22.62428611 1.09369599 -18.0625 -0.0625 C-17.28068359 -0.28679687 -16.49886719 -0.51109375 -15.69335938 -0.7421875 C-10.34781164 -2.17123953 -4.96071508 -3.14178622 0 0 Z " fill="#000000" transform="translate(335.875,326.1875)"/>
</svg>
