<?xml version="1.0" encoding="UTF-8"?>
<svg version="1.1" xmlns="http://www.w3.org/2000/svg" width="512" height="512">
<path d="M0 0 C1.44758725 -0.00489329 2.89517059 -0.01108513 4.34274733 -0.01845789 C8.30737788 -0.03482492 12.27180916 -0.03254612 16.23646164 -0.02708292 C20.51742224 -0.02440874 24.7983302 -0.03895177 29.07926941 -0.05117798 C37.46097815 -0.07221742 45.84261769 -0.0767737 54.22434972 -0.07499009 C61.03805998 -0.07368177 67.85174867 -0.07749017 74.66545486 -0.08491516 C76.62913978 -0.08701438 78.5928247 -0.08911199 80.55650961 -0.09120798 C81.53392963 -0.09225151 82.51134966 -0.09329504 83.51838847 -0.09437019 C101.99786518 -0.1132664 120.47730219 -0.11222419 138.95678456 -0.10540086 C155.85631607 -0.09982525 172.75569598 -0.12065271 189.65519206 -0.15376133 C207.01475718 -0.18750689 224.37424969 -0.20266562 241.73384821 -0.1980443 C251.47708498 -0.19580057 261.22018163 -0.20102882 270.96339035 -0.22593689 C279.25787166 -0.24696112 287.55213601 -0.25053081 295.84662627 -0.2316373 C300.07682267 -0.22248656 304.30661464 -0.22131593 308.5367794 -0.24199295 C312.41325687 -0.26073129 316.28899948 -0.25616821 320.16544922 -0.23344713 C321.56376478 -0.22926854 322.96213701 -0.23343658 324.36039262 -0.24704307 C332.81640098 -0.32369055 339.77488881 0.3025453 346.77993774 5.39440918 C351.31121407 10.25810711 355.02559929 15.33403808 355.03720665 22.14341354 C355.04365554 23.10089453 355.05010443 24.05837553 355.05674875 25.04487109 C355.05365154 26.0938826 355.05055434 27.14289411 355.04736328 28.22369385 C355.05189439 29.34036037 355.05642551 30.45702689 355.06109393 31.60753179 C355.0737912 35.36302994 355.0721141 39.11838407 355.07046509 42.87390137 C355.07644706 45.56098982 355.08319492 48.24806684 355.09082031 50.93515015 C355.10743821 57.485229 355.11293024 64.03527186 355.11404507 70.58537003 C355.11499531 75.91034518 355.11910439 81.23530845 355.12544632 86.56027985 C355.14306201 101.65861076 355.15228485 116.75691324 355.15078537 131.8552545 C355.1506655 133.07636458 355.1506655 133.07636458 355.15054321 134.32214355 C355.15046145 135.13721151 355.15037969 135.95227947 355.15029545 136.79204646 C355.14948278 149.99755023 355.16861483 163.20293987 355.19681995 176.40841064 C355.22555429 189.96873285 355.23935989 203.52899942 355.23763239 217.08935285 C355.23696861 224.70199987 355.2424555 232.31452731 355.26398849 239.92714691 C355.28220771 246.40980894 355.28654175 252.89229719 355.27296965 259.37497374 C355.26644317 262.68136793 355.26848792 265.98735989 355.28367615 269.2937355 C355.29909098 272.88185181 355.28984394 276.46909275 355.27441406 280.05718994 C355.28470119 281.09727856 355.29498832 282.13736719 355.30558717 283.20897365 C355.23649482 290.47993271 353.9102576 295.6803467 349.10415649 301.38269043 C348.56403931 301.81968262 348.02392212 302.2566748 347.46743774 302.70690918 C346.93505493 303.15679199 346.40267212 303.6066748 345.85415649 304.07019043 C340.35446275 307.58129435 335.95642369 308.76937068 329.44010925 308.69219971 C328.73487922 308.68826305 328.02964919 308.68432639 327.30304855 308.68027043 C324.95717449 308.6638957 322.61213515 308.62616524 320.26651001 308.58874512 C318.5771871 308.57319191 316.8878493 308.5591893 315.19850159 308.5466156 C311.56714909 308.51773125 307.93599972 308.48074918 304.30478096 308.43831635 C298.54922424 308.37400766 292.79383981 308.34561456 287.03797913 308.32537842 C285.57760368 308.31997831 285.57760368 308.31997831 284.0877257 308.3144691 C282.09709251 308.30711978 280.10645912 308.29982576 278.11582553 308.29258585 C264.72433772 308.24180249 251.33387594 308.16505501 237.94326782 308.00036621 C228.89942018 307.88941579 219.85694455 307.83248043 210.81239551 307.83605981 C206.03401202 307.83577101 201.25929207 307.80864055 196.4817524 307.71495819 C174.33977731 306.30830068 174.33977731 306.30830068 154.76053524 314.50487137 C152.33345671 316.98901737 150.2380542 319.56252028 148.25086784 322.40824127 C145.64259295 325.93014343 142.42647318 328.85981604 139.27993774 331.89440918 C138.13027299 333.04814428 136.98274934 334.20402189 135.83853149 335.36315918 C132.30534034 338.8952682 128.60303111 342.18092068 124.77993774 345.39440918 C124.22435181 345.90101074 123.66876587 346.4076123 123.09634399 346.92956543 C116.12509033 353.22462359 108.69842795 357.35563297 99.77993774 360.20690918 C99.13999878 360.41388428 98.50005981 360.62085938 97.84072876 360.83410645 C89.53658054 363.32147585 80.88606689 363.5311937 72.27212524 363.71081543 C70.99488083 363.74198708 70.99488083 363.74198708 69.6918335 363.77378845 C67.01293791 363.83836669 64.33395757 363.89773501 61.65493774 363.95690918 C59.82159619 364.000182 57.98826272 364.04379883 56.15493774 364.08776855 C51.69668782 364.19395167 47.23835402 364.29546759 42.77993774 364.39440918 C42.77851273 365.41203339 42.77708771 366.42965759 42.77561951 367.4781189 C42.75890169 377.09957899 42.71598242 386.72061874 42.64784718 396.341856 C42.61365362 401.2874945 42.58847909 406.2328266 42.5843811 411.17858887 C42.58008175 415.95753803 42.55148392 420.73579689 42.50650597 425.51453018 C42.49358311 427.33159479 42.48920468 429.14874223 42.49378395 430.96584702 C42.51541127 442.16039015 42.22340632 450.84966083 34.75259399 459.83190918 C34.12224243 460.34753418 33.49189087 460.86315918 32.84243774 461.39440918 C31.90077759 462.19878418 31.90077759 462.19878418 30.94009399 463.01940918 C26.17273096 466.05396938 21.53845314 466.64656763 15.97555542 466.66856384 C15.31594905 466.67380052 14.65634267 466.6790372 13.97674823 466.68443257 C11.77989742 466.69936146 9.58328099 466.70013613 7.38638306 466.70080566 C5.80568045 466.708432 4.22498153 466.71686032 2.64428711 466.72602844 C-1.64102355 466.74793481 -5.92626287 466.75676725 -10.21162319 466.76185489 C-12.89223254 466.76550333 -15.57282334 466.77174596 -18.2534256 466.77885628 C-27.61470863 466.80333833 -36.97593635 466.81639977 -46.33724976 466.81994629 C-55.0476124 466.82357957 -63.75762227 466.85346316 -72.46787715 466.89535087 C-79.95855049 466.93010393 -87.44910721 466.9454956 -94.93986058 466.94619232 C-99.4081927 466.94698349 -103.87616532 466.95564808 -108.34441376 466.98418999 C-112.55038328 467.01045659 -116.75569744 467.01252843 -120.96171188 466.99653435 C-122.49913595 466.9947266 -124.03659845 467.00134941 -125.57394028 467.01735306 C-134.29402714 467.10254255 -141.97033305 466.80214016 -149.22006226 461.39440918 C-151.55318722 458.88273419 -153.48211361 456.3477476 -155.22006226 453.39440918 C-155.56732864 452.83765503 -155.91459503 452.28090088 -156.27238464 451.70727539 C-160.80125246 440.65429153 -156.06640222 424.23643894 -154.11459351 412.92565918 C-153.78944794 410.99159276 -153.46513945 409.05738544 -153.14161682 407.12304688 C-152.46480786 403.09435039 -151.77887318 399.06735074 -151.08602905 395.04138184 C-150.20661069 389.92764032 -149.34893722 384.81054059 -148.49799061 379.69199371 C-147.83278441 375.70443173 -147.15659042 371.71879119 -146.47717857 367.73362732 C-146.15712818 365.84945467 -145.84018288 363.96475141 -145.52665138 362.07948303 C-141.29889239 336.76371948 -134.32221401 314.08197374 -113.41537476 297.61315918 C-96.15071018 285.62498133 -78.22547241 283.21889269 -57.80941772 283.3001709 C-56.38251809 283.30205396 -54.95561766 283.30339669 -53.52871704 283.304245 C-50.47536357 283.30651407 -47.42202691 283.31121468 -44.36867905 283.31744003 C-39.534943 283.32590063 -34.70128538 283.32037541 -29.86755371 283.31143188 C-28.63975183 283.30922538 -28.63975183 283.30922538 -27.38714588 283.30697429 C-25.71458299 283.30390421 -24.04202019 283.3007842 -22.36945748 283.29761529 C-11.13027807 283.27648246 0.10863952 283.26279456 11.34780884 283.2947998 C18.95040807 283.31634761 26.55255224 283.31316389 34.15512168 283.28139126 C38.1707667 283.26557349 42.18554052 283.26223131 46.20114517 283.28915024 C49.97573931 283.31423841 53.74887357 283.30657065 57.52339935 283.27427101 C58.90362209 283.26820081 60.28395841 283.2739541 61.66406631 283.29276466 C70.82499443 283.4160768 70.82499443 283.4160768 78.52578735 278.96580505 C79.63653893 277.79959364 80.72589693 276.61211855 81.77993774 275.39440918 C82.51196411 274.73013916 83.24399048 274.06586914 83.99819946 273.38146973 C85.885454 271.61671174 87.77209462 269.85137531 89.65493774 268.08190918 C90.70028687 267.10459839 90.70028687 267.10459839 91.76675415 266.10754395 C95.67116953 262.44065094 99.45088668 258.70006377 103.15493774 254.83190918 C111.64073765 246.30360944 121.79440334 241.26414915 133.96743774 241.20690918 C135.22556274 241.26878418 136.48368774 241.33065918 137.77993774 241.39440918 C138.11976685 239.66178833 138.11976685 239.66178833 138.46646118 237.89416504 C140.09432598 230.59195001 142.50430889 223.51264461 144.79556274 216.39831543 C145.2943128 214.84014342 145.79274001 213.28186805 146.29086304 211.72349548 C147.33413074 208.46238802 148.37995733 205.20211721 149.42788696 201.94250488 C150.75346203 197.81922253 152.07473596 193.69457983 153.39429092 189.56936741 C154.67238888 185.57437155 155.95262693 181.58006248 157.23306274 177.58581543 C157.468722 176.8501642 157.70438126 176.11451298 157.9471817 175.35656929 C159.08450257 171.80855694 160.22799384 168.26280514 161.38406372 164.72085571 C162.38596064 161.64436852 163.34320812 158.55690308 164.28421021 155.46127319 C164.79394206 153.83075671 165.30390526 152.20031253 165.81411743 150.56994629 C166.03696033 149.81131822 166.25980324 149.05269014 166.48939896 148.27107334 C167.97411832 143.60306403 169.42504337 141.04040986 173.77993774 138.39440918 C177.51169361 137.77244987 179.27154236 138.14021149 182.65493774 139.83190918 C185.19686189 142.89717066 185.1861304 144.81025132 185.08526611 148.70672607 C184.48473945 153.99292133 182.69831145 158.92547383 181.01040649 163.94909668 C180.61794235 165.15281418 180.22547821 166.35653168 179.82112122 167.59672546 C178.76577103 170.82677991 177.69927205 174.05272128 176.62758636 177.27736282 C175.52426022 180.60672951 174.43577461 183.940931 173.34683228 187.27502441 C172.04528631 191.25810721 170.74312444 195.24097042 169.43484497 199.22184753 C165.6750977 210.66658892 162.04610867 222.14934841 158.47265625 233.65338135 C158.04753392 235.02136548 157.62186495 236.38917991 157.19554138 237.75679016 C156.66246492 239.46754897 156.1319663 241.17911047 155.60171509 242.89074707 C154.77993774 245.39440918 154.77993774 245.39440918 153.77993774 247.39440918 C154.46056274 247.58003418 155.14118774 247.76565918 155.84243774 247.95690918 C164.44579091 252.16706073 169.54341831 260.94167607 172.59634399 269.74987793 C174.43067886 276.99742478 174.2369671 284.10926242 172.77993774 291.39440918 C193.89993774 291.39440918 215.01993774 291.39440918 236.77993774 291.39440918 C236.58286609 280.56466471 236.58286609 280.56466471 236.32949829 269.73620605 C236.1200727 256.35918276 236.1200727 256.35918276 240.39199829 250.76721191 C246.16195162 245.06018507 251.3499484 244.24614206 259.10684204 244.28088379 C259.95584076 244.28073776 260.80483948 244.28059174 261.67956543 244.28044128 C264.48778838 244.28113835 267.29594512 244.28892112 270.10415649 244.29675293 C272.05042993 244.29861784 273.99670383 244.3000414 275.94297791 244.30104065 C281.06727391 244.30486006 286.1915416 244.31468545 291.31582642 244.32574463 C296.544094 244.33597112 301.77236616 244.34054093 307.00064087 244.34558105 C317.26041894 244.35630821 327.52017599 244.37337775 337.77993774 244.39440918 C337.74280415 215.51820985 337.68299221 186.64213503 337.596035 157.7660408 C337.58810976 155.09919498 337.58021701 152.43234912 337.57241821 149.76550293 C337.57047684 149.10263569 337.56853547 148.43976845 337.56653526 147.75681433 C337.53549984 137.01862116 337.51853033 126.28044937 337.50674352 115.54221979 C337.49433992 104.52677748 337.46655839 93.51145128 337.42532468 82.49607921 C337.40264882 76.30762247 337.38703073 70.11932625 337.38805389 63.93082428 C337.38879689 58.10972043 337.37099151 52.28897224 337.33876991 46.46796036 C337.33022958 44.3281809 337.3285488 42.18836175 337.33413506 40.04857254 C337.3407343 37.13309676 337.32295227 34.21876615 337.29891968 31.30340576 C337.3066801 30.45126661 337.31444051 29.59912745 337.32243609 28.7211659 C337.27206974 25.2837503 337.21697833 22.97576352 335.1140368 20.17841649 C332.1727744 17.93033982 330.60427929 17.89333824 326.92654419 17.89104462 C325.72275871 17.88061363 324.51897324 17.87018264 323.27870941 17.85943556 C321.94122582 17.86808398 320.60374464 17.87711061 319.26626587 17.88647461 C317.84672658 17.88186699 316.42719205 17.875515 315.00766754 17.86756563 C311.10215665 17.85082982 307.19703549 17.85913773 303.29152298 17.87151051 C299.08149797 17.8805414 294.87154112 17.86660105 290.66152954 17.85559082 C282.41226693 17.83777998 274.16314967 17.84165697 265.9138813 17.85324138 C259.21109954 17.86226537 252.5083586 17.8635042 245.80557251 17.85914612 C244.37603139 17.85822672 244.37603139 17.85822672 242.91761065 17.85728875 C240.98171169 17.85600988 239.04581275 17.85471303 237.10991383 17.85339838 C218.94584291 17.84198507 200.78185267 17.85511806 182.61779499 17.87659985 C167.02336466 17.89447151 151.42905342 17.89136761 135.83462524 17.8729248 C117.73671252 17.85153134 99.63887056 17.84308378 81.54094696 17.85537386 C79.61206564 17.85664809 77.68318432 17.85790557 75.75430298 17.85914612 C74.80519185 17.85976322 73.85608071 17.86038032 72.87820864 17.86101612 C66.18145331 17.8644736 59.48474277 17.85863212 52.78799438 17.84922791 C44.62976645 17.83802346 36.47169251 17.84101513 28.31348228 17.86235088 C24.14892473 17.87288233 19.98462416 17.8769477 15.82006836 17.86375427 C12.01043426 17.85186754 8.20129627 17.8583307 4.39170742 17.87966448 C3.01088166 17.88414645 1.63001431 17.88182862 0.24921513 17.87216133 C-1.6227176 17.86005706 -3.49476712 17.8748243 -5.3666687 17.89104462 C-6.40797188 17.89169403 -7.44927505 17.89234344 -8.52213287 17.89301252 C-11.94094758 18.5283821 -13.1264738 19.66307259 -15.22006226 22.39440918 C-15.81086453 25.74668985 -15.81086453 25.74668985 -15.70248413 29.56213379 C-15.70835289 30.63360909 -15.70835289 30.63360909 -15.71434021 31.72673035 C-15.72030777 33.27414507 -15.71715849 34.82161599 -15.70591736 36.36900139 C-15.68864815 38.82004529 -15.69616613 41.26991045 -15.71017456 43.72096252 C-15.739819 49.80758907 -15.72663753 55.89399017 -15.71499634 61.98065186 C-15.70678948 67.12540021 -15.71474459 72.26963344 -15.74412537 77.41430855 C-15.75121417 79.8258847 -15.73454875 82.23655163 -15.7170105 84.64805603 C-15.72271932 86.13113899 -15.72953708 87.61421823 -15.73764038 89.09729004 C-15.73445801 90.38872421 -15.73127563 91.68015839 -15.72799683 93.01072693 C-16.30611143 96.98612537 -17.34418245 98.63163411 -20.22006226 101.39440918 C-23.71465688 102.33046131 -26.06611274 102.76866308 -29.53256226 101.64440918 C-31.22006226 100.39440918 -31.22006226 100.39440918 -33.22006226 97.39440918 C-33.42418191 94.90507182 -33.51379362 92.52666326 -33.5105896 90.03649902 C-33.51730682 89.28973907 -33.52402405 88.54297913 -33.53094482 87.77359009 C-33.54996502 85.30077478 -33.55385186 82.82823063 -33.55599976 80.35534668 C-33.56242793 78.63241464 -33.5691563 76.9094837 -33.57617188 75.18655396 C-33.58815683 71.57010369 -33.59185175 67.953749 -33.59066772 64.33728027 C-33.59046516 59.7205869 -33.61769681 55.10451343 -33.65221214 50.48796654 C-33.67454536 46.92584466 -33.67850321 43.36387003 -33.67744827 39.80168533 C-33.67979729 38.10095725 -33.68858114 36.40022467 -33.70411301 34.69956589 C-33.78694451 24.68737558 -33.57268449 16.50880708 -27.57943726 8.08972168 C-27.04834351 7.57151855 -26.51724976 7.05331543 -25.97006226 6.51940918 C-25.44928101 5.9857373 -24.92849976 5.45206543 -24.39193726 4.90222168 C-16.80793668 -0.3629298 -8.88804515 -0.03722364 0 0 Z M114.77993774 268.39440918 C113.90208618 269.26839355 113.90208618 269.26839355 113.00650024 270.16003418 C111.84764846 271.32412964 110.69274017 272.49216312 109.54165649 273.66394043 C107.78552199 275.38892399 105.96629379 276.98623382 104.09243774 278.58190918 C101.58162292 280.72362937 99.22724613 282.93792168 96.95571899 285.32800293 C96.45193726 285.8530542 95.94815552 286.37810547 95.42910767 286.91906738 C94.44759865 287.94962827 93.47672613 288.99047969 92.5194397 290.0435791 C86.54594954 296.28835799 79.76038028 299.60681542 71.09091187 300.02018738 C68.51830881 300.04610829 65.94534206 300.04508863 63.37271118 300.02209473 C61.9456845 300.02728347 60.51866445 300.03469114 59.09165955 300.04412842 C56.03651093 300.0596106 52.9819115 300.05958022 49.92675018 300.04712486 C45.08282469 300.02745062 40.23937955 300.04286292 35.39547729 300.06257629 C27.72362894 300.08966269 20.05197862 300.09323051 12.38009191 300.08680326 C-1.33387342 300.07585852 -15.04777749 300.10070311 -28.76168227 300.14055091 C-33.56316917 300.15352045 -38.36447405 300.15494142 -43.16596937 300.14641798 C-46.17015531 300.14275688 -49.17429603 300.1471347 -52.17847633 300.15325928 C-54.20580771 300.15483759 -56.23313948 300.146473 -58.26045227 300.13764954 C-78.1791309 300.20081702 -94.83576384 303.79268886 -109.69271851 317.71081543 C-124.11140959 332.70721701 -126.38742858 353.16010595 -129.67318726 372.83190918 C-129.98099332 374.65081787 -130.28916722 376.46966434 -130.59768677 378.28845215 C-131.23699525 382.06609277 -131.87178648 385.84445603 -132.50326538 389.62341309 C-133.31032726 394.45074019 -134.12907988 399.27600023 -134.95119095 404.1007843 C-135.58733879 407.84215592 -136.21723153 411.58456011 -136.84526825 415.32730103 C-137.14473725 417.10731673 -137.44614218 418.88700794 -137.74958038 420.66635132 C-138.17221969 423.15020555 -138.58636089 425.63533714 -138.99838257 428.12097168 C-139.12300873 428.84318405 -139.24763489 429.56539642 -139.3760376 430.30949402 C-140.99238489 439.20190257 -140.99238489 439.20190257 -138.22909546 447.3638916 C-134.44710911 449.91600361 -131.47952614 450.03631991 -127.07553101 449.88269043 C-126.30574417 449.87561569 -125.53595734 449.86854095 -124.74284363 449.86125183 C-122.29673922 449.83337843 -119.85296842 449.77066055 -117.40756226 449.70690918 C-115.74418398 449.68181686 -114.08076964 449.65900531 -112.41732788 449.6385498 C-108.35068068 449.58357589 -104.28576637 449.49735845 -100.22006226 449.39440918 C-98.79041309 444.65922543 -97.73105908 440.03870342 -96.9390564 435.14562988 C-96.77028236 434.1149791 -96.77028236 434.1149791 -96.59809875 433.06350708 C-96.35633627 431.58516676 -96.11633533 430.10653745 -95.87794685 428.62764931 C-95.49960143 426.28541663 -95.1148638 423.9443166 -94.72822571 421.60343933 C-93.63031335 414.9525631 -92.53950089 408.30057185 -91.46347046 401.64611816 C-90.8030098 397.5645331 -90.13153367 393.4848888 -89.45300102 389.40627098 C-89.19725924 387.8556338 -88.94571102 386.30429884 -88.69847298 384.7522831 C-88.35283998 382.5846711 -87.99325507 380.41980118 -87.63046265 378.25500488 C-87.42997818 377.02369339 -87.22949371 375.7923819 -87.02293396 374.52375793 C-86.2174318 371.38415646 -85.4724156 369.69539295 -83.22006226 367.39440918 C-79.81959699 366.35948497 -77.82978212 366.21826788 -74.40756226 367.20690918 C-72.22006226 368.39440918 -72.22006226 368.39440918 -71.22006226 370.39440918 C-70.69792355 377.37038569 -71.59049462 384.15041682 -72.72006226 391.01940918 C-72.86314819 391.92819824 -73.00623413 392.8369873 -73.15365601 393.77331543 C-73.50232115 395.98152801 -73.85785052 398.1883856 -74.22006226 400.39440918 C-72.92906616 400.40375488 -71.63807007 400.41310059 -70.30795288 400.42272949 C-65.4918541 400.46277479 -60.67638435 400.52857403 -55.86068726 400.60192871 C-53.78134273 400.63005417 -51.70189297 400.65131039 -49.62240601 400.66540527 C-46.62316334 400.68695156 -43.62517481 400.73366194 -40.62631226 400.78503418 C-39.24457825 400.78687714 -39.24457825 400.78687714 -37.83493042 400.78875732 C-31.89172186 400.92188324 -27.13737468 401.90041245 -22.22006226 405.39440918 C-17.79150399 410.95849521 -17.05762676 415.4330362 -16.90365601 422.34362793 C-16.87248436 423.50255302 -16.87248436 423.50255302 -16.84068298 424.68489075 C-16.77535188 427.15047398 -16.71637911 429.61616279 -16.65756226 432.08190918 C-16.61436139 433.75444609 -16.57074659 435.42697237 -16.52670288 437.0994873 C-16.41968735 441.19768668 -16.31837369 445.29599214 -16.22006226 449.39440918 C-11.16640933 449.49338099 -6.11332201 449.56592521 -1.05892944 449.61413574 C0.65992053 449.63423546 2.37870226 449.66152007 4.09732056 449.69616699 C6.56982264 449.74475952 9.04141985 449.76739353 11.51431274 449.78503418 C12.28112366 449.80567932 13.04793457 449.82632446 13.83798218 449.84759521 C17.40896191 449.84909273 19.36721694 449.7138449 22.23403931 447.49499512 C25.11166317 443.58484418 24.92507092 440.37803876 24.92178345 435.6751709 C24.92525787 434.87818283 24.9287323 434.08119476 24.93231201 433.26005554 C24.93967436 431.52544734 24.94501718 429.79082968 24.94860268 428.05620956 C24.95576464 425.30657055 24.97143107 422.55711036 24.98994446 419.80752563 C25.04241309 411.98820513 25.09035157 404.16897989 25.10586548 396.3494873 C25.11597379 391.56833624 25.14537518 386.78763116 25.18718529 382.00665665 C25.19946469 380.18793239 25.20462215 378.36914504 25.20238686 376.55038071 C25.2000214 373.99644567 25.22229503 371.44377781 25.24990845 368.89001465 C25.24330704 368.14580765 25.23670563 367.40160065 25.22990417 366.63484192 C25.34623111 360.0431547 27.47198786 354.76473608 32.09243774 350.01940918 C38.56243842 346.10731575 44.9675637 346.1132871 52.32290649 346.12097168 C54.38736496 346.10067438 56.45181804 346.07982345 58.51626587 346.05847168 C61.73709677 346.03595694 64.9577136 346.01942692 68.17861938 346.0135498 C95.56000526 345.92949981 109.09836796 337.15770966 128.20449829 317.98278809 C129.4152988 316.76340494 130.62510805 315.54303666 131.83389282 314.32165527 C135.44574583 310.6840574 139.14722444 307.23011115 143.04165649 303.89440918 C150.22079072 297.69938099 156.11507796 291.34936686 156.86978149 281.46081543 C156.56925981 274.54881679 153.5500714 269.09496536 148.87759399 264.12487793 C137.01066967 254.33521782 124.67038914 258.54465923 114.77993774 268.39440918 Z M253.77993774 262.39440918 C253.69218169 264.53999745 253.67298555 266.68845339 253.68228149 268.83581543 C253.68550415 270.14099121 253.68872681 271.44616699 253.69204712 272.79089355 C253.70040373 274.17956608 253.70886869 275.56823795 253.71743774 276.95690918 C253.72245108 278.34948574 253.72701428 279.74206399 253.73110962 281.13464355 C253.74294341 284.55460788 253.75942894 287.97448762 253.77993774 291.39440918 C263.99382675 291.48711604 274.20761556 291.55817769 284.42183971 291.60165787 C289.16481075 291.62252694 293.90749379 291.6508321 298.65029907 291.69616699 C303.22795248 291.7396491 307.80532899 291.76355141 312.38317299 291.77391815 C314.12909618 291.78130529 315.87500433 291.79573076 317.62080956 291.81732941 C320.06765792 291.84639547 322.51336425 291.85036394 324.96035767 291.84851074 C325.68108963 291.86289185 326.40182159 291.87727295 327.14439392 291.89208984 C330.58341232 291.86393287 332.71693578 291.42951784 335.73814392 289.74591064 C338.34441955 286.74430447 338.36466728 285.25137417 338.26821899 281.31628418 C338.25210571 280.15612793 338.23599243 278.99597168 338.21939087 277.80065918 C338.17749634 276.59409668 338.13560181 275.38753418 338.09243774 274.14440918 C338.06987915 272.92237793 338.04732056 271.70034668 338.02407837 270.44128418 C337.96515532 267.42442416 337.8829304 264.41003403 337.77993774 261.39440918 C326.97535689 261.37128606 316.17078188 261.35349425 305.36618137 261.34259701 C300.34971305 261.33736811 295.33326159 261.33027035 290.31680298 261.31896973 C285.47984081 261.30814108 280.64289491 261.30213239 275.80592155 261.29953194 C273.95625489 261.29767765 272.10658917 261.29405696 270.2569294 261.28867912 C267.67546761 261.28146898 265.09407392 261.28041823 262.51260376 261.28088379 C261.74008774 261.27728851 260.96757172 261.27369324 260.17164612 261.26998901 C256.68462084 260.95729855 256.68462084 260.95729855 253.77993774 262.39440918 Z M-77.22006226 417.39440918 C-77.93661255 421.30799344 -78.64855465 425.22238549 -79.35629272 429.13757324 C-79.59754903 430.46853082 -79.84004911 431.79926359 -80.08383179 433.12976074 C-80.43462135 435.04550128 -80.78052493 436.96213444 -81.12631226 438.87878418 C-81.33578491 440.03088379 -81.54525757 441.1829834 -81.76107788 442.36999512 C-82.32009012 445.54368837 -82.32009012 445.54368837 -82.22006226 449.39440918 C-66.05006226 449.39440918 -49.88006226 449.39440918 -33.22006226 449.39440918 C-33.19943726 444.30003418 -33.17881226 439.20565918 -33.15756226 433.95690918 C-33.14845825 432.34759521 -33.13935425 430.73828125 -33.12997437 429.0802002 C-33.12747681 427.82392822 -33.12497925 426.56765625 -33.12240601 425.27331543 C-33.11716919 423.97982178 -33.11193237 422.68632812 -33.10653687 421.3536377 C-32.88009293 418.50788514 -32.88009293 418.50788514 -34.22006226 417.39440918 C-35.57101208 417.30171919 -36.92673316 417.27693592 -38.28085327 417.28088379 C-39.14167007 417.28095932 -40.00248688 417.28103485 -40.88938904 417.28111267 C-42.29250587 417.2888546 -42.29250587 417.2888546 -43.72396851 417.29675293 C-45.15349098 417.29887535 -45.15349098 417.29887535 -46.6118927 417.30104065 C-49.66881391 417.30665766 -52.72566302 417.31921302 -55.78256226 417.33190918 C-57.84961849 417.33692199 -59.91667587 417.34148527 -61.98373413 417.34558105 C-67.06253813 417.35663262 -72.14128796 417.37390863 -77.22006226 417.39440918 Z " fill="#000000" transform="translate(157.22006225585938,22.6055908203125)"/>
<path d="M0 0 C16.01252516 12.52158866 25.66039147 29.99288944 29.015625 49.96875 C31.30074706 69.40316902 26.74479965 88.44100522 15.42578125 104.45703125 C12.59398461 107.96867321 9.58552205 111.23907077 6.42578125 114.45703125 C5.74902344 115.15828125 5.07226562 115.85953125 4.375 116.58203125 C-9.61228011 130.06882487 -29.05359001 135.88908385 -48.16796875 135.671875 C-59.29312386 134.9701737 -69.58000956 132.42675445 -79.57421875 127.45703125 C-81.01667969 126.77060547 -81.01667969 126.77060547 -82.48828125 126.0703125 C-99.74174554 117.03386748 -111.63028026 101.06467821 -117.609375 82.78515625 C-123.45073157 62.63602347 -121.21371195 42.12362631 -111.57421875 23.45703125 C-109.47037578 19.9102648 -107.15228125 16.67296488 -104.57421875 13.45703125 C-103.91808594 12.62558594 -103.26195313 11.79414063 -102.5859375 10.9375 C-77.25875335 -19.20509027 -31.18592281 -22.95041698 0 0 Z M-91.57421875 24.83203125 C-100.17682596 36.40105473 -105.17623043 50.95981445 -103.57421875 65.45703125 C-100.17066303 83.50507539 -93.03347914 98.0601558 -77.41015625 108.73828125 C-63.92794592 116.90931781 -49.14940965 120.36868722 -33.515625 117.24609375 C-24.63495676 114.86376309 -16.92730592 110.92395578 -9.57421875 105.45703125 C-8.56359375 104.73515625 -7.55296875 104.01328125 -6.51171875 103.26953125 C4.48331041 93.70996423 11.07046217 78.70420775 12.23828125 64.39453125 C13.13614856 48.16878632 7.80488914 33.76420258 -2.57421875 21.45703125 C-13.78147971 9.25746072 -28.90021451 2.73149904 -45.38671875 2.01953125 C-63.815386 2.60379547 -79.70615779 10.73870886 -91.57421875 24.83203125 Z " fill="#000000" transform="translate(174.57421875,147.54296875)"/>
<path d="M0 0 C0.95186559 -0.00445784 1.90373119 -0.00891569 2.8844412 -0.01350862 C4.4639301 -0.01323207 4.4639301 -0.01323207 6.07532787 -0.01294994 C7.18831869 -0.01662663 8.3013095 -0.02030332 9.44802731 -0.02409142 C13.20288301 -0.03516444 16.95771107 -0.0389782 20.71258068 -0.04278088 C23.39438576 -0.04904272 26.07618785 -0.05567613 28.75799084 -0.0626936 C36.82398705 -0.08246818 44.88998453 -0.09252524 52.95599893 -0.10142139 C56.75235961 -0.10580245 60.54871889 -0.11116971 64.34507847 -0.11641026 C76.96133955 -0.13342313 89.57759975 -0.14791816 102.19387054 -0.155159 C105.46882472 -0.15706896 108.74377888 -0.15898928 112.01873302 -0.16094494 C113.23972594 -0.16167055 113.23972594 -0.16167055 114.48538538 -0.16241082 C127.67687102 -0.17071431 140.86826608 -0.19605631 154.05971215 -0.22852562 C167.59621999 -0.26157325 181.13268176 -0.27960565 194.66923016 -0.28280324 C202.27231791 -0.28497042 209.87527354 -0.29374933 217.47832203 -0.31926441 C223.95232578 -0.34094008 230.42616532 -0.34903736 236.90020124 -0.33929763 C240.20419175 -0.33474376 243.50777144 -0.33887045 246.81173038 -0.35605907 C250.39223578 -0.37364802 253.97187399 -0.36673517 257.55237865 -0.35352612 C258.59867909 -0.36449536 259.64497953 -0.37546461 260.72298604 -0.38676625 C265.11674056 -0.34748025 267.7729958 -0.2910957 271.62632561 1.94986153 C274.24952544 5.00098085 274.50432873 7.14703589 274.50432873 11.13422108 C273.15870473 14.0817784 272.41878329 15.6769938 269.50432873 17.13422108 C267.99683926 17.2300965 266.48516291 17.26338701 264.9746294 17.26564884 C264.01518032 17.26948999 263.05573123 17.27333113 262.06720793 17.27728868 C261.00575131 17.27642219 259.94429469 17.27555571 258.85067272 17.27466297 C257.72880924 17.27763409 256.60694575 17.28060522 255.4510864 17.28366637 C251.66625482 17.29238526 247.88145474 17.2938643 244.09661388 17.29535389 C241.39348188 17.29944012 238.69035324 17.30498322 235.98722363 17.31039906 C228.62573966 17.32399371 221.26426113 17.33000878 213.9027667 17.33440971 C209.30860211 17.33717008 204.71443962 17.34140703 200.12027645 17.34591389 C187.40707627 17.35810775 174.69387779 17.36840702 161.98067188 17.37178898 C161.16665528 17.37200854 160.35263867 17.37222811 159.5139549 17.37245433 C158.28996591 17.37278175 158.28996591 17.37278175 157.04124987 17.37311578 C155.38766678 17.37355925 153.73408369 17.37400581 152.0805006 17.37445545 C151.26026179 17.37467688 150.44002297 17.37489831 149.59492843 17.37512645 C136.29932088 17.37907582 123.00376809 17.39653354 109.70818169 17.41981497 C96.06658717 17.44351003 82.42502015 17.45598998 68.78340471 17.4571569 C61.12057189 17.45807467 53.45781042 17.46385264 45.79499722 17.48197651 C39.27084365 17.49735259 32.74678349 17.50251275 26.22261526 17.49423841 C22.89245461 17.49032302 19.56263567 17.49292559 16.23247242 17.50529575 C12.62546807 17.51791206 9.01895219 17.51219454 5.41195202 17.50171375 C4.35495684 17.50977016 3.29796167 17.51782656 2.20893633 17.5261271 C0.76193946 17.51624233 0.76193946 17.51624233 -0.71428967 17.50615788 C-1.54707137 17.50675496 -2.37985307 17.50735205 -3.23787057 17.50796723 C-6.03585316 17.0448018 -7.41682131 16.0292307 -9.49567127 14.13422108 C-10.5594603 11.48582965 -10.74445162 8.97031708 -10.49567127 6.13422108 C-7.54801975 1.35699275 -5.45774878 0.01182018 0 0 Z " fill="#000000" transform="translate(190.49567127227783,118.86577892303467)"/>
<path d="M0 0 C2.53257244 2.0004704 3.82820954 3.19102295 4.50615788 6.38354397 C4.51036826 7.717777 4.51036826 7.717777 4.5146637 9.07896423 C4.52738815 10.10376389 4.54011261 11.12856354 4.55322266 12.18441772 C4.54669678 13.3029715 4.5401709 14.42152527 4.53344727 15.57397461 C4.54206284 16.75646286 4.55067841 17.93895111 4.55955505 19.15727234 C4.5783668 22.39714379 4.57910982 25.636371 4.57023358 28.87626719 C4.56512131 31.58255276 4.57241822 34.28874671 4.57970566 36.99502283 C4.59670471 43.38047111 4.5931393 49.76568042 4.57641602 56.15112305 C4.55949604 62.73490371 4.57532664 69.31802129 4.6076389 75.90172952 C4.63434561 81.55794232 4.64160794 87.21394883 4.63312382 92.87021834 C4.62819739 96.24686463 4.63039381 99.62311204 4.65091133 102.99970818 C4.66830028 106.76584281 4.65385854 110.53055392 4.63110352 114.29663086 C4.64279572 115.4131604 4.65448792 116.52968994 4.66653442 117.68005371 C4.57380356 125.2106631 4.57380356 125.2106631 1.67930603 129.19239807 C-1.88189066 131.5949702 -3.78606873 131.75248773 -8 131 C-10.67930603 129.19239807 -10.67930603 129.19239807 -13 126 C-13.74634587 122.10299983 -13.67254721 118.25423619 -13.63110352 114.29663086 C-13.63825882 113.11239029 -13.64541412 111.92814972 -13.65278625 110.70802307 C-13.66678106 107.4681197 -13.65838253 104.22925289 -13.63869596 100.9894073 C-13.62228726 97.59600188 -13.63112524 94.20264778 -13.63621521 90.80921936 C-13.64073312 85.11218108 -13.62488403 79.41547146 -13.59692383 73.71850586 C-13.5648575 67.13417822 -13.56489433 60.55044275 -13.5821386 53.96607298 C-13.59800642 47.62764692 -13.59126962 41.28943777 -13.57420158 34.95102119 C-13.56733322 32.25528749 -13.56836113 29.55972775 -13.57574654 26.86399651 C-13.58118403 23.10028001 -13.56086874 19.33757583 -13.53344727 15.57397461 C-13.53997314 14.45542084 -13.54649902 13.33686707 -13.55322266 12.18441772 C-13.5404982 11.15961807 -13.52777374 10.13481842 -13.5146637 9.07896423 C-13.51185678 8.18947555 -13.50904985 7.29998686 -13.50615788 6.38354397 C-12.83666685 3.23084918 -11.43983107 2.03440127 -9 0 C-5.81452856 -1.59273572 -3.39809153 -0.76164121 0 0 Z " fill="#000000" transform="translate(327,358)"/>
<path d="M0 0 C1.44678886 -0.00856522 1.44678886 -0.00856522 2.92280579 -0.01730347 C4.5078466 -0.01898026 4.5078466 -0.01898026 6.12490845 -0.02069092 C7.23897568 -0.02565582 8.35304291 -0.03062073 9.50086975 -0.03573608 C13.19407768 -0.05036655 16.88724268 -0.05716085 20.58047485 -0.06268311 C23.14253745 -0.06843338 25.70460003 -0.07419112 28.2666626 -0.07995605 C32.95449405 -0.08912412 37.64230828 -0.09542372 42.33014715 -0.09845281 C49.22669509 -0.10293379 56.12304487 -0.12048526 63.01953256 -0.1494534 C68.99588027 -0.17368402 74.9721343 -0.18139754 80.94853592 -0.18312836 C83.4898855 -0.18615896 86.03123417 -0.19420113 88.57255173 -0.20731354 C92.12531368 -0.22433758 95.67759119 -0.22250252 99.2303772 -0.21600342 C100.28302261 -0.2252182 101.33566803 -0.23443298 102.42021179 -0.243927 C111.43912188 -0.19215472 111.43912188 -0.19215472 115.30703735 3.14044189 C117.64872499 6.65297335 117.80327413 8.00513545 117.30703735 12.14044189 C116.0032196 14.79730225 116.0032196 14.79730225 113.30703735 17.14044189 C109.47936479 17.90457425 105.68469191 17.8020781 101.79312134 17.75567627 C100.61717407 17.76122528 99.44122681 17.76677429 98.22964478 17.77249146 C95.00832499 17.782277 91.78805684 17.76968852 88.56683612 17.74620628 C85.19565834 17.72609279 81.82451587 17.73197701 78.45329285 17.73431396 C72.79315096 17.7342604 67.13334303 17.71450952 61.47329712 17.68243408 C54.9282328 17.64552371 48.38360566 17.63676099 41.83845085 17.64373159 C35.54221975 17.65003473 29.24613865 17.63928706 22.94993782 17.61976624 C20.2701612 17.61158875 17.5904612 17.60888331 14.91067314 17.61045837 C11.17072294 17.60866683 7.43140087 17.58733949 3.69155884 17.56036377 C2.57718948 17.56329437 1.46282013 17.56622498 0.31468201 17.56924438 C-0.70177399 17.55789459 -1.71822998 17.5465448 -2.76548767 17.53485107 C-3.64982263 17.53112236 -4.53415758 17.52739365 -5.44529057 17.52355194 C-8.20298415 17.05351001 -9.05841459 16.38523401 -10.69296265 14.14044189 C-12.35826375 7.25719732 -12.35826375 7.25719732 -9.94296265 3.20294189 C-6.72225863 0.25062988 -4.20130771 0.01489941 0 0 Z " fill="#000000" transform="translate(191.69296264648438,76.85955810546875)"/>
<path d="M0 0 C1.30578003 -0.0131424 1.30578003 -0.0131424 2.63793945 -0.02655029 C5.50913665 -0.04851729 8.37878776 -0.03400134 11.25 -0.01708984 C13.24870092 -0.02045876 15.24739984 -0.025312 17.24609375 -0.03158569 C21.43249032 -0.03895336 25.61835304 -0.02825475 29.8046875 -0.00488281 C35.16848239 0.02360472 40.53102639 0.00720021 45.89477539 -0.02274513 C50.02125458 -0.04082084 54.14743763 -0.03505878 58.27392578 -0.02210617 C60.25146635 -0.01877292 62.22903389 -0.02285637 64.20654297 -0.03450394 C66.97175203 -0.04721708 69.73494125 -0.02782972 72.5 0 C73.31573486 -0.01012115 74.13146973 -0.02024231 74.97192383 -0.03067017 C79.18711595 0.04784592 80.8064502 0.30460316 84.2578125 2.96865845 C86.25 5.64697266 86.25 5.64697266 86.875 9.14697266 C86.07105171 13.64908308 84.85237923 14.86753752 81.25 17.64697266 C78.32786854 18.35945835 75.49640218 18.3210246 72.5 18.27807617 C71.62947998 18.28523148 70.75895996 18.29238678 69.86206055 18.29975891 C66.99083628 18.31663731 64.12117529 18.29724861 61.25 18.27587891 C59.25130077 18.27670768 57.25260161 18.2791674 55.25390625 18.28318787 C51.06749933 18.28604528 46.8816276 18.27134996 42.6953125 18.24389648 C37.33164616 18.20981401 31.96893676 18.21583256 26.60522461 18.23455906 C22.47876016 18.24513238 18.35251801 18.23618816 14.22607422 18.22117424 C12.24854187 18.21599442 10.27098629 18.2164718 8.29345703 18.22271919 C5.52846433 18.22817536 2.76483708 18.20778362 0 18.18041992 C-1.22360229 18.19020874 -1.22360229 18.19020874 -2.47192383 18.20019531 C-6.34709292 18.13505061 -8.352695 17.88305189 -11.7578125 15.85972595 C-14.13788322 13.2161448 -14.34414647 11.26140506 -14.4140625 7.74462891 C-12.10340477 0.44566891 -6.55927638 -0.08138361 0 0 Z " fill="#000000" transform="translate(372.75,217.35302734375)"/>
<path d="M0 0 C0.71446289 -0.00700928 1.42892578 -0.01401855 2.16503906 -0.02124023 C4.51667643 -0.03878412 6.86710132 -0.02721147 9.21875 -0.01367188 C10.8587263 -0.01636786 12.49870104 -0.02025116 14.13867188 -0.02526855 C17.57176976 -0.03115867 21.00445068 -0.02261668 24.4375 -0.00390625 C28.83265371 0.01888344 33.22683036 0.00575769 37.62194824 -0.01819611 C41.00723601 -0.03266748 44.39229308 -0.02804204 47.77758789 -0.01768494 C49.39786902 -0.01502133 51.01817127 -0.01827454 52.63842773 -0.02760315 C54.90534747 -0.03779139 57.17069689 -0.0222386 59.4375 0 C60.72591797 0.00318237 62.01433594 0.00636475 63.34179688 0.00964355 C67.277665 0.6016457 68.94311055 1.71546844 71.71875 4.51757812 C72.3828125 6.73632812 72.3828125 6.73632812 72.34375 9.01757812 C72.36308594 10.14679688 72.36308594 10.14679688 72.3828125 11.29882812 C71.38236157 14.64151123 69.61173983 15.63728019 66.71875 17.51757812 C63.34179688 18.0255127 63.34179688 18.0255127 59.4375 18.03515625 C58.36580566 18.04567017 58.36580566 18.04567017 57.27246094 18.05639648 C54.92082357 18.07394037 52.57039868 18.06236772 50.21875 18.04882812 C48.5787737 18.05152411 46.93879896 18.05540741 45.29882812 18.0604248 C41.86573024 18.06631492 38.43304932 18.05777293 35 18.0390625 C30.60484629 18.01627281 26.21066964 18.02939856 21.81555176 18.05335236 C18.43026399 18.06782373 15.04520692 18.06319829 11.65991211 18.05284119 C10.03963098 18.05017758 8.41932873 18.05343079 6.79907227 18.0627594 C4.53215253 18.07294764 2.26680311 18.05739485 0 18.03515625 C-1.28841797 18.03197388 -2.57683594 18.0287915 -3.90429688 18.0255127 C-7.840165 17.43351055 -9.50561055 16.31968781 -12.28125 13.51757812 C-12.9453125 11.29882812 -12.9453125 11.29882812 -12.90625 9.01757812 C-12.91914063 8.26476562 -12.93203125 7.51195312 -12.9453125 6.73632812 C-11.10134173 0.57529637 -5.63134613 0.01390934 0 0 Z " fill="#000000" transform="translate(391.28125,160.482421875)"/>
<path d="M0 0 C1.7774334 -0.02409439 1.7774334 -0.02409439 3.59077454 -0.04867554 C9.01234474 -0.09302853 14.43376918 -0.13462981 19.85546875 -0.15722656 C22.71809875 -0.17056268 25.58001533 -0.1984077 28.44238281 -0.23925781 C32.56221565 -0.29805256 36.6812832 -0.31588571 40.80151367 -0.33056641 C42.08185989 -0.35323578 43.36220612 -0.37590515 44.68135071 -0.39926147 C54.56047126 -0.37568849 54.56047126 -0.37568849 57.65185547 2.50683594 C59.90644569 6.08465241 60.08636333 8.03833801 59.34448242 12.19287109 C57.69034481 14.80460469 56.98951519 15.77168015 54.34448242 17.19287109 C49.85792978 17.94559083 45.41173754 17.86902043 40.87182617 17.82177734 C39.55662491 17.8241893 38.24142365 17.82660126 36.8863678 17.8290863 C34.10801144 17.83193909 31.3304636 17.81729448 28.55224609 17.78979492 C24.99538422 17.75567756 21.43996415 17.7617451 17.8830328 17.7804575 C14.48332091 17.79357898 11.08402799 17.77531189 7.68432617 17.75927734 C6.40822983 17.76423721 5.13213348 17.76919708 3.81736755 17.77430725 C2.63256302 17.75847092 1.44775848 17.74263458 0.22705078 17.72631836 C-0.8148793 17.72011978 -1.85680939 17.7139212 -2.93031311 17.70753479 C-6.3676296 17.05838643 -7.53474684 15.92891548 -9.65551758 13.19287109 C-10.74494709 9.19829622 -11.07689405 7.11588623 -9.34301758 3.31787109 C-6.52852 -0.22631104 -4.35102428 0.05347621 0 0 Z " fill="#000000" transform="translate(239.655517578125,160.80712890625)"/>
</svg>
