<?xml version="1.0" encoding="UTF-8"?>
<svg version="1.1" xmlns="http://www.w3.org/2000/svg" width="512" height="512">
<path d="M0 0 C3.5 -0.3125 3.5 -0.3125 7 0 C9 2 9 2 9 5 C10.68996094 4.92072266 10.68996094 4.92072266 12.4140625 4.83984375 C17.36721948 4.83875419 21.66780245 6.13876488 26.375 7.5625 C34.26133735 9.79343318 40.79576574 11.10647577 48.625 7.9375 C52.13300444 6.55276141 55.2453184 6.87272266 59 7 C62.23055429 12.1684024 61.41012496 18.38495876 61.42553711 24.27172852 C61.43744613 26.42774726 61.48666294 28.58091192 61.53710938 30.73632812 C61.5465736 32.11456944 61.55380864 33.49282824 61.55859375 34.87109375 C61.57204834 36.11818115 61.58550293 37.36526855 61.59936523 38.65014648 C60.83634876 42.91464709 59.33097866 44.31833374 56 47 C44.65951665 52.57076375 33.86860506 51.00949261 22 48 C19.54263017 47.43330561 17.08433805 46.87059083 14.625 46.3125 C12.76875 45.879375 10.9125 45.44625 9 45 C9 50.94 9 56.88 9 63 C12.24807495 62.97643433 12.24807495 62.97643433 15.56176758 62.95239258 C22.71028904 62.90271865 29.85881807 62.86955985 37.00746632 62.84456348 C41.34239125 62.82889689 45.6771396 62.80764066 50.01196289 62.77368164 C54.19408088 62.74112336 58.37602885 62.72315447 62.55826378 62.71536827 C64.15510422 62.70981838 65.75193519 62.69898094 67.34870338 62.68280983 C69.58269094 62.66108192 71.81597288 62.65803104 74.05004883 62.65942383 C75.32245926 62.65276199 76.59486969 62.64610016 77.90583801 62.63923645 C81 63 81 63 82.9160614 64.32524109 C84.66248822 67.0235894 84.28117086 69.53391423 84.1875 72.6875 C84.16042969 73.86699219 84.13335937 75.04648438 84.10546875 76.26171875 C84.05326172 77.61716797 84.05326172 77.61716797 84 79 C84.59538574 78.98952637 85.19077148 78.97905273 85.80419922 78.96826172 C88.49442343 78.92676051 91.18458037 78.90069296 93.875 78.875 C94.81214844 78.85824219 95.74929688 78.84148437 96.71484375 78.82421875 C97.61074219 78.81777344 98.50664062 78.81132813 99.4296875 78.8046875 C100.25710449 78.79421387 101.08452148 78.78374023 101.93701172 78.77294922 C104 79 104 79 106 81 C106.25878906 84.04101562 106.25878906 84.04101562 106.265625 87.90625 C106.26753845 88.58675415 106.2694519 89.2672583 106.27142334 89.96838379 C106.27278463 91.40747446 106.26909205 92.84657744 106.26074219 94.28564453 C106.25004128 96.49149087 106.26063872 98.69652281 106.2734375 100.90234375 C106.27211589 102.29948097 106.26955348 103.69661768 106.265625 105.09375 C106.26336914 106.36927734 106.26111328 107.64480469 106.25878906 108.95898438 C106 112 106 112 104 114 C101.69 114 99.38 114 97 114 C97 120.93 97 127.86 97 135 C101.75543213 134.98428955 101.75543213 134.98428955 106.60693359 134.96826172 C117.06036738 134.93518 127.51380342 134.91305357 137.96727562 134.89637566 C144.3076389 134.88592104 150.64794874 134.87173131 156.98828125 134.84912109 C163.10257114 134.82745245 169.21680949 134.81544403 175.3311348 134.81024551 C177.66842079 134.80653898 180.00570383 134.79930148 182.34296799 134.78853989 C185.60680067 134.77410444 188.87041808 134.77201872 192.13427734 134.77294922 C193.10891434 134.76575867 194.08355133 134.75856812 195.08772278 134.75115967 C195.97395828 134.753909 196.86019379 134.75665833 197.77328491 134.75949097 C198.54574743 134.75764738 199.31820995 134.75580379 200.11408043 134.75390434 C202 135 202 135 204 137 C204.46103073 141.46154808 204.32398794 145.95490638 204.3125 150.4375 C204.32861328 151.69111328 204.34472656 152.94472656 204.36132812 154.23632812 C204.36197266 155.43580078 204.36261719 156.63527344 204.36328125 157.87109375 C204.36775269 159.52516235 204.36775269 159.52516235 204.37231445 161.21264648 C204 164 204 164 201 167 C196.38 167 191.76 167 187 167 C187 199.67 187 232.34 187 266 C188.98 266 190.96 266 193 266 C196.36551496 269.36551496 195.29719582 273.81489719 195.32226562 278.38671875 C195.32009033 279.06138184 195.31791504 279.73604492 195.31567383 280.43115234 C195.31251166 282.49239856 195.33597703 284.5522124 195.36132812 286.61328125 C195.36197266 287.90621094 195.36261719 289.19914062 195.36328125 290.53125 C195.36775269 292.31885742 195.36775269 292.31885742 195.37231445 294.14257812 C195.24945068 295.08552734 195.12658691 296.02847656 195 297 C192 299 192 299 187 299 C187 324.08 187 349.16 187 375 C192.61 376.32 198.22 377.64 204 379 C209.79532439 380.42920424 215.57637284 381.90681604 221.35302734 383.40942383 C223.05827255 383.85100475 224.7646951 384.28806004 226.47216797 384.72094727 C228.9815248 385.35740581 231.48707936 386.00720242 233.9921875 386.66015625 C234.75457733 386.85086197 235.51696716 387.04156769 236.30245972 387.23805237 C243.00326348 389.01435394 243.00326348 389.01435394 245 392 C245.5 395 245.5 395 245 398 C244.17927002 398.42901611 243.35854004 398.85803223 242.51293945 399.30004883 C239.71549928 400.77800574 239.71549928 400.77800574 239.34057617 403.8190918 C239.32486572 404.93453369 239.30915527 406.04997559 239.29296875 407.19921875 C239.24946289 409.01196289 239.24946289 409.01196289 239.20507812 410.86132812 C239.19637695 412.7552832 239.19637695 412.7552832 239.1875 414.6875 C239.16236328 415.96173828 239.13722656 417.23597656 239.11132812 418.54882812 C239.05232624 421.69952858 239.01614034 424.84883548 239 428 C239.76763672 428.26530518 240.53527344 428.53061035 241.32617188 428.80395508 C244.88034911 430.39379386 246.11796623 431.98555867 248.03125 435.30615234 C249.91771537 440.55193332 249.57613958 446.11544262 249.51934814 451.62460327 C249.41206463 463.75627103 250.16286166 474.82985968 254.0390625 486.41796875 C255.06011738 490.22409609 255.21354694 492.26966225 254 496 C251.67419452 499.12319392 250.4942921 499.92253975 246.59594727 500.53344727 C245.25312763 500.56645546 243.90959636 500.57612471 242.56640625 500.56640625 C241.49397926 500.57570412 241.49397926 500.57570412 240.39988708 500.58518982 C238.8911983 500.59227779 237.38243114 500.58913163 235.8737793 500.57641602 C233.57258169 500.5625607 231.27546285 500.59661089 228.97460938 500.63476562 C227.50520734 500.63571704 226.03580025 500.63385677 224.56640625 500.62890625 C223.88292618 500.64216446 223.19944611 500.65542267 222.49525452 500.66908264 C218.68778182 500.59537281 217.076993 500.06093417 214.05615234 497.67016602 C211.34113578 494.144384 211.44287811 492.3727046 212 488 C212.54725784 486.21081016 213.10015713 484.42213227 213.72680664 482.65917969 C217.64574218 471.44221958 217.59904954 460.09089534 217.54663086 448.35009766 C217.55024628 447.64722626 217.55386169 446.94435486 217.55758667 446.22018433 C217.56590455 444.28839226 217.55043868 442.35653993 217.53344727 440.42480469 C218.20618303 435.48648064 220.42916391 432.38603184 224.125 429.125 C226 428 226 428 228 428 C228 420.08 228 412.16 228 404 C222.06 405.65 216.12 407.3 210 409 C209.98018066 410.43311523 209.96036133 411.86623047 209.93994141 413.34277344 C209.86388941 418.65805685 209.77517105 423.97306636 209.68261719 429.28808594 C209.64432583 431.5888122 209.60947326 433.88959835 209.578125 436.19042969 C209.5324783 439.49696262 209.47448253 442.80308312 209.4140625 446.109375 C209.40251129 447.13867126 209.39096008 448.16796753 209.37905884 449.22845459 C209.35918915 450.18914856 209.33931946 451.14984253 209.31884766 452.13964844 C209.29886215 453.40539703 209.29886215 453.40539703 209.2784729 454.69671631 C208.97022416 457.24627968 208.37654792 458.8384268 207 461 C204.85832162 462.44466483 202.84663401 463.64160926 200.5625 464.8125 C199.90072754 465.15579346 199.23895508 465.49908691 198.55712891 465.8527832 C160.45323012 485.03712974 114.69915284 488.56273726 74.05859375 475.7421875 C65.84249074 472.99236003 57.82176682 469.72356715 50 466 C49.17177734 465.63277832 48.34355469 465.26555664 47.49023438 464.88720703 C46.67361328 464.49259277 45.85699219 464.09797852 45.015625 463.69140625 C44.27086914 463.34408447 43.52611328 462.9967627 42.75878906 462.63891602 C40.11265123 460.17312989 40.40025009 457.48618708 40 454 C38.80286755 454.00368717 37.60573509 454.00737434 36.3723259 454.01117325 C7.96684786 454.09776938 -20.43862675 454.16374436 -48.84420766 454.20426132 C-52.33900976 454.20926426 -55.83381159 454.21444154 -59.32861328 454.21972656 C-60.02437728 454.2207758 -60.72014128 454.22182505 -61.43698904 454.22290608 C-72.70871892 454.24032027 -83.98036735 454.2718635 -95.25204888 454.30861118 C-106.81435445 454.3459925 -118.37660266 454.36793039 -129.93896747 454.37635398 C-136.43486955 454.38157802 -142.93058679 454.39389345 -149.42642975 454.42292023 C-155.53636657 454.45000224 -161.64604181 454.45845954 -167.75603294 454.45243073 C-170.00227211 454.45353419 -172.24851972 454.46153068 -174.49470711 454.4768219 C-177.55459647 454.49663654 -180.61348989 454.49197001 -183.67340088 454.48101807 C-184.56834047 454.49266943 -185.46328005 454.5043208 -186.38533902 454.51632524 C-192.36657128 454.45820425 -192.36657128 454.45820425 -195.55056381 452.15499496 C-197.52659871 449.21706275 -197.51713491 447.14973846 -197.53125 443.625 C-197.53640625 442.39265625 -197.5415625 441.1603125 -197.546875 439.890625 C-197.53140625 438.60671875 -197.5159375 437.3228125 -197.5 436 C-197.51546875 434.71609375 -197.5309375 433.4321875 -197.546875 432.109375 C-197.54171875 430.87703125 -197.5365625 429.6446875 -197.53125 428.375 C-197.52673828 427.24835938 -197.52222656 426.12171875 -197.51757812 424.9609375 C-197 422 -197 422 -193 418 C-188.71 418 -184.42 418 -180 418 C-180 378.73 -180 339.46 -180 299 C-181.65 299 -183.3 299 -185 299 C-187.39356417 296.82186315 -187.94283022 295.41137073 -188.38818359 292.20678711 C-188.39156738 291.1575708 -188.39495117 290.10835449 -188.3984375 289.02734375 C-188.40230469 287.88072266 -188.40617187 286.73410156 -188.41015625 285.55273438 C-188.39855469 284.35970703 -188.38695312 283.16667969 -188.375 281.9375 C-188.38660156 280.74060547 -188.39820313 279.54371094 -188.41015625 278.31054688 C-188.40628906 277.16521484 -188.40242188 276.01988281 -188.3984375 274.83984375 C-188.39505371 273.79175537 -188.39166992 272.74366699 -188.38818359 271.66381836 C-188 269 -188 269 -186.78759766 267.13500977 C-185 266 -185 266 -180 266 C-180 233.33 -180 200.66 -180 167 C-184.62 167 -189.24 167 -194 167 C-197.08349375 162.888675 -197.38161051 162.26924891 -197.3984375 157.5 C-197.40423828 155.9221875 -197.40423828 155.9221875 -197.41015625 154.3125 C-197.39855469 153.219375 -197.38695312 152.12625 -197.375 151 C-197.38660156 149.906875 -197.39820313 148.81375 -197.41015625 147.6875 C-197.40628906 146.635625 -197.40242188 145.58375 -197.3984375 144.5 C-197.39505371 143.5409375 -197.39166992 142.581875 -197.38818359 141.59375 C-196.89501979 138.29854733 -196.51436367 137.23511176 -194 135 C-190.68244531 134.39035192 -187.38449304 134.49608152 -184.02075195 134.54589844 C-182.48390747 134.54502228 -182.48390747 134.54502228 -180.91601562 134.54412842 C-177.5230951 134.54691934 -174.13104866 134.5780599 -170.73828125 134.609375 C-168.38844788 134.61683378 -166.03860829 134.62252842 -163.68876648 134.62652588 C-157.49900183 134.64181067 -151.30961164 134.68111744 -145.11999512 134.7253418 C-138.80595974 134.76623292 -132.49186395 134.78452375 -126.17773438 134.8046875 C-113.78496512 134.84760866 -101.39257225 134.91798221 -89 135 C-89 128.07 -89 121.14 -89 114 C-91.64 114 -94.28 114 -97 114 C-100.16605486 109.25091772 -99.33385215 104.13514404 -99.31567383 98.54833984 C-99.31251076 96.50694546 -99.33599127 94.46699681 -99.36132812 92.42578125 C-99.36197266 91.14058594 -99.36261719 89.85539062 -99.36328125 88.53125 C-99.36626221 87.35111328 -99.36924316 86.17097656 -99.37231445 84.95507812 C-99 82 -99 82 -97.76904297 80.11010742 C-95.47909566 78.67312282 -94.02615722 78.65555114 -91.33203125 78.70703125 C-90.43935547 78.71669922 -89.54667969 78.72636719 -88.62695312 78.73632812 C-87.69818359 78.76146484 -86.76941406 78.78660156 -85.8125 78.8125 C-84.87212891 78.82603516 -83.93175781 78.83957031 -82.96289062 78.85351562 C-80.64134962 78.88886904 -78.32096347 78.93821326 -76 79 C-76.02320313 78.01257813 -76.04640625 77.02515625 -76.0703125 76.0078125 C-76.08835937 74.72648437 -76.10640625 73.44515625 -76.125 72.125 C-76.14820313 70.84882812 -76.17140625 69.57265625 -76.1953125 68.2578125 C-76 65 -76 65 -74 63 C-71.02609253 62.75949097 -71.02609253 62.75949097 -67.16357422 62.77294922 C-66.46102509 62.77265717 -65.75847595 62.77236511 -65.03463745 62.77206421 C-62.70786269 62.77345977 -60.38140646 62.78903128 -58.0546875 62.8046875 C-56.44328995 62.80841683 -54.83189013 62.81126418 -53.2204895 62.81326294 C-48.97566486 62.82090569 -44.7309767 62.84055961 -40.48620605 62.8626709 C-36.1561874 62.88311557 -31.82614674 62.8922617 -27.49609375 62.90234375 C-18.99733314 62.92380496 -10.49868354 62.95794855 -2 63 C-2.00444122 62.25497726 -2.00888245 61.50995453 -2.01345825 60.74235535 C-2.05352032 53.72370138 -2.08397692 46.70508697 -2.10362434 39.68635082 C-2.11406482 36.07787895 -2.12822873 32.46950151 -2.15087891 28.86108398 C-2.17259804 25.37923058 -2.18456664 21.89746805 -2.18975449 18.41555214 C-2.19525227 16.43961717 -2.21086668 14.46371878 -2.22659302 12.48783875 C-2.22674408 11.28682022 -2.22689514 10.0858017 -2.22705078 8.84838867 C-2.231492 7.78915695 -2.23593323 6.72992523 -2.24050903 5.63859558 C-2 3 -2 3 0 0 Z M9 16 C9 21.94 9 27.88 9 34 C11.5059375 34.37125 11.5059375 34.37125 14.0625 34.75 C18.37926146 35.4482247 22.50860989 36.38820328 26.70361328 37.62353516 C35.32232594 40.15329707 41.84492357 41.07753822 50 37 C50 31.39 50 25.78 50 20 C46.968125 20.3403125 46.968125 20.3403125 43.875 20.6875 C34.80013216 21.34949644 26.66938717 19.44189655 18 16.8125 C14.55278683 15.73858452 14.55278683 15.73858452 9 16 Z M-65 74 C-65 75.65 -65 77.3 -65 79 C-19.46 79 26.08 79 73 79 C73 77.35 73 75.7 73 74 C27.46 74 -18.08 74 -65 74 Z M-88 90 C-88 94.29 -88 98.58 -88 103 C-27.61 103 32.78 103 95 103 C95 98.71 95 94.42 95 90 C34.61 90 -25.78 90 -88 90 Z M-78 114 C-78 214.32 -78 314.64 -78 418 C-39.06 418 -0.12 418 40 418 C40 415.03 40 412.06 40 409 C36.22965234 407.89417051 32.45863228 406.79065053 28.6875 405.6875 C27.1087207 405.2244043 27.1087207 405.2244043 25.49804688 404.75195312 C19.37092637 402.96094867 13.23465845 401.23645222 7.05786133 399.62426758 C5 399 5 399 4 398 C3.95919217 396.00041636 3.95745644 393.99954746 4 392 C8.39667779 389.62618726 12.73356942 388.07981912 17.55004883 386.83935547 C18.64623032 386.54850067 18.64623032 386.54850067 19.76455688 386.25177002 C22.16049978 385.61753458 24.55873325 384.99245198 26.95703125 384.3671875 C28.62775627 383.92613788 30.29830133 383.48440602 31.96867371 383.04202271 C36.35128019 381.88279985 40.7357644 380.7308611 45.12084961 379.58105469 C52.15752927 377.73524266 59.19192215 375.88079484 66.22510338 374.02170181 C68.68445899 373.37314008 71.14499061 372.72919222 73.60566711 372.08566284 C75.10279473 371.69121992 76.59988253 371.29662585 78.09692383 370.90185547 C79.12934959 370.63379593 79.12934959 370.63379593 80.18263245 370.36032104 C83.35716395 369.699217 83.35716395 369.699217 86 368 C86.09639773 366.63950734 86.12371937 365.27404339 86.12304783 363.91014004 C86.12503888 363.02336651 86.12702993 362.13659299 86.12908131 361.22294754 C86.12471205 359.7448655 86.12471205 359.7448655 86.12025452 358.23692322 C86.12110894 357.19884649 86.12196337 356.16076977 86.12284368 355.09123617 C86.12450159 351.58416313 86.11897205 348.07713706 86.11352539 344.57006836 C86.11324356 342.06748964 86.11340117 339.56491083 86.1139679 337.06233215 C86.11419622 331.65971711 86.11134476 326.25711742 86.10573006 320.85450554 C86.09761732 313.04315202 86.09500007 305.23180434 86.09374207 297.42044706 C86.09155119 284.74831231 86.08489014 272.07618399 86.07543945 259.40405273 C86.06626626 247.09122754 86.05919643 234.77840409 86.05493164 222.46557617 C86.05466364 221.6993984 86.05439565 220.93322063 86.05411953 220.14382535 C86.05204021 214.15218181 86.05008325 208.16053824 86.04816496 202.16889465 C86.0387242 172.77925721 86.01860758 143.38963583 86 114 C31.88 114 -22.24 114 -78 114 Z M-186 146 C-186 149.3 -186 152.6 -186 156 C-153.99 156 -121.98 156 -89 156 C-89 152.7 -89 149.4 -89 146 C-121.01 146 -153.02 146 -186 146 Z M97 146 C97 149.3 97 152.6 97 156 C128.68 156 160.36 156 193 156 C193 152.7 193 149.4 193 146 C161.32 146 129.64 146 97 146 Z M-169 167 C-169 199.67 -169 232.34 -169 266 C-142.6 266 -116.2 266 -89 266 C-89 233.33 -89 200.66 -89 167 C-115.4 167 -141.8 167 -169 167 Z M97 167 C97 199.67 97 232.34 97 266 C123.07 266 149.14 266 176 266 C176 233.33 176 200.66 176 167 C149.93 167 123.86 167 97 167 Z M-177 277 C-177 280.63 -177 284.26 -177 288 C-147.96 288 -118.92 288 -89 288 C-89 284.37 -89 280.74 -89 277 C-118.04 277 -147.08 277 -177 277 Z M97 277 C97 280.63 97 284.26 97 288 C125.71 288 154.42 288 184 288 C184 284.37 184 280.74 184 277 C155.29 277 126.58 277 97 277 Z M-169 299 C-169 338.27 -169 377.54 -169 418 C-142.6 418 -116.2 418 -89 418 C-89 378.73 -89 339.46 -89 299 C-115.4 299 -141.8 299 -169 299 Z M97 299 C97 320.78 97 342.56 97 365 C104.6658803 363.60620358 111.27215486 362.10242162 118.54296875 359.70703125 C125.94383828 358.19340709 133.22097654 360.72146824 140.3359375 362.72265625 C141.77678207 363.12006264 141.77678207 363.12006264 143.24673462 363.52549744 C146.29097511 364.3659058 149.33308351 365.21372194 152.375 366.0625 C155.43862121 366.91377271 158.50266911 367.76343497 161.5675354 368.61021423 C163.46918792 369.13596617 165.3700741 369.66449939 167.27011108 370.19606018 C168.12505157 370.43308151 168.97999207 370.67010284 169.86083984 370.91430664 C170.61392426 371.12446915 171.36700867 371.33463165 172.14291382 371.55116272 C174.00557851 372.07830832 174.00557851 372.07830832 176 372 C176 347.91 176 323.82 176 299 C149.93 299 123.86 299 97 299 Z M111.94360352 372.203125 C111.06475998 372.43721069 110.18591644 372.67129639 109.28044128 372.91247559 C106.39431363 373.68340354 103.51167143 374.46660136 100.62890625 375.25 C98.62129287 375.78884733 96.61347204 376.3269223 94.60545349 376.86425781 C89.33446186 378.27696475 84.06634643 379.70011862 78.79876709 381.12548828 C73.4176772 382.57957907 68.0339252 384.02374195 62.65039062 385.46875 C52.09763576 388.30280598 41.54789366 391.14790893 31 394 C33.69845438 396.69845438 36.09352184 397.01160541 39.78198242 397.99951172 C40.82892525 398.28291916 40.82892525 398.28291916 41.89701843 398.572052 C44.21481316 399.19773971 46.5350747 399.81371594 48.85546875 400.4296875 C50.4759324 400.8650628 52.09623553 401.30103594 53.71638489 401.73757935 C57.99818917 402.88954848 62.28214541 404.03330865 66.56658936 405.17541504 C70.87058555 406.32425658 75.17250554 407.48081517 79.47460938 408.63671875 C84.33896882 409.94285897 89.20358106 411.24803538 94.06938171 412.54879761 C94.813691 412.74789293 95.55800028 412.94698826 96.32486439 413.15211678 C97.78351972 413.54107568 99.24268836 413.92811537 100.70239544 414.31310844 C104.19827762 415.23715087 107.67949646 416.1909841 111.14712524 417.21636963 C112.14654254 417.5041286 112.14654254 417.5041286 113.16615009 417.79770088 C114.96562888 418.31746915 116.76082127 418.85201448 118.55561829 419.38772583 C125.50577485 420.62318743 132.09514007 418.60842269 138.78686523 416.80688477 C139.62523422 416.5856192 140.46360321 416.36435364 141.32737732 416.13638306 C144.0725966 415.41017606 146.81566009 414.67619522 149.55859375 413.94140625 C151.47284415 413.43173067 153.38715685 412.92228901 155.30152893 412.41307068 C159.29924589 411.34825693 163.29584106 410.27934872 167.29174805 409.20776367 C172.42317708 407.83221744 177.55778218 406.46895984 182.69334316 405.10893345 C186.64007641 404.06195409 190.58480307 403.00757283 194.52897835 401.95100212 C196.42261537 401.44490062 198.3169395 400.94136302 200.21194267 400.44040108 C202.8497196 399.74210437 205.48456692 399.03368353 208.11889648 398.32250977 C208.90689636 398.11620438 209.69489624 397.90989899 210.5067749 397.69734192 C212.35556789 397.19245779 214.18128491 396.60433346 216 396 C216.33 395.34 216.66 394.68 217 394 C215.92924728 393.71407486 214.85849457 393.42814972 213.7552948 393.13356018 C203.67541013 390.44178041 193.59578469 387.74903192 183.51641369 385.05532932 C178.33423383 383.67043006 173.15196253 382.28587491 167.96948242 380.90209961 C162.97020081 379.56722674 157.97115921 378.23145856 152.97228432 376.8950634 C151.06295647 376.38479507 149.15354166 375.87485204 147.24403954 375.36523628 C144.57416608 374.65263058 141.90460127 373.93887973 139.23510742 373.22485352 C138.04504089 372.90764595 138.04504089 372.90764595 136.83093262 372.58403015 C133.85919528 371.78815355 130.91940302 370.97313434 128 370 C122.24823524 369.63111149 117.42663563 370.69591004 111.94360352 372.203125 Z M51 412 C50.85163549 417.76567303 50.74277667 423.53023468 50.67041016 429.29736328 C50.64024383 431.25882317 50.59930392 433.22014824 50.54736328 435.18115234 C50.47453884 438.00131462 50.44054348 440.81969385 50.4140625 443.640625 C50.38309479 444.51680481 50.35212708 445.39298462 50.32022095 446.29571533 C50.31890727 448.67428304 50.38482853 450.70185825 51 453 C53.65838468 455.59259018 53.65838468 455.59259018 57 457 C58.08885498 457.54901978 58.08885498 457.54901978 59.19970703 458.10913086 C98.82321352 474.583673 141.30025294 477.44297226 181.6953125 461.16015625 C185.52161582 459.54650217 189.28006968 457.84655195 193 456 C193.88196045 455.66274902 194.7639209 455.32549805 195.67260742 454.97802734 C198.12562633 453.29018317 198.12562633 453.29018317 198.43423462 451.14659119 C198.5814542 448.66243342 198.56111834 446.22581367 198.48828125 443.73828125 C198.48120651 442.83248825 198.47413177 441.92669525 198.46684265 440.99345398 C198.43884228 438.09896417 198.37609441 435.2064055 198.3125 432.3125 C198.28742438 430.35093939 198.26460993 428.38934846 198.24414062 426.42773438 C198.18899716 421.61774495 198.10268642 416.80919991 198 412 C189.93290755 413.45820809 182.08049789 415.52364081 174.1796875 417.6953125 C172.86808635 418.05175347 171.55632563 418.4076077 170.24441528 418.76290894 C164.72370808 420.25848105 159.20442674 421.75911356 153.68896484 423.27392578 C150.29514373 424.20561937 146.89875257 425.12737614 143.50055313 426.04296494 C141.59766027 426.55866648 139.69769584 427.08513536 137.79782104 427.61184692 C125.31460311 430.96541718 116.85993291 429.45884964 104.6328125 426.0625 C103.14714011 425.65798309 101.66120388 425.25443405 100.17501831 424.85180664 C96.28379318 423.79520924 92.39584703 422.72703288 88.50860596 421.65588379 C82.26714025 419.93845387 76.02046999 418.24001589 69.77444077 416.53927612 C67.59430589 415.94405073 65.41536079 415.34462806 63.23660278 414.74438477 C61.907911 414.38032347 60.57920684 414.01630731 59.25048828 413.65234375 C58.08881134 413.33257568 56.9271344 413.01280762 55.73025513 412.68334961 C53.14571995 411.9190672 53.14571995 411.9190672 51 412 Z M-186 429 C-186 433.62 -186 438.24 -186 443 C-111.42 443 -36.84 443 40 443 C40 438.38 40 433.76 40 429 C-34.58 429 -109.16 429 -186 429 Z M229 440 C228.69278443 443.05813607 228.69278443 443.05813607 228.7265625 446.66796875 C228.70621932 448.05143959 228.68536779 449.43490302 228.6640625 450.81835938 C228.64178367 452.98110135 228.62512154 455.14354635 228.61914062 457.30639648 C228.57528401 466.72789372 227.59383559 474.97845976 224.85302734 484.0168457 C223.86253551 486.96361244 223.86253551 486.96361244 224 490 C230.27 490 236.54 490 243 490 C242.360625 487.855 241.72125 485.71 241.0625 483.5 C238.31803741 473.12239926 238.43492285 462.44401531 238.32836914 451.78320312 C238.31871628 451.09519623 238.30906342 450.40718933 238.29911804 449.69833374 C238.2748022 447.8017559 238.264665 445.90501172 238.25537109 444.00830078 C238.22828876 440.81990499 238.22828876 440.81990499 236 438 C232.54204217 437.56775527 231.52024391 437.47975609 229 440 Z " fill="#000000" transform="translate(227,6)"/>
<path d="M0 0 C10.51213584 10.8412114 15.86746423 23.40399661 16.3125 38.375 C16.04297306 51.89891062 11.36637932 65.26185343 1.96875 75.1953125 C-10.18907818 86.33998833 -24.32964144 91.5329278 -40.71484375 90.84375 C-56.09139604 89.07672079 -68.48692347 82.21647116 -78.40234375 70.33203125 C-85.10035274 60.55523083 -88.39925218 49.86294684 -88.3125 38.125 C-88.30758545 37.33416016 -88.3026709 36.54332031 -88.29760742 35.72851562 C-88.17729536 29.72155017 -87.40251234 24.5502938 -85 19 C-84.69449219 18.20851562 -84.38898438 17.41703125 -84.07421875 16.6015625 C-78.80770213 4.45984782 -68.90129893 -4.56714466 -57 -10 C-37.43952096 -17.61471615 -15.69553535 -14.15334329 0 0 Z M-67.375 11.25 C-76.06064778 21.64780832 -77.93520166 32.86766126 -77 46 C-74.32971463 58.16124253 -67.04779032 67.71425618 -56.7578125 74.47265625 C-47.6683727 79.58360355 -36.91396043 81.22605446 -26.73046875 78.89453125 C-14.36729361 74.84422065 -5.39854654 68.38724384 1 57 C5.9162844 45.36527417 6.42508282 35.16195299 2.390625 23.21484375 C-1.32073956 14.6349195 -7.01474292 7.83812635 -15 3 C-15.63679688 2.61199219 -16.27359375 2.22398437 -16.9296875 1.82421875 C-34.11347887 -7.66482267 -54.2206197 -2.46989571 -67.375 11.25 Z " fill="#000000" transform="translate(267,158)"/>
<path d="M0 0 C0.91381943 0.00247742 1.82763885 0.00495483 2.76914978 0.00750732 C3.73022644 0.00239639 4.6913031 -0.00271454 5.6815033 -0.00798035 C8.87036807 -0.0219232 12.05901785 -0.02091604 15.24790955 -0.01861572 C17.45746949 -0.02250009 19.66702869 -0.02683422 21.87658691 -0.03160095 C26.51283689 -0.03907329 31.14901074 -0.03876456 35.78526306 -0.0335083 C41.73531445 -0.0277126 47.68505467 -0.04464238 53.63505459 -0.06785297 C58.19973583 -0.08256367 62.76434169 -0.08346564 67.32904243 -0.08034325 C69.52315449 -0.08085781 71.71727062 -0.08612069 73.91135979 -0.09615517 C76.97614303 -0.10845049 80.0403143 -0.10176933 83.10508728 -0.09014893 C84.01688248 -0.09779266 84.92867767 -0.1054364 85.86810303 -0.11331177 C86.70233795 -0.10629745 87.53657288 -0.09928314 88.39608765 -0.09205627 C89.12078467 -0.09222402 89.8454817 -0.09239176 90.59213924 -0.09256458 C93.08193015 0.39599963 93.97150156 1.29048819 95.5018158 3.28216553 C95.88999939 6.0536499 95.88999939 6.0536499 95.9002533 9.37591553 C95.90412048 10.57087646 95.90798767 11.7658374 95.91197205 12.99700928 C95.90037048 14.24611084 95.88876892 15.4952124 95.8768158 16.78216553 C95.88841736 18.03126709 95.90001892 19.28036865 95.91197205 20.56732178 C95.90810486 21.76228271 95.90423767 22.95724365 95.9002533 24.18841553 C95.89686951 25.28476318 95.89348572 26.38111084 95.88999939 27.51068115 C95.44488717 30.68861445 94.97403878 31.35223128 92.5018158 33.28216553 C90.61054993 33.65689564 90.61054993 33.65689564 88.44078064 33.65638733 C87.61640503 33.66340164 86.79202942 33.67041595 85.94267273 33.67764282 C85.04179932 33.66999908 84.1409259 33.66235535 83.2127533 33.65447998 C81.78554962 33.65995598 81.78554962 33.65995598 80.32951355 33.6655426 C77.17843381 33.67366116 74.02786619 33.66002696 70.8768158 33.64544678 C68.69110616 33.64492833 66.50539606 33.64544544 64.31968689 33.6469574 C59.73644561 33.64686762 55.15338001 33.63642585 50.57017517 33.61834717 C44.68857954 33.59565991 38.80724074 33.5951153 32.9256134 33.60186481 C28.41154183 33.60520268 23.89752906 33.59857813 19.38346863 33.58873558 C17.21448575 33.58488014 15.04549634 33.58373678 12.87651062 33.58532143 C9.84783923 33.58569134 6.81949991 33.57309234 3.7908783 33.55682373 C2.43956818 33.56053986 2.43956818 33.56053986 1.06095886 33.56433105 C0.23658325 33.55724625 -0.58779236 33.55016144 -1.43714905 33.54286194 C-2.51118484 33.53978263 -2.51118484 33.53978263 -3.60691833 33.53664112 C-5.4981842 33.28216553 -5.4981842 33.28216553 -8.4981842 31.28216553 C-8.87049866 28.42474365 -8.87049866 28.42474365 -8.86146545 24.81341553 C-8.86082092 23.52048584 -8.86017639 22.22755615 -8.85951233 20.89544678 C-8.85121399 20.22078369 -8.84291565 19.54612061 -8.83436584 18.85101318 C-8.81077281 16.78990602 -8.81380395 14.73009212 -8.82044983 12.66888428 C-8.75138831 0.07457395 -8.75138831 0.07457395 0 0 Z M2.5018158 11.28216553 C2.5018158 14.91216553 2.5018158 18.54216553 2.5018158 22.28216553 C29.5618158 22.28216553 56.6218158 22.28216553 84.5018158 22.28216553 C84.5018158 18.65216553 84.5018158 15.02216553 84.5018158 11.28216553 C57.4418158 11.28216553 30.3818158 11.28216553 2.5018158 11.28216553 Z " fill="#000000" transform="translate(187.49818420410156,271.71783447265625)"/>
<path d="M0 0 C2.9375 0.375 2.9375 0.375 4.9375 2.375 C5.57796359 7.67839935 5.69297945 12.98374068 5.80249023 18.32177734 C5.85056474 20.09745856 5.92548335 21.87262934 6.02807617 23.64599609 C6.70158237 35.41752202 6.70158237 35.41752202 4.9375 40.375 C1.03252562 44.42169826 -2.88083258 46.18370421 -8.0625 48.375 C-9.87626119 49.50701189 -11.6730674 50.66754061 -13.4375 51.875 C-17.61016445 54.37588032 -20.24645348 55.17767442 -25.0625 54.375 C-27.0625 52.375 -27.0625 52.375 -27.5 49.5 C-27.0625 46.375 -27.0625 46.375 -24.984375 44.4453125 C-21.71183314 42.12653284 -18.3651145 40.09434361 -14.875 38.125 C-14.24658203 37.76148438 -13.61816406 37.39796875 -12.97070312 37.0234375 C-8.31602444 34.375 -8.31602444 34.375 -6.0625 34.375 C-6.07821045 33.4871582 -6.0939209 32.59931641 -6.11010742 31.68457031 C-6.16131686 28.38210179 -6.19888856 25.0800568 -6.22729492 21.77734375 C-6.24235681 20.34954154 -6.26281062 18.9217854 -6.28881836 17.49414062 C-6.32531842 15.43868627 -6.34225166 13.38384495 -6.35546875 11.328125 C-6.3711792 10.09223633 -6.38688965 8.85634766 -6.40307617 7.58300781 C-5.90322563 2.87473821 -4.84025546 0.59268434 0 0 Z " fill="#000000" transform="translate(231.0625,159.625)"/>
</svg>
